<svg width="282" height="293" viewBox="0 0 282 293" fill="none" xmlns="http://www.w3.org/2000/svg">
<path d="M281.093 248.168C281.093 248.168 281.085 248.168 281.082 248.168L259.044 247.466C213.223 246.158 169.667 235.793 133.086 217.49C128.413 215.152 125.957 211.438 126.515 207.558C127.202 202.787 132.12 198.966 139.046 197.822L226.926 183.292C249.123 178.617 256.892 168.304 259.501 160.475C262.627 151.09 260.006 140.114 252.488 131.113C246.094 123.461 235.285 120.211 227.71 118.434C167.164 104.225 2.47325 106.984 0.816074 107.013C0.624861 107.011 0.466291 106.86 0.463182 106.663C0.460072 106.467 0.612412 106.304 0.803625 106.301C2.46081 106.271 167.237 103.512 227.864 117.74C235.534 119.539 246.488 122.836 253.014 130.649C260.693 139.843 263.364 151.079 260.157 160.705C257.491 168.709 249.583 179.246 227.051 183.991L139.155 198.524C132.536 199.618 127.842 203.206 127.2 207.662C126.681 211.272 128.935 214.62 133.389 216.848C169.883 235.106 213.339 245.448 259.064 246.752L281.102 247.455C281.293 247.461 281.444 247.626 281.438 247.822C281.431 248.015 281.278 248.167 281.091 248.167L281.093 248.168Z" fill="#101010"/>
<path d="M128.153 290.037C128.125 290.037 128.096 290.033 128.066 290.025C103.768 283.572 81.9107 272.245 63.1003 256.359C55.1269 249.626 34.9298 231.104 19.6203 204.612C17.9724 201.76 17.9616 198.192 19.5924 195.297C27.0963 181.968 44.0443 172.095 64.9269 168.889L146.768 155.076C151.938 154.283 155.372 151.54 155.523 148.088C155.663 144.875 152.863 142.161 148.218 141.003C127.883 135.94 1.92612 126.663 0.656034 126.569C0.464821 126.555 0.320196 126.384 0.334187 126.187C0.348179 125.991 0.512985 125.847 0.705753 125.857C1.97584 125.95 127.99 135.231 148.381 140.309C154.345 141.793 156.339 145.316 156.216 148.118C156.05 151.926 152.384 154.934 146.875 155.78L65.0343 169.593C44.3537 172.769 27.5922 182.511 20.1939 195.655C18.6891 198.327 18.6984 201.62 20.2188 204.25C35.4724 230.644 55.5979 249.101 63.5418 255.81C82.273 271.628 104.042 282.909 128.24 289.336C128.425 289.385 128.537 289.58 128.489 289.77C128.449 289.931 128.307 290.038 128.153 290.038V290.037Z" fill="#101010"/>
<path d="M6.03804 117.11L10.3784 117.005C10.4903 117.002 10.5821 117.093 10.5852 117.208C10.5883 117.323 10.4997 117.417 10.3877 117.42L6.04889 117.524C5.93852 117.527 5.84523 117.438 5.84212 117.323C5.83901 117.209 5.92766 117.114 6.03804 117.11Z" fill="#101010"/>
<path d="M26.0672 116.798H34.7853C34.9003 116.796 34.9936 116.892 34.9936 117.009C34.9936 117.125 34.9003 117.223 34.7853 117.223H26.0703C25.9568 117.221 25.8635 117.125 25.8635 117.009C25.8635 116.892 25.9552 116.798 26.0687 116.798H26.0672Z" fill="#101010"/>
<path d="M50.4756 116.993L59.1906 117.212C59.3088 117.215 59.4021 117.316 59.399 117.436C59.3959 117.557 59.2979 117.653 59.1813 117.649L50.4679 117.426C50.3513 117.423 50.2565 117.324 50.2596 117.204C50.2627 117.084 50.359 116.99 50.4756 116.993Z" fill="#101010"/>
<path d="M74.8701 117.799L83.5773 118.232C83.6986 118.238 83.7918 118.343 83.7856 118.466C83.7794 118.591 83.6768 118.687 83.5571 118.68L74.8515 118.244C74.7318 118.238 74.6369 118.134 74.6431 118.011C74.6493 117.888 74.7504 117.794 74.8701 117.799Z" fill="#101010"/>
<path d="M99.2412 119.197L107.936 119.837C108.06 119.847 108.152 119.957 108.144 120.083C108.137 120.209 108.028 120.305 107.905 120.297L99.2117 119.652C99.0889 119.642 98.9956 119.534 99.0034 119.408C99.0112 119.282 99.1184 119.187 99.2412 119.197Z" fill="#101010"/>
<path d="M123.573 121.179L132.251 122.025C132.377 122.038 132.47 122.153 132.458 122.282C132.445 122.411 132.333 122.507 132.207 122.494L123.531 121.643C123.405 121.63 123.312 121.517 123.325 121.388C123.337 121.258 123.447 121.164 123.573 121.177V121.179Z" fill="#101010"/>
<path d="M147.854 123.735L156.512 124.792C156.641 124.808 156.734 124.928 156.719 125.06C156.703 125.193 156.587 125.288 156.457 125.272L147.803 124.212C147.676 124.196 147.581 124.077 147.596 123.946C147.612 123.813 147.729 123.72 147.856 123.735H147.854Z" fill="#101010"/>
<path d="M172.07 126.89L180.698 128.169C180.83 128.188 180.922 128.314 180.903 128.45C180.885 128.586 180.762 128.68 180.63 128.661H180.627L172.003 127.379H172.002C171.871 127.359 171.779 127.233 171.8 127.099C171.818 126.965 171.94 126.871 172.07 126.892V126.89Z" fill="#101010"/>
<path d="M196.197 130.691L204.785 132.237C204.918 132.261 205.009 132.393 204.985 132.531C204.962 132.668 204.833 132.761 204.699 132.737H204.696L196.115 131.188H196.112C195.978 131.164 195.889 131.033 195.913 130.896C195.936 130.758 196.063 130.667 196.196 130.691H196.197Z" fill="#101010"/>
<path d="M220.156 135.562C222.955 136.413 225.694 137.495 228.284 138.895C228.407 138.963 228.455 139.119 228.389 139.247C228.324 139.373 228.172 139.422 228.047 139.355C225.495 137.973 222.784 136.9 220.013 136.057C219.881 136.017 219.805 135.873 219.844 135.737C219.883 135.601 220.023 135.523 220.155 135.563L220.156 135.562Z" fill="#101010"/>
<path d="M239.041 150.347C239.466 151.81 239.595 153.381 239.321 154.896C239.054 156.412 238.381 157.839 237.448 159.03C237.359 159.145 237.196 159.163 237.084 159.072C236.972 158.981 236.955 158.813 237.044 158.698C237.93 157.566 238.562 156.225 238.814 154.801C239.072 153.376 238.953 151.893 238.548 150.497C238.508 150.359 238.586 150.212 238.721 150.17C238.856 150.129 238.999 150.209 239.04 150.347H239.041Z" fill="#101010"/>
<path d="M223.14 165.089L214.477 166.079C214.333 166.095 214.202 165.988 214.185 165.839C214.17 165.691 214.274 165.557 214.418 165.539L223.08 164.552C223.223 164.536 223.354 164.642 223.37 164.79C223.385 164.939 223.283 165.071 223.138 165.087L223.14 165.089Z" fill="#101010"/>
<path d="M198.887 167.862L190.225 168.852C190.077 168.869 189.943 168.759 189.926 168.607C189.909 168.456 190.016 168.318 190.164 168.301L198.826 167.314C198.974 167.298 199.106 167.407 199.121 167.557C199.137 167.707 199.031 167.844 198.885 167.86L198.887 167.862Z" fill="#101010"/>
<path d="M174.632 170.636L165.97 171.626C165.819 171.643 165.682 171.532 165.665 171.377C165.648 171.222 165.757 171.081 165.908 171.064L174.57 170.077C174.719 170.059 174.854 170.171 174.872 170.325C174.889 170.478 174.78 170.617 174.631 170.634L174.632 170.636Z" fill="#101010"/>
<path d="M150.379 173.406L141.717 174.396C141.563 174.414 141.425 174.301 141.406 174.141C141.389 173.983 141.499 173.839 141.655 173.822L150.317 172.835C150.469 172.817 150.608 172.931 150.625 173.089C150.642 173.245 150.531 173.387 150.379 173.405V173.406Z" fill="#101010"/>
<path d="M126.125 176.181L118.97 176.998L119.001 176.993L117.525 177.338C117.371 177.375 117.215 177.276 117.179 177.116C117.144 176.958 117.242 176.8 117.396 176.763L118.877 176.419C118.886 176.417 118.899 176.414 118.908 176.414L126.064 175.599C126.219 175.582 126.361 175.697 126.378 175.858C126.395 176.018 126.283 176.163 126.126 176.181H126.125Z" fill="#101010"/>
<path d="M102.408 181.541C99.6437 182.444 96.9046 183.422 94.2027 184.498C94.0519 184.559 93.8824 184.482 93.8249 184.328C93.7659 184.173 93.8405 183.999 93.9913 183.94C96.7072 182.859 99.4587 181.878 102.232 180.973C102.384 180.923 102.548 181.01 102.596 181.166C102.644 181.323 102.56 181.49 102.408 181.54V181.541Z" fill="#101010"/>
<path d="M80.1385 191.467C77.6714 193.016 75.3022 194.732 73.1336 196.685C73.0108 196.797 72.8227 196.784 72.7139 196.658C72.6051 196.532 72.6175 196.338 72.7403 196.227C74.9432 194.245 77.3403 192.511 79.8307 190.948C79.9707 190.86 80.1526 190.906 80.2381 191.048C80.3236 191.192 80.2785 191.379 80.1401 191.467H80.1385Z" fill="#101010"/>
<path d="M64.7902 209.789C64.1528 212.654 64.2461 215.667 64.9643 218.512C65.0063 218.678 64.9084 218.849 64.7467 218.892C64.585 218.935 64.4187 218.834 64.3767 218.668C64.0114 217.203 63.7953 215.691 63.7626 214.174C63.7284 212.657 63.8761 211.135 64.201 209.655C64.2368 209.489 64.3984 209.384 64.5601 209.42C64.7218 209.457 64.8244 209.623 64.7887 209.789H64.7902Z" fill="#101010"/>
<path d="M72.9036 232.03C74.8919 234.181 77.0606 236.156 79.3318 237.995C79.4655 238.104 79.4888 238.304 79.3831 238.441C79.2774 238.578 79.0831 238.602 78.9494 238.494C76.661 236.637 74.4707 234.641 72.4575 232.463C72.3409 232.337 72.3455 232.137 72.4683 232.017C72.5912 231.898 72.7855 231.902 72.9021 232.029L72.9036 232.03Z" fill="#101010"/>
<path d="M92.4011 246.781C94.9366 248.223 97.5203 249.575 100.138 250.854C100.295 250.931 100.362 251.124 100.288 251.285C100.213 251.447 100.025 251.515 99.8678 251.439C97.239 250.153 94.6444 248.795 92.098 247.343C91.9472 247.257 91.8928 247.062 91.9767 246.907C92.0607 246.752 92.2503 246.696 92.4011 246.783V246.781Z" fill="#101010"/>
<path d="M114.568 257.096C117.285 258.139 120.023 259.126 122.778 260.06C122.946 260.117 123.037 260.302 122.981 260.475C122.925 260.647 122.745 260.742 122.577 260.684C119.816 259.745 117.069 258.755 114.344 257.708C114.179 257.644 114.095 257.456 114.157 257.288C114.22 257.119 114.402 257.032 114.566 257.096H114.568Z" fill="#101010"/>
<path d="M137.798 264.637C140.602 265.403 143.418 266.127 146.242 266.81C146.418 266.853 146.525 267.032 146.485 267.212C146.444 267.393 146.269 267.503 146.093 267.461C143.262 266.775 140.441 266.048 137.632 265.28C137.459 265.232 137.356 265.05 137.401 264.873C137.448 264.696 137.625 264.591 137.798 264.637Z" fill="#101010"/>
<path d="M161.577 270.128C164.429 270.677 167.29 271.19 170.153 271.669C170.334 271.699 170.457 271.875 170.427 272.06C170.397 272.245 170.228 272.371 170.046 272.341C167.176 271.859 164.313 271.343 161.454 270.792C161.275 270.757 161.157 270.582 161.191 270.398C161.225 270.214 161.396 270.093 161.575 270.128H161.577Z" fill="#101010"/>
<path d="M185.671 273.946L194.325 274.947H194.332C194.517 274.97 194.649 275.14 194.629 275.33C194.608 275.52 194.441 275.658 194.256 275.635L185.589 274.628C185.405 274.607 185.273 274.436 185.293 274.248C185.314 274.059 185.48 273.924 185.663 273.944H185.67L185.671 273.946Z" fill="#101010"/>
<path d="M209.944 276.308L218.639 276.828H218.645C218.835 276.84 218.978 277.007 218.967 277.2C218.956 277.395 218.794 277.542 218.605 277.531L209.897 277.006C209.709 276.994 209.566 276.828 209.577 276.635C209.588 276.442 209.75 276.295 209.938 276.306H209.944V276.308Z" fill="#101010"/>
<path d="M234.306 277.356L238.643 277.414H238.647C238.838 277.417 238.992 277.578 238.989 277.774C238.985 277.971 238.828 278.129 238.637 278.126L234.294 278.067C234.102 278.063 233.95 277.902 233.952 277.706C233.955 277.509 234.112 277.353 234.303 277.355H234.306V277.356Z" fill="#101010"/>
<path d="M102.263 20.4561H75.7966V107.137H102.263V20.4561Z" fill="white"/>
<path d="M102.263 107.493H75.7966C75.6054 107.493 75.45 107.333 75.45 107.137V20.4557C75.45 20.2593 75.6054 20.0996 75.7966 20.0996H102.263C102.455 20.0996 102.61 20.2593 102.61 20.4557V107.137C102.61 107.333 102.455 107.493 102.263 107.493ZM76.1433 106.779H101.915V20.8117H76.1433V106.779Z" fill="#101010"/>
<path d="M75.8168 107.137H64.0144V27.9509L75.8168 20.4561V107.137Z" fill="white"/>
<path d="M75.8167 107.493H64.0144C63.8232 107.493 63.6677 107.334 63.6677 107.137V27.951C63.6677 27.8281 63.7299 27.7131 63.8325 27.6476L75.6349 20.1528C75.7421 20.0841 75.8773 20.0825 75.9862 20.1448C76.0965 20.2071 76.1649 20.3268 76.1649 20.4561V107.137C76.1649 107.334 76.0095 107.493 75.8183 107.493H75.8167ZM64.3611 106.78H75.4701V21.0964L64.3611 28.1506V106.781V106.78Z" fill="#101010"/>
<path d="M83.543 99.719H78.9524C78.7612 99.719 78.6057 99.5594 78.6057 99.363V26.1803C78.6057 25.9839 78.7612 25.8242 78.9524 25.8242H83.543C83.7342 25.8242 83.8897 25.9839 83.8897 26.1803V99.363C83.8897 99.5594 83.7342 99.719 83.543 99.719ZM79.299 99.0053H83.1948V26.5363H79.299V99.0053Z" fill="#101010"/>
<path d="M91.3252 99.719H86.7346C86.5434 99.719 86.3879 99.5594 86.3879 99.363V26.1803C86.3879 25.9839 86.5434 25.8242 86.7346 25.8242H91.3252C91.5165 25.8242 91.6719 25.9839 91.6719 26.1803V99.363C91.6719 99.5594 91.5165 99.719 91.3252 99.719ZM87.0813 99.0053H90.9771V26.5363H87.0813V99.0053Z" fill="#101010"/>
<path d="M99.109 99.719H94.5183C94.3271 99.719 94.1716 99.5594 94.1716 99.363V26.1803C94.1716 25.9839 94.3271 25.8242 94.5183 25.8242H99.109C99.3002 25.8242 99.4557 25.9839 99.4557 26.1803V99.363C99.4557 99.5594 99.3002 99.719 99.109 99.719ZM94.865 99.0053H98.7608V26.5363H94.865V99.0053Z" fill="#101010"/>
<path d="M64.4868 0.746094H47.9429V60.9812H64.4868V0.746094Z" fill="white"/>
<path d="M64.4867 61.3369H47.9429C47.7516 61.3369 47.5962 61.1772 47.5962 60.9808V0.745707C47.5962 0.549314 47.7516 0.389648 47.9429 0.389648H64.4867C64.678 0.389648 64.8334 0.549314 64.8334 0.745707V60.9808C64.8334 61.1772 64.678 61.3369 64.4867 61.3369ZM48.2895 60.6232H64.1401V1.10177H48.2895V60.6232Z" fill="#101010"/>
<path d="M61.3153 8.28816H51.4189C51.2277 8.28816 51.0723 8.1285 51.0723 7.93211V3.80626C51.0723 3.60987 51.2277 3.4502 51.4189 3.4502H61.3153C61.5065 3.4502 61.662 3.60987 61.662 3.80626V7.93211C61.662 8.1285 61.5065 8.28816 61.3153 8.28816ZM51.7656 7.57445H60.9671V4.16072H51.7656V7.57445Z" fill="#101010"/>
<path d="M47.9554 60.9832H40.5774V5.36727L47.9554 0.748047V60.9832Z" fill="white"/>
<path d="M47.9554 61.3382H40.5774C40.3862 61.3382 40.2307 61.1785 40.2307 60.9821V5.3662C40.2307 5.24165 40.2945 5.1267 40.3971 5.06123L47.7751 0.442004C47.8824 0.374943 48.016 0.371753 48.1264 0.435621C48.2352 0.499488 48.3037 0.61764 48.3037 0.746972V60.9821C48.3037 61.1785 48.1482 61.3382 47.957 61.3382H47.9554ZM40.9256 60.6245H47.6087V1.38086L40.9256 5.56419V60.6229V60.6245Z" fill="#101010"/>
<path d="M71.6566 10.7754H45.1899V107.136H71.6566V10.7754Z" fill="white"/>
<path d="M71.6566 107.491H45.1899C44.9987 107.491 44.8433 107.332 44.8433 107.135V10.775C44.8433 10.5786 44.9987 10.4189 45.1899 10.4189H71.6566C71.8478 10.4189 72.0033 10.5786 72.0033 10.775V107.135C72.0033 107.332 71.8478 107.491 71.6566 107.491ZM45.5366 106.778H71.3084V11.1311H45.5366V106.778Z" fill="#101010"/>
<path d="M45.2101 107.138H33.4077V18.1652L45.2101 10.7773V107.138Z" fill="white"/>
<path d="M45.2101 107.493H33.4077C33.2165 107.493 33.061 107.333 33.061 107.137V18.1642C33.061 18.0396 33.1248 17.9247 33.2274 17.8592L45.0298 10.4713C45.137 10.4042 45.2707 10.401 45.3811 10.4649C45.4899 10.5288 45.5583 10.6469 45.5583 10.7763V107.137C45.5583 107.333 45.4029 107.493 45.2116 107.493H45.2101ZM33.7544 106.779H44.8635V11.4102L33.7544 18.3637V106.779Z" fill="#101010"/>
<path d="M67.551 20.1889H48.6706C48.4794 20.1889 48.324 20.0292 48.324 19.8328V15.6383C48.324 15.4419 48.4794 15.2822 48.6706 15.2822H67.551C67.7422 15.2822 67.8977 15.4419 67.8977 15.6383V19.8328C67.8977 20.0292 67.7422 20.1889 67.551 20.1889ZM49.0173 19.4751H67.2028V15.9928H49.0173V19.4751Z" fill="#101010"/>
<path d="M67.551 28.8988H48.6706C48.4794 28.8988 48.324 28.7391 48.324 28.5428V24.3483C48.324 24.1519 48.4794 23.9922 48.6706 23.9922H67.551C67.7422 23.9922 67.8977 24.1519 67.8977 24.3483V28.5428C67.8977 28.7391 67.7422 28.8988 67.551 28.8988ZM49.0173 28.1851H67.2028V24.7027H49.0173V28.1851Z" fill="#101010"/>
<path d="M67.551 37.6127H48.6706C48.4794 37.6127 48.324 37.453 48.324 37.2566V33.0621C48.324 32.8657 48.4794 32.7061 48.6706 32.7061H67.551C67.7422 32.7061 67.8977 32.8657 67.8977 33.0621V37.2566C67.8977 37.453 67.7422 37.6127 67.551 37.6127ZM49.0173 36.899H67.2028V33.4166H49.0173V36.899Z" fill="#101010"/>
<path d="M67.551 46.3236H48.6706C48.4794 46.3236 48.324 46.164 48.324 45.9676V41.7731C48.324 41.5767 48.4794 41.417 48.6706 41.417H67.551C67.7422 41.417 67.8977 41.5767 67.8977 41.7731V45.9676C67.8977 46.164 67.7422 46.3236 67.551 46.3236ZM49.0173 45.6099H67.2028V42.1275H49.0173V45.6099Z" fill="#101010"/>
<path d="M67.551 55.0316H48.6706C48.4794 55.0316 48.324 54.872 48.324 54.6756V50.4811C48.324 50.2847 48.4794 50.125 48.6706 50.125H67.551C67.7422 50.125 67.8977 50.2847 67.8977 50.4811V54.6756C67.8977 54.872 67.7422 55.0316 67.551 55.0316ZM49.0173 54.3179H67.2028V50.8355H49.0173V54.3179Z" fill="#101010"/>
<path d="M67.551 63.7455H48.6706C48.4794 63.7455 48.324 63.5858 48.324 63.3894V59.1949C48.324 58.9985 48.4794 58.8389 48.6706 58.8389H67.551C67.7422 58.8389 67.8977 58.9985 67.8977 59.1949V63.3894C67.8977 63.5858 67.7422 63.7455 67.551 63.7455ZM49.0173 63.0318H67.2028V59.5494H49.0173V63.0318Z" fill="#101010"/>
<path d="M67.551 72.4574H48.6706C48.4794 72.4574 48.324 72.2977 48.324 72.1013V67.9068C48.324 67.7104 48.4794 67.5508 48.6706 67.5508H67.551C67.7422 67.5508 67.8977 67.7104 67.8977 67.9068V72.1013C67.8977 72.2977 67.7422 72.4574 67.551 72.4574ZM49.0173 71.7437H67.2028V68.2613H49.0173V71.7437Z" fill="#101010"/>
<path d="M67.551 81.1664H48.6706C48.4794 81.1664 48.324 81.0067 48.324 80.8103V76.6158C48.324 76.4194 48.4794 76.2598 48.6706 76.2598H67.551C67.7422 76.2598 67.8977 76.4194 67.8977 76.6158V80.8103C67.8977 81.0067 67.7422 81.1664 67.551 81.1664ZM49.0173 80.4527H67.2028V76.9703H49.0173V80.4527Z" fill="#101010"/>
<path d="M67.551 89.8803H48.6706C48.4794 89.8803 48.324 89.7206 48.324 89.5242V85.3297C48.324 85.1333 48.4794 84.9736 48.6706 84.9736H67.551C67.7422 84.9736 67.8977 85.1333 67.8977 85.3297V89.5242C67.8977 89.7206 67.7422 89.8803 67.551 89.8803ZM49.0173 89.1665H67.2028V85.6842H49.0173V89.1665Z" fill="#101010"/>
<path d="M67.551 98.5922H48.6706C48.4794 98.5922 48.324 98.4325 48.324 98.2361V94.0416C48.324 93.8452 48.4794 93.6855 48.6706 93.6855H67.551C67.7422 93.6855 67.8977 93.8452 67.8977 94.0416V98.2361C67.8977 98.4325 67.7422 98.5922 67.551 98.5922ZM49.0173 97.8785H67.2028V94.3961H49.0173V97.8785Z" fill="#101010"/>
<path d="M38.9857 29.6953H12.519V107.133H38.9857V29.6953Z" fill="white"/>
<path d="M38.9857 107.489H12.519C12.3278 107.489 12.1724 107.329 12.1724 107.133V29.6949C12.1724 29.4985 12.3278 29.3389 12.519 29.3389H38.9857C39.1769 29.3389 39.3324 29.4985 39.3324 29.6949V107.133C39.3324 107.329 39.1769 107.489 38.9857 107.489ZM12.8657 106.775H38.6375V30.051H12.8657V106.775Z" fill="#101010"/>
<path d="M12.5392 107.133H0.736816V37.0832L12.5392 29.6953V107.133Z" fill="white"/>
<path d="M12.5392 107.488H0.736805C0.545592 107.488 0.390137 107.329 0.390137 107.132V37.0821C0.390137 36.9576 0.453847 36.8426 0.556449 36.7772L12.3588 29.3893C12.4661 29.3222 12.5998 29.319 12.7102 29.3829C12.819 29.4467 12.8873 29.5649 12.8873 29.6942V107.132C12.8873 107.329 12.7319 107.488 12.5407 107.488H12.5392ZM1.08347 106.774H12.1925V30.3281L1.08347 37.2817V106.774Z" fill="#101010"/>
<path d="M20.2637 44.6784H15.6731C15.4819 44.6784 15.3264 44.5187 15.3264 44.3223V35.4176C15.3264 35.2212 15.4819 35.0615 15.6731 35.0615H20.2637C20.4549 35.0615 20.6104 35.2212 20.6104 35.4176V44.3223C20.6104 44.5187 20.4549 44.6784 20.2637 44.6784ZM16.0198 43.9647H19.9155V35.7736H16.0198V43.9647Z" fill="#101010"/>
<path d="M28.0474 44.6784H23.4568C23.2656 44.6784 23.1101 44.5187 23.1101 44.3223V35.4176C23.1101 35.2212 23.2656 35.0615 23.4568 35.0615H28.0474C28.2386 35.0615 28.3941 35.2212 28.3941 35.4176V44.3223C28.3941 44.5187 28.2386 44.6784 28.0474 44.6784ZM23.8034 43.9647H27.6992V35.7736H23.8034V43.9647Z" fill="#101010"/>
<path d="M35.8312 44.6784H31.2405C31.0493 44.6784 30.8938 44.5187 30.8938 44.3223V35.4176C30.8938 35.2212 31.0493 35.0615 31.2405 35.0615H35.8312C36.0224 35.0615 36.1778 35.2212 36.1778 35.4176V44.3223C36.1778 44.5187 36.0224 44.6784 35.8312 44.6784ZM31.5871 43.9647H35.4829V35.7736H31.5871V43.9647Z" fill="#101010"/>
<path d="M20.2637 59.3542H15.6731C15.4819 59.3542 15.3264 59.1945 15.3264 58.9981V50.0934C15.3264 49.897 15.4819 49.7373 15.6731 49.7373H20.2637C20.4549 49.7373 20.6104 49.897 20.6104 50.0934V58.9981C20.6104 59.1945 20.4549 59.3542 20.2637 59.3542ZM16.0198 58.6405H19.9155V50.4494H16.0198V58.6405Z" fill="#101010"/>
<path d="M28.0474 59.3542H23.4568C23.2656 59.3542 23.1101 59.1945 23.1101 58.9981V50.0934C23.1101 49.897 23.2656 49.7373 23.4568 49.7373H28.0474C28.2386 49.7373 28.3941 49.897 28.3941 50.0934V58.9981C28.3941 59.1945 28.2386 59.3542 28.0474 59.3542ZM23.8034 58.6405H27.6992V50.4494H23.8034V58.6405Z" fill="#101010"/>
<path d="M35.8312 59.3542H31.2405C31.0493 59.3542 30.8938 59.1945 30.8938 58.9981V50.0934C30.8938 49.897 31.0493 49.7373 31.2405 49.7373H35.8312C36.0224 49.7373 36.1778 49.897 36.1778 50.0934V58.9981C36.1778 59.1945 36.0224 59.3542 35.8312 59.3542ZM31.5871 58.6405H35.4829V50.4494H31.5871V58.6405Z" fill="#101010"/>
<path d="M20.2637 74.028H15.6731C15.4819 74.028 15.3264 73.8683 15.3264 73.6719V64.7672C15.3264 64.5708 15.4819 64.4111 15.6731 64.4111H20.2637C20.4549 64.4111 20.6104 64.5708 20.6104 64.7672V73.6719C20.6104 73.8683 20.4549 74.028 20.2637 74.028ZM16.0198 73.3143H19.9155V65.1233H16.0198V73.3143Z" fill="#101010"/>
<path d="M28.0474 74.028H23.4568C23.2656 74.028 23.1101 73.8683 23.1101 73.6719V64.7672C23.1101 64.5708 23.2656 64.4111 23.4568 64.4111H28.0474C28.2386 64.4111 28.3941 64.5708 28.3941 64.7672V73.6719C28.3941 73.8683 28.2386 74.028 28.0474 74.028ZM23.8034 73.3143H27.6992V65.1233H23.8034V73.3143Z" fill="#101010"/>
<path d="M35.8312 74.028H31.2405C31.0493 74.028 30.8938 73.8683 30.8938 73.6719V64.7672C30.8938 64.5708 31.0493 64.4111 31.2405 64.4111H35.8312C36.0224 64.4111 36.1778 64.5708 36.1778 64.7672V73.6719C36.1778 73.8683 36.0224 74.028 35.8312 74.028ZM31.5871 73.3143H35.4829V65.1233H31.5871V73.3143Z" fill="#101010"/>
<path d="M20.2637 88.6989H15.6731C15.4819 88.6989 15.3264 88.5392 15.3264 88.3428V79.4381C15.3264 79.2417 15.4819 79.082 15.6731 79.082H20.2637C20.4549 79.082 20.6104 79.2417 20.6104 79.4381V88.3428C20.6104 88.5392 20.4549 88.6989 20.2637 88.6989ZM16.0198 87.9852H19.9155V79.7942H16.0198V87.9852Z" fill="#101010"/>
<path d="M28.0474 88.6989H23.4568C23.2656 88.6989 23.1101 88.5392 23.1101 88.3428V79.4381C23.1101 79.2417 23.2656 79.082 23.4568 79.082H28.0474C28.2386 79.082 28.3941 79.2417 28.3941 79.4381V88.3428C28.3941 88.5392 28.2386 88.6989 28.0474 88.6989ZM23.8034 87.9852H27.6992V79.7942H23.8034V87.9852Z" fill="#101010"/>
<path d="M35.8312 88.6989H31.2405C31.0493 88.6989 30.8938 88.5392 30.8938 88.3428V79.4381C30.8938 79.2417 31.0493 79.082 31.2405 79.082H35.8312C36.0224 79.082 36.1778 79.2417 36.1778 79.4381V88.3428C36.1778 88.5392 36.0224 88.6989 35.8312 88.6989ZM31.5871 87.9852H35.4829V79.7942H31.5871V87.9852Z" fill="#101010"/>
<path d="M159.949 107.125H155.231C153.303 107.125 151.741 111.846 151.741 117.652C151.741 123.458 153.303 128.181 155.231 128.181H159.949C161.877 128.181 163.439 123.458 163.439 117.654C163.439 111.85 161.877 107.127 159.949 107.127V107.125Z" fill="white"/>
<path d="M159.949 128.536H155.236C152.829 128.536 151.394 123.002 151.394 117.652C151.394 112.301 152.829 106.769 155.231 106.769H159.949C162.351 106.769 163.786 112.303 163.786 117.653C163.786 123.004 162.351 128.538 159.949 128.538V128.536ZM155.237 107.481C153.746 107.481 152.089 111.658 152.089 117.65C152.089 123.642 153.746 127.823 155.233 127.823H159.944C161.437 127.823 163.094 123.646 163.094 117.652C163.094 111.658 161.438 107.481 159.951 107.481H155.239H155.237Z" fill="#101010"/>
<path d="M196.614 122.807V52.248L102.171 64.7358V118.496L196.614 122.807Z" fill="white"/>
<path d="M196.614 123.163C196.614 123.163 196.603 123.163 196.598 123.163L102.156 118.852C101.971 118.844 101.825 118.686 101.825 118.496V64.735C101.825 64.5562 101.954 64.4045 102.128 64.3822L196.57 51.8945C196.668 51.8817 196.769 51.912 196.844 51.9807C196.918 52.0477 196.962 52.1451 196.962 52.2489V122.808C196.962 122.906 196.923 122.998 196.855 123.065C196.789 123.129 196.704 123.164 196.615 123.164L196.614 123.163ZM102.518 118.154L196.265 122.433V52.6529L102.518 65.048V118.154Z" fill="#101010"/>
<path d="M184.432 104.663L187.381 107.494L186.579 126.611C186.532 127.71 187.381 128.625 188.445 128.625H205.093V104.721L184.432 104.663Z" fill="white"/>
<path d="M205.093 128.982H188.444C187.837 128.982 187.271 128.733 186.85 128.281C186.425 127.826 186.206 127.227 186.232 126.595L187.027 107.642L184.194 104.923C184.09 104.822 184.056 104.667 184.109 104.532C184.162 104.396 184.289 104.307 184.432 104.307L205.093 104.364C205.284 104.364 205.439 104.524 205.439 104.72V128.624C205.439 128.821 205.284 128.98 205.093 128.98V128.982ZM185.315 105.024L187.619 107.235C187.694 107.305 187.734 107.407 187.729 107.511L186.927 126.628C186.909 127.064 187.059 127.476 187.353 127.789C187.642 128.099 188.031 128.27 188.446 128.27H204.747V105.078L185.317 105.024H185.315Z" fill="#101010"/>
<path d="M236.189 32.3584H181.122V105.29H236.189V32.3584Z" fill="white"/>
<path d="M236.187 105.645H227.385C227.194 105.645 227.038 105.485 227.038 105.288C227.038 105.092 227.194 104.932 227.385 104.932H235.84V32.7141H181.469V105.288C181.469 105.485 181.314 105.645 181.122 105.645C180.931 105.645 180.776 105.485 180.776 105.288V32.358C180.776 32.1616 180.931 32.002 181.122 32.002H236.189C236.38 32.002 236.535 32.1616 236.535 32.358V105.288C236.535 105.485 236.38 105.645 236.189 105.645H236.187Z" fill="#101010"/>
<path d="M201.38 111.572H195.93C193.702 111.572 191.897 117.023 191.897 123.729C191.897 130.436 193.702 135.89 195.93 135.89H201.38C203.606 135.89 205.413 130.437 205.413 123.731C205.413 117.025 203.608 111.572 201.38 111.572Z" fill="#101010"/>
<path d="M195.931 135.698C198.158 135.698 199.964 130.263 199.964 123.557C199.964 116.852 198.158 111.416 195.931 111.416C193.704 111.416 191.899 116.852 191.899 123.557C191.899 130.263 193.704 135.698 195.931 135.698Z" fill="white"/>
<path d="M195.931 136.053C193.475 136.053 191.552 130.564 191.552 123.555C191.552 116.545 193.475 111.056 195.931 111.056C198.387 111.056 200.31 116.545 200.31 123.555C200.31 130.564 198.387 136.053 195.931 136.053ZM195.931 111.771C194.151 111.771 192.247 116.507 192.247 123.556C192.247 130.606 194.153 135.341 195.931 135.341C197.71 135.341 199.616 130.606 199.616 123.556C199.616 116.507 197.71 111.771 195.931 111.771Z" fill="#101010"/>
<path d="M245.841 110.98H240.391C238.163 110.98 236.358 116.432 236.358 123.138C236.358 129.844 238.163 135.298 240.391 135.298H245.841C248.067 135.298 249.873 129.845 249.873 123.139C249.873 116.433 248.069 110.98 245.841 110.98Z" fill="#101010"/>
<path d="M240.358 135.299C242.602 135.299 244.421 129.819 244.421 123.06C244.421 116.301 242.602 110.821 240.358 110.821C238.114 110.821 236.294 116.301 236.294 123.06C236.294 129.819 238.114 135.299 240.358 135.299Z" fill="white"/>
<path d="M240.358 135.656C237.885 135.656 235.946 130.124 235.946 123.061C235.946 115.999 237.883 110.467 240.358 110.467C242.833 110.467 244.77 115.999 244.77 123.061C244.77 130.124 242.833 135.656 240.358 135.656ZM240.358 111.179C238.562 111.179 236.641 115.953 236.641 123.061C236.641 130.17 238.562 134.944 240.358 134.944C242.153 134.944 244.075 130.17 244.075 123.061C244.075 115.953 242.153 111.179 240.358 111.179Z" fill="#101010"/>
<path d="M184.314 54.2705L184.154 104.948L186.011 106.556C186.694 107.146 187.072 108.031 187.033 108.951L186.268 127.206C186.235 127.982 186.835 128.632 187.588 128.633C188.157 128.633 188.685 128.63 188.685 128.611C188.685 117.21 190.77 107.865 193.467 107.865C196.164 107.865 198.35 117.107 198.35 128.505C198.35 128.545 204.806 128.624 204.806 128.624V54.4861L184.314 54.2705Z" fill="white"/>
<path d="M187.941 128.988C187.835 128.988 187.718 128.988 187.586 128.988C187.129 128.988 186.702 128.799 186.386 128.459C186.066 128.116 185.901 127.666 185.921 127.19L186.686 108.935C186.72 108.132 186.385 107.345 185.788 106.829L183.93 105.221C183.852 105.152 183.806 105.053 183.807 104.946L183.967 54.2689C183.967 54.1747 184.005 54.0837 184.071 54.0166C184.137 53.9496 184.225 53.9097 184.319 53.9145L204.811 54.13C205.001 54.1316 205.155 54.2913 205.155 54.4861V128.624C205.155 128.719 205.117 128.81 205.052 128.877C204.985 128.945 204.895 128.978 204.803 128.98C204.803 128.98 203.19 128.96 201.574 128.935C200.766 128.922 199.959 128.909 199.353 128.897C199.048 128.89 198.795 128.884 198.618 128.877C198.316 128.868 198.005 128.857 198.005 128.504C198.005 116.549 195.614 108.219 193.469 108.219C191.324 108.219 189.034 116.412 189.034 128.609C189.034 128.703 188.996 128.796 188.931 128.863C188.821 128.976 188.808 128.989 187.942 128.989L187.941 128.988ZM184.501 104.78L186.235 106.281C186.994 106.939 187.423 107.942 187.38 108.964L186.615 127.218C186.602 127.498 186.7 127.763 186.887 127.964C187.072 128.162 187.32 128.272 187.586 128.272C187.947 128.272 188.183 128.272 188.337 128.269C188.376 118.14 190.172 107.504 193.466 107.504C196.76 107.504 198.656 118.085 198.695 128.164C199.609 128.192 202.384 128.232 204.457 128.26V54.8357L184.657 54.6282L184.499 104.78H184.501Z" fill="#101010"/>
<path d="M250.699 54.3516H205.159V128.63H254.556C256.03 128.63 257.225 127.394 257.225 125.87V102.054C257.225 95.4392 256.659 88.8369 255.534 82.3256L250.699 54.3516Z" fill="white"/>
<path d="M254.558 128.985H205.161C204.97 128.985 204.814 128.826 204.814 128.629V54.3512C204.814 54.1548 204.97 53.9951 205.161 53.9951H250.699C250.867 53.9951 251.012 54.1197 251.041 54.2889L255.876 82.2629C257.001 88.7774 257.573 95.4356 257.573 102.054V125.87C257.573 127.588 256.221 128.985 254.558 128.985ZM205.508 128.272H254.558C255.837 128.272 256.879 127.194 256.879 125.869V102.052C256.879 95.4755 256.311 88.8589 255.192 82.3859L250.407 54.7056H205.506V128.27L205.508 128.272Z" fill="#101010"/>
<path d="M197.515 87.6622L199.911 88.087C200.702 88.2275 201.425 87.5968 201.425 86.7665V71.3776C201.425 70.3286 200.603 69.4775 199.588 69.4775H196.258C195.411 69.4775 194.723 70.1881 194.723 71.0646V84.2405C194.723 85.933 195.903 87.378 197.515 87.6638V87.6622Z" fill="white"/>
<path d="M200.13 88.4614C200.037 88.4614 199.945 88.4535 199.852 88.4375L197.456 88.0128C195.672 87.6966 194.375 86.1095 194.375 84.2382V71.0623C194.375 69.9909 195.219 69.1191 196.256 69.1191H199.586C200.791 69.1191 201.772 70.1314 201.772 71.3769V86.7658C201.772 87.2687 201.557 87.7429 201.184 88.0655C200.886 88.3241 200.513 88.4614 200.13 88.4614ZM196.258 69.8329C195.603 69.8329 195.07 70.3837 195.07 71.0623V84.2382C195.07 85.7614 196.123 87.0532 197.575 87.3102L199.97 87.735C200.244 87.7829 200.525 87.7046 200.738 87.521C200.954 87.3342 201.079 87.058 201.079 86.7658V71.3769C201.079 70.5258 200.41 69.8329 199.588 69.8329H196.258Z" fill="#101010"/>
<path d="M181.122 105.289V32.3584L97.6025 42.7097V105.367L181.122 105.289Z" fill="white"/>
<path d="M244.518 54.2014H184.474L187.168 41.2075C187.679 38.739 189.93 36.9619 192.547 36.9619H237.799C239.843 36.9619 241.594 38.3734 241.951 40.3118L244.518 54.203V54.2014Z" fill="white"/>
<path d="M244.518 54.5587H184.474C184.37 54.5587 184.27 54.5108 184.203 54.4261C184.138 54.3431 184.112 54.2329 184.133 54.1276L186.828 41.1337C187.372 38.5103 189.777 36.6055 192.545 36.6055H237.798C240.011 36.6055 241.902 38.1367 242.292 40.2443L244.858 54.1355C244.877 54.2393 244.851 54.3479 244.785 54.4293C244.72 54.5108 244.622 54.5587 244.518 54.5587ZM184.903 53.8449H244.098L241.609 40.3769C241.281 38.6045 239.679 37.3176 237.798 37.3176H192.545C190.102 37.3176 187.983 38.9845 187.507 41.2822L184.903 53.8449Z" fill="#101010"/>
<path d="M241.952 40.3118C241.594 38.3734 239.844 36.9619 237.799 36.9619H192.547C191.316 36.9619 190.167 37.3595 189.24 38.0349L208.87 54.2014H244.518L241.952 40.3102V40.3118Z" fill="white"/>
<path d="M244.518 54.5587H208.87C208.791 54.5587 208.715 54.5315 208.652 54.4804L189.023 38.3139C188.937 38.2437 188.889 38.1367 188.892 38.0249C188.895 37.9132 188.95 37.8094 189.038 37.7439C190.061 36.9983 191.274 36.6055 192.545 36.6055H237.798C240.011 36.6055 241.902 38.1367 242.292 40.2443L244.859 54.1355C244.877 54.2393 244.851 54.3479 244.786 54.4293C244.72 54.5108 244.622 54.5587 244.518 54.5587ZM208.991 53.8449H244.098L241.61 40.3769C241.282 38.6045 239.679 37.3176 237.798 37.3176H192.545C191.577 37.3176 190.647 37.5747 189.831 38.0648L208.99 53.8433L208.991 53.8449Z" fill="#101010"/>
<path d="M211.589 68.0488H247.058C248.734 68.0488 250.167 69.2926 250.456 70.9995L253.472 88.7643C253.763 90.4791 252.487 92.0503 250.803 92.0503H210.847C209.35 92.0503 208.138 90.7969 208.138 89.2497V71.6174C208.138 69.6471 209.683 68.0504 211.587 68.0504L211.589 68.0488Z" fill="white"/>
<path d="M250.803 92.404H210.847C209.162 92.404 207.791 90.9877 207.791 89.2457V71.6135C207.791 69.45 209.495 67.6904 211.589 67.6904H247.058C248.906 67.6904 250.48 69.0556 250.798 70.9365L253.814 88.7013C253.971 89.6258 253.724 90.5678 253.138 91.2863C252.557 91.9968 251.706 92.4056 250.805 92.4056L250.803 92.404ZM211.589 68.4041C209.877 68.4041 208.486 69.8444 208.486 71.6151V89.2473C208.486 90.595 209.546 91.6919 210.847 91.6919H250.803C251.498 91.6919 252.156 91.3773 252.605 90.8281C253.06 90.2724 253.252 89.5427 253.129 88.8258L250.113 71.061C249.852 69.5234 248.566 68.4057 247.057 68.4057H211.587L211.589 68.4041Z" fill="#101010"/>
<path d="M234.985 85.0297C232.913 82.855 230.084 81.6191 227.13 81.6191H208.104V89.2465C208.104 90.7937 209.352 91.9992 210.847 91.9992H250.803C252.487 91.9992 253.763 90.452 253.471 88.7372L253.416 88.4402H242.839C239.887 88.4402 237.058 87.2044 234.984 85.0297H234.985Z" fill="white"/>
<path d="M250.803 92.3549H210.847C209.144 92.3549 207.755 90.9594 207.755 89.2461V81.6188C207.755 81.4224 207.911 81.2627 208.102 81.2627H227.129C230.148 81.2627 233.101 82.5448 235.231 84.7802C237.233 86.8798 240.005 88.0838 242.838 88.0838H253.415C253.581 88.0838 253.726 88.2051 253.757 88.3744L253.811 88.6713C253.968 89.5958 253.724 90.5283 253.144 91.2388C252.563 91.9493 251.71 92.3565 250.802 92.3565L250.803 92.3549ZM208.45 81.9748V89.2445C208.45 90.565 209.526 91.6412 210.847 91.6412H250.803C251.506 91.6412 252.165 91.3266 252.614 90.779C253.062 90.2313 253.25 89.5096 253.13 88.7991H242.841C239.823 88.7975 236.869 87.5153 234.738 85.28C232.737 83.1803 229.964 81.9764 227.132 81.9764H208.453L208.45 81.9748Z" fill="#101010"/>
<path d="M250.803 92.403H210.848C209.162 92.403 207.791 90.9868 207.791 89.2448V71.6125C207.791 69.449 209.495 67.6895 211.589 67.6895H247.058C248.907 67.6895 250.48 69.0546 250.799 70.9355L253.815 88.7003C253.972 89.6248 253.724 90.5668 253.138 91.2853C252.557 91.9959 251.707 92.4046 250.805 92.4046L250.803 92.403ZM211.589 68.4032C209.878 68.4032 208.486 69.8434 208.486 71.6141V89.2464C208.486 90.594 209.546 91.6909 210.848 91.6909H250.803C251.498 91.6909 252.156 91.3763 252.605 90.8271C253.061 90.2714 253.252 89.5418 253.129 88.8248L250.113 71.0601C249.852 69.5225 248.566 68.4048 247.057 68.4048H211.588L211.589 68.4032Z" fill="#101010"/>
<path d="M171.862 108.902H166.562C164.397 108.902 162.642 114.242 162.642 120.763C162.642 127.283 164.397 132.626 166.562 132.626H171.862C174.027 132.626 175.782 127.285 175.782 120.764C175.782 114.243 174.027 108.902 171.862 108.902Z" fill="#101010"/>
<path d="M166.562 132.434C168.728 132.434 170.483 127.148 170.483 120.627C170.483 114.106 168.728 108.819 166.562 108.819C164.397 108.819 162.642 114.106 162.642 120.627C162.642 127.148 164.397 132.434 166.562 132.434Z" fill="white"/>
<path d="M166.562 132.79C164.168 132.79 162.295 127.448 162.295 120.626C162.295 113.805 164.17 108.463 166.562 108.463C168.955 108.463 170.831 113.805 170.831 120.626C170.831 127.448 168.956 132.79 166.562 132.79ZM166.562 109.177C164.837 109.177 162.988 113.778 162.988 120.626C162.988 127.475 164.837 132.076 166.562 132.076C168.288 132.076 170.136 127.475 170.136 120.626C170.136 113.778 168.288 109.177 166.562 109.177Z" fill="#101010"/>
<path d="M113.968 107.421H109.425C107.569 107.421 106.064 111.837 106.064 117.354C106.064 122.87 107.569 127.29 109.425 127.29H113.968C115.824 127.29 117.329 122.872 117.329 117.355C117.329 111.839 115.824 107.421 113.968 107.421Z" fill="#101010"/>
<path d="M109.424 127.174C111.28 127.174 112.785 122.702 112.785 117.185C112.785 111.668 111.28 107.196 109.424 107.196C107.567 107.196 106.063 111.668 106.063 117.185C106.063 122.702 107.567 127.174 109.424 127.174Z" fill="white"/>
<path d="M109.424 127.531C107.309 127.531 105.716 123.083 105.716 117.185C105.716 111.287 107.311 106.84 109.424 106.84C111.536 106.84 113.131 111.288 113.131 117.185C113.131 122.27 111.745 127.531 109.424 127.531ZM109.424 107.554C107.998 107.554 106.409 111.51 106.409 117.186C106.409 122.863 107.998 126.819 109.424 126.819C110.849 126.819 112.438 122.863 112.438 117.186C112.438 111.51 110.849 107.554 109.424 107.554Z" fill="#101010"/>
<path d="M122.572 108.015H118.03C116.174 108.015 114.669 112.431 114.669 117.948C114.669 123.464 116.174 127.884 118.03 127.884H122.572C124.428 127.884 125.933 123.466 125.933 117.949C125.933 112.433 124.428 108.015 122.572 108.015Z" fill="#101010"/>
<path d="M118.03 127.773C119.886 127.773 121.391 123.301 121.391 117.784C121.391 112.267 119.886 107.795 118.03 107.795C116.173 107.795 114.669 112.267 114.669 117.784C114.669 123.301 116.173 127.773 118.03 127.773Z" fill="white"/>
<path d="M118.03 128.13C115.915 128.13 114.322 123.682 114.322 117.783C114.322 111.885 115.917 107.438 118.03 107.438C120.142 107.438 121.737 111.887 121.737 117.783C121.737 122.869 120.351 128.13 118.03 128.13ZM118.03 108.152C116.604 108.152 115.015 112.109 115.015 117.785C115.015 123.461 116.604 127.418 118.03 127.418C119.455 127.418 121.044 123.461 121.044 117.785C121.044 112.109 119.455 108.152 118.03 108.152Z" fill="#101010"/>
<path d="M131.551 108.015H126.833C124.906 108.015 123.343 112.736 123.343 118.542C123.343 124.347 124.906 129.07 126.833 129.07H131.551C133.479 129.07 135.041 124.347 135.041 118.543C135.041 112.739 133.479 108.016 131.551 108.016V108.015Z" fill="#101010"/>
<path d="M126.833 128.883C128.761 128.883 130.323 124.178 130.323 118.374C130.323 112.569 128.761 107.864 126.833 107.864C124.906 107.864 123.343 112.569 123.343 118.374C123.343 124.178 124.906 128.883 126.833 128.883Z" fill="white"/>
<path d="M126.835 129.239C124.433 129.239 122.998 123.714 122.998 118.373C122.998 113.032 124.433 107.508 126.835 107.508C129.237 107.508 130.672 113.032 130.672 118.373C130.672 123.714 129.237 129.239 126.835 129.239ZM126.835 108.22C125.349 108.22 123.692 112.389 123.692 118.373C123.692 124.358 125.347 128.527 126.835 128.527C128.323 128.527 129.978 124.358 129.978 118.373C129.978 112.389 128.323 108.22 126.835 108.22Z" fill="#101010"/>
<path d="M218.314 120.504H211.906C210.804 120.504 209.91 119.579 209.91 118.441V114.738H214.976C216.694 114.738 218.225 115.859 218.796 117.536L219.31 119.049C219.553 119.76 219.042 120.506 218.314 120.506V120.504Z" fill="white"/>
<path d="M218.314 120.861H211.906C210.614 120.861 209.563 119.775 209.563 118.441V114.738C209.563 114.542 209.719 114.382 209.91 114.382H214.976C216.839 114.382 218.507 115.602 219.124 117.417L219.638 118.931C219.789 119.375 219.722 119.87 219.457 120.253C219.189 120.639 218.773 120.861 218.314 120.861ZM210.258 115.094V118.441C210.258 119.381 210.998 120.148 211.906 120.148H218.314C218.546 120.148 218.755 120.036 218.891 119.841C219.028 119.643 219.062 119.397 218.982 119.167L218.468 117.653C217.947 116.124 216.543 115.096 214.976 115.096H210.258V115.094Z" fill="#101010"/>
<path d="M244.978 120.111H251.386C252.489 120.111 253.382 119.187 253.382 118.048V114.346H248.316C246.598 114.346 245.067 115.467 244.496 117.143L243.982 118.657C243.739 119.367 244.251 120.113 244.978 120.113V120.111Z" fill="white"/>
<path d="M251.386 120.467H244.978C244.518 120.467 244.101 120.245 243.836 119.858C243.571 119.475 243.503 118.98 243.654 118.536L244.168 117.023C244.785 115.207 246.454 113.987 248.316 113.987H253.382C253.574 113.987 253.729 114.147 253.729 114.343V118.046C253.729 119.381 252.678 120.467 251.386 120.467ZM248.316 114.699C246.747 114.699 245.345 115.728 244.824 117.257L244.31 118.771C244.232 119.001 244.265 119.247 244.403 119.445C244.538 119.64 244.748 119.751 244.98 119.751H251.388C252.297 119.751 253.036 118.985 253.036 118.044V114.698H248.317L248.316 114.699Z" fill="#101010"/>
<path d="M240.411 124.402H223.551C222.686 124.402 221.885 123.923 221.454 123.146L220.71 121.801C220.456 121.345 220.777 120.776 221.285 120.776H242.678C243.186 120.776 243.505 121.345 243.253 121.801L242.508 123.146C242.077 123.923 241.278 124.402 240.411 124.402Z" fill="white"/>
<path d="M240.411 124.758H223.551C222.563 124.758 221.644 124.207 221.153 123.321L220.408 121.977C220.226 121.649 220.229 121.26 220.413 120.936C220.596 120.613 220.921 120.42 221.285 120.42H242.677C243.04 120.42 243.366 120.613 243.55 120.936C243.735 121.261 243.736 121.651 243.554 121.978L242.81 123.323C242.318 124.209 241.4 124.76 240.411 124.76V124.758ZM221.285 121.132C221.123 121.132 221.041 121.245 221.013 121.293C220.985 121.343 220.929 121.474 221.013 121.624L221.757 122.968C222.126 123.632 222.813 124.044 223.551 124.044H240.411C241.151 124.044 241.838 123.632 242.205 122.968L242.95 121.624C243.032 121.474 242.976 121.343 242.948 121.293C242.92 121.245 242.839 121.132 242.676 121.132H221.283H221.285Z" fill="#101010"/>
<path d="M194.507 72.1084H195.608C196.384 72.1084 197.013 72.7551 197.013 73.5518V84.4955C197.013 85.2795 196.394 85.915 195.631 85.915H195.432C193.231 85.915 191.443 84.0788 191.443 81.8179V75.2587C191.443 73.5199 192.817 72.1084 194.51 72.1084H194.507Z" fill="#101010"/>
<path d="M258.313 86.4974C257.808 86.4974 257.399 86.0774 257.399 85.5585V72.3363C257.399 71.9387 257.713 71.6162 258.101 71.6162H259.501C260.754 71.6162 261.769 72.6589 261.769 73.9458V82.9479C261.769 84.9087 260.223 86.4974 258.312 86.4974H258.313Z" fill="#101010"/>
<path d="M253.674 100.157H209.002C208.744 100.157 208.534 100.374 208.534 100.641V103.649C208.534 104.668 209.333 105.495 210.319 105.495H211.665C212.36 105.495 212.991 105.912 213.283 106.562L214.681 109.662C215.898 112.366 218.522 114.095 221.406 114.095H242.615C245.501 114.095 248.123 112.366 249.34 109.662L250.736 106.562C251.029 105.912 251.661 105.495 252.355 105.495C253.34 105.495 254.139 104.668 254.139 103.649V100.641C254.139 100.374 253.929 100.157 253.671 100.157H253.674Z" fill="white"/>
<path d="M242.617 114.451H221.408C218.4 114.451 215.637 112.631 214.367 109.812L212.969 106.712C212.735 106.189 212.223 105.853 211.667 105.853H210.32C209.145 105.853 208.188 104.864 208.188 103.651V100.643C208.188 100.18 208.553 99.8027 209.002 99.8027H253.674C254.124 99.8027 254.489 100.18 254.489 100.643V103.651C254.489 104.866 253.533 105.853 252.356 105.853C251.8 105.853 251.288 106.19 251.053 106.713L249.657 109.814C248.387 112.632 245.625 114.454 242.617 114.454V114.451ZM209.002 100.513C208.935 100.513 208.881 100.571 208.881 100.641V103.649C208.881 104.47 209.526 105.139 210.319 105.139H211.665C212.491 105.139 213.251 105.639 213.599 106.413L214.997 109.514C216.153 112.08 218.669 113.739 221.406 113.739H242.615C245.353 113.739 247.87 112.08 249.026 109.512L250.422 106.411C250.771 105.637 251.529 105.137 252.356 105.137C253.183 105.137 253.794 104.47 253.794 103.648V100.639C253.794 100.569 253.74 100.512 253.673 100.512H209.001L209.002 100.513Z" fill="#101010"/>
<path d="M250.298 103.593H214.414C214.222 103.593 214.067 103.433 214.067 103.237C214.067 103.041 214.222 102.881 214.414 102.881H250.298C250.489 102.881 250.645 103.041 250.645 103.237C250.645 103.433 250.489 103.593 250.298 103.593Z" fill="#101010"/>
<path d="M246.965 106.685H217.659C217.468 106.685 217.313 106.525 217.313 106.329C217.313 106.132 217.468 105.973 217.659 105.973H246.965C247.156 105.973 247.311 106.132 247.311 106.329C247.311 106.525 247.156 106.685 246.965 106.685Z" fill="#101010"/>
<path d="M243.12 109.777H220.65C220.459 109.777 220.304 109.617 220.304 109.421C220.304 109.224 220.459 109.064 220.65 109.064H243.12C243.311 109.064 243.467 109.224 243.467 109.421C243.467 109.617 243.311 109.777 243.12 109.777Z" fill="#101010"/>
<path d="M97.6027 105.722C97.5109 105.722 97.4223 105.685 97.357 105.618C97.2917 105.551 97.2544 105.46 97.2544 105.366V42.7086C97.2544 42.5281 97.385 42.3765 97.5607 42.3541L181.08 32.0028C181.178 31.99 181.278 32.0219 181.352 32.0906C181.427 32.1576 181.469 32.255 181.469 32.3572V105.138C181.469 105.334 181.314 105.494 181.122 105.494L97.6027 105.722ZM97.9493 43.0247V105.008L180.774 104.781V32.7596L97.9493 43.0247Z" fill="#101010"/>
<path d="M190.913 222.036H190.352C190.077 222.036 189.854 221.808 189.854 221.525V141.964C189.854 141.681 190.077 141.453 190.352 141.453H190.913C191.188 141.453 191.411 141.681 191.411 141.964V221.525C191.411 221.808 191.188 222.036 190.913 222.036Z" fill="#101010"/>
<path d="M151.976 163.456C164.919 156.504 177.864 170.794 190.808 163.841C190.808 157.107 190.808 150.374 190.808 143.641C177.864 150.593 164.919 136.303 151.976 143.256V163.456Z" fill="white"/>
<path d="M182.805 166.153C178.931 166.153 175.078 165.061 171.301 163.99C165.002 162.205 158.489 160.358 152.139 163.77C152.032 163.827 151.903 163.824 151.799 163.758C151.694 163.695 151.631 163.578 151.631 163.453V143.254C151.631 143.121 151.702 143 151.817 142.938C158.41 139.396 165.058 141.28 171.486 143.102C177.785 144.887 184.299 146.735 190.647 143.322C190.755 143.265 190.884 143.268 190.988 143.334C191.092 143.397 191.156 143.514 191.156 143.639V163.838C191.156 163.971 191.084 164.092 190.969 164.154C188.25 165.614 185.522 166.152 182.805 166.152V166.153ZM159.98 161.14C163.854 161.14 167.707 162.232 171.484 163.303C177.721 165.071 184.168 166.899 190.461 163.623V144.218C184.034 147.4 177.564 145.566 171.301 143.79C165.064 142.023 158.617 140.195 152.324 143.471V162.875C154.874 161.613 157.432 161.14 159.98 161.14Z" fill="#101010"/>
<path d="M179.884 152.814C177.107 152.814 173.173 152.326 169.61 150.103C163.156 146.078 155.352 148.365 155.275 148.388C155.09 148.444 154.899 148.336 154.844 148.147C154.79 147.959 154.895 147.759 155.079 147.705C155.41 147.604 163.257 145.307 169.97 149.495C175.974 153.241 183.321 151.829 183.394 151.815C183.582 151.777 183.764 151.904 183.801 152.098C183.839 152.291 183.714 152.478 183.526 152.516C183.392 152.543 181.964 152.818 179.884 152.818V152.814Z" fill="#101010"/>
<path d="M173.914 159.063C173.902 159.063 173.891 159.063 173.878 159.062C170.561 158.707 169.389 157.845 168.03 156.845C167.654 156.569 167.265 156.283 166.806 155.988C161.392 152.514 155.674 155.164 155.617 155.191C155.442 155.274 155.236 155.196 155.155 155.017C155.074 154.838 155.15 154.626 155.324 154.543C155.385 154.514 161.443 151.706 167.173 155.383C167.651 155.689 168.049 155.982 168.434 156.264C169.765 157.243 170.816 158.016 173.95 158.351C174.141 158.372 174.279 158.548 174.259 158.742C174.24 158.926 174.09 159.062 173.914 159.062V159.063Z" fill="#101010"/>
<path d="M175.49 261.112H169.819C167.501 261.112 165.623 266.827 165.623 273.804C165.623 280.782 167.501 286.5 169.819 286.5H175.49C177.808 286.5 179.686 280.784 179.686 273.806C179.686 266.828 177.808 261.112 175.49 261.112Z" fill="#101010"/>
<path d="M169.819 286.293C172.136 286.293 174.015 280.636 174.015 273.658C174.015 266.68 172.136 261.023 169.819 261.023C167.502 261.023 165.623 266.68 165.623 273.658C165.623 280.636 167.502 286.293 169.819 286.293Z" fill="white"/>
<path d="M169.819 286.648C167.271 286.648 165.277 280.942 165.277 273.658C165.277 266.374 167.273 260.667 169.819 260.667C172.365 260.667 174.362 266.374 174.362 273.658C174.362 280.942 172.365 286.648 169.819 286.648ZM169.819 261.379C167.96 261.379 165.97 266.313 165.97 273.656C165.97 280.999 167.96 285.933 169.819 285.933C171.678 285.933 173.668 280.999 173.668 273.656C173.668 266.313 171.678 261.379 169.819 261.379Z" fill="#101010"/>
<path d="M158.244 262.04H152.572C150.255 262.04 148.377 267.755 148.377 274.732C148.377 281.71 150.255 287.427 152.572 287.427H158.244C160.561 287.427 162.439 281.711 162.439 274.734C162.439 267.756 160.561 262.04 158.244 262.04Z" fill="#101010"/>
<path d="M152.571 287.216C154.888 287.216 156.767 281.56 156.767 274.582C156.767 267.604 154.888 261.947 152.571 261.947C150.254 261.947 148.375 267.604 148.375 274.582C148.375 281.56 150.254 287.216 152.571 287.216Z" fill="white"/>
<path d="M152.571 287.572C150.023 287.572 148.029 281.866 148.029 274.582C148.029 267.297 150.025 261.591 152.571 261.591C155.117 261.591 157.114 267.297 157.114 274.582C157.114 281.866 155.117 287.572 152.571 287.572ZM152.571 262.303C150.712 262.303 148.722 267.237 148.722 274.58C148.722 281.923 150.712 286.857 152.571 286.857C154.43 286.857 156.419 281.923 156.419 274.58C156.419 267.237 154.429 262.303 152.571 262.303Z" fill="#101010"/>
<path d="M98.2182 255.76H93.357C91.3703 255.76 89.7612 260.625 89.7612 266.606C89.7612 272.587 91.3718 277.456 93.357 277.456H98.2182C100.205 277.456 101.814 272.589 101.814 266.608C101.814 260.626 100.203 255.76 98.2182 255.76Z" fill="white"/>
<path d="M98.2182 277.811H93.3616C90.8899 277.811 89.4146 272.114 89.4146 266.606C89.4146 261.097 90.8899 255.403 93.3585 255.403H98.2197C100.688 255.403 102.164 261.1 102.164 266.607C102.164 272.114 100.688 277.811 98.2197 277.811H98.2182ZM93.3616 256.115C91.8195 256.115 90.1079 260.423 90.1079 266.606C90.1079 272.788 91.8195 277.098 93.357 277.098H98.212C99.7541 277.098 101.467 272.79 101.467 266.607C101.467 260.425 99.7557 256.117 98.2182 256.117H93.3616V256.115Z" fill="#101010"/>
<path d="M174.096 280.249L173.956 202.82L34.8428 217.048V262.45L174.096 280.249Z" fill="white"/>
<path d="M174.096 280.604C174.082 280.604 174.068 280.604 174.052 280.601L34.7993 262.803C34.6252 262.78 34.4946 262.629 34.4946 262.448V217.046C34.4946 216.863 34.6298 216.709 34.8071 216.692L173.92 202.462C174.018 202.451 174.114 202.484 174.187 202.553C174.261 202.62 174.303 202.716 174.303 202.817L174.442 280.246C174.442 280.349 174.4 280.446 174.326 280.515C174.262 280.572 174.18 280.604 174.096 280.604ZM35.1911 262.134L173.748 279.842L173.609 203.211L35.1911 217.369V262.132V262.134Z" fill="#101010"/>
<path d="M190.542 260.409H131.905V182.748L190.542 185.579V260.409Z" fill="white"/>
<path d="M190.541 260.765C190.35 260.765 190.195 260.605 190.195 260.409V185.919L131.889 183.104C131.698 183.094 131.55 182.928 131.558 182.73C131.567 182.534 131.732 182.383 131.921 182.39L190.559 185.221C190.744 185.23 190.89 185.387 190.89 185.577V260.407C190.89 260.604 190.734 260.763 190.543 260.763L190.541 260.765Z" fill="#101010"/>
<path d="M131.904 260.409V182.748L28.9385 192.651V248.859L131.904 260.409Z" fill="white"/>
<path d="M131.904 260.605C131.892 260.605 131.88 260.605 131.867 260.604L28.9012 249.215C28.7255 249.196 28.5918 249.042 28.5918 248.86V192.652C28.5918 192.468 28.7286 192.313 28.9074 192.297L131.873 182.393C131.971 182.384 132.068 182.417 132.139 182.484C132.211 182.551 132.253 182.647 132.253 182.748V260.249C132.253 260.35 132.211 260.447 132.138 260.514C132.074 260.574 131.991 260.605 131.906 260.605H131.904ZM29.2851 248.539L131.556 259.852V183.139L29.2851 192.976V248.539Z" fill="#101010"/>
<path d="M37.5354 244.291C37.3442 244.291 37.1887 244.131 37.1887 243.935V197.406C37.1887 197.209 37.3442 197.05 37.5354 197.05C37.7266 197.05 37.8821 197.209 37.8821 197.406V243.935C37.8821 244.131 37.7266 244.291 37.5354 244.291Z" fill="#101010"/>
<path d="M47.1162 245.302C46.925 245.302 46.7695 245.142 46.7695 244.946V196.86C46.7695 196.664 46.925 196.504 47.1162 196.504C47.3074 196.504 47.4629 196.664 47.4629 196.86V244.946C47.4629 245.142 47.3074 245.302 47.1162 245.302Z" fill="#101010"/>
<path d="M56.697 246.317C56.5058 246.317 56.3503 246.158 56.3503 245.961V196.317C56.3503 196.121 56.5058 195.961 56.697 195.961C56.8882 195.961 57.0437 196.121 57.0437 196.317V245.961C57.0437 246.158 56.8882 246.317 56.697 246.317Z" fill="#101010"/>
<path d="M66.2795 247.33C66.0883 247.33 65.9329 247.17 65.9329 246.974V195.771C65.9329 195.575 66.0883 195.415 66.2795 195.415C66.4707 195.415 66.6262 195.575 66.6262 195.771V246.974C66.6262 247.17 66.4707 247.33 66.2795 247.33Z" fill="#101010"/>
<path d="M75.8603 248.348C75.6691 248.348 75.5137 248.188 75.5137 247.991V195.232C75.5137 195.036 75.6691 194.876 75.8603 194.876C76.0516 194.876 76.207 195.036 76.207 195.232V247.991C76.207 248.188 76.0516 248.348 75.8603 248.348Z" fill="#101010"/>
<path d="M85.4412 249.358C85.25 249.358 85.0945 249.198 85.0945 249.002V194.684C85.0945 194.488 85.25 194.328 85.4412 194.328C85.6324 194.328 85.7879 194.488 85.7879 194.684V249.002C85.7879 249.198 85.6324 249.358 85.4412 249.358Z" fill="#101010"/>
<path d="M95.0222 250.374C94.831 250.374 94.6755 250.214 94.6755 250.018V194.143C94.6755 193.947 94.831 193.787 95.0222 193.787C95.2134 193.787 95.3689 193.947 95.3689 194.143V250.018C95.3689 250.214 95.2134 250.374 95.0222 250.374Z" fill="#101010"/>
<path d="M104.604 251.386C104.413 251.386 104.258 251.227 104.258 251.03V193.597C104.258 193.401 104.413 193.241 104.604 193.241C104.796 193.241 104.951 193.401 104.951 193.597V251.03C104.951 251.227 104.796 251.386 104.604 251.386Z" fill="#101010"/>
<path d="M114.186 252.402C113.994 252.402 113.839 252.242 113.839 252.046V193.056C113.839 192.86 113.994 192.7 114.186 192.7C114.377 192.7 114.532 192.86 114.532 193.056V252.046C114.532 252.242 114.377 252.402 114.186 252.402Z" fill="#101010"/>
<path d="M123.766 253.415C123.575 253.415 123.42 253.255 123.42 253.058V192.51C123.42 192.314 123.575 192.154 123.766 192.154C123.958 192.154 124.113 192.314 124.113 192.51V253.058C124.113 253.255 123.958 253.415 123.766 253.415Z" fill="#101010"/>
<path d="M124.261 262.428H118.799C116.569 262.428 114.759 267.93 114.759 274.649C114.759 281.368 116.569 286.873 118.799 286.873H124.261C126.491 286.873 128.301 281.369 128.301 274.65C128.301 267.932 126.491 262.428 124.261 262.428Z" fill="#101010"/>
<path d="M118.799 286.675C121.031 286.675 122.84 281.229 122.84 274.51C122.84 267.791 121.031 262.345 118.799 262.345C116.568 262.345 114.759 267.791 114.759 274.51C114.759 281.229 116.568 286.675 118.799 286.675Z" fill="white"/>
<path d="M118.799 287.034C116.34 287.034 114.412 281.533 114.412 274.511C114.412 267.489 116.34 261.988 118.799 261.988C121.259 261.988 123.186 267.489 123.186 274.511C123.186 281.533 121.259 287.034 118.799 287.034ZM118.799 262.702C117.016 262.702 115.107 267.447 115.107 274.511C115.107 281.575 117.016 286.32 118.799 286.32C120.582 286.32 122.491 281.575 122.491 274.511C122.491 267.447 120.582 262.702 118.799 262.702Z" fill="#101010"/>
<path d="M141.269 264.507H135.598C133.28 264.507 131.402 270.221 131.402 277.199C131.402 284.176 133.28 289.894 135.598 289.894H141.269C143.587 289.894 145.465 284.178 145.465 277.201C145.465 270.223 143.587 264.507 141.269 264.507Z" fill="#101010"/>
<path d="M135.598 289.689C137.915 289.689 139.794 284.032 139.794 277.055C139.794 270.077 137.915 264.42 135.598 264.42C133.281 264.42 131.402 270.077 131.402 277.055C131.402 284.032 133.281 289.689 135.598 289.689Z" fill="white"/>
<path d="M135.598 290.045C133.05 290.045 131.056 284.338 131.056 277.054C131.056 269.77 133.052 264.063 135.598 264.063C138.145 264.063 140.141 269.77 140.141 277.054C140.141 284.338 138.145 290.045 135.598 290.045ZM135.598 264.776C133.739 264.776 131.749 269.709 131.749 277.054C131.749 284.399 133.739 289.331 135.598 289.331C137.457 289.331 139.447 284.397 139.447 277.054C139.447 269.711 137.457 264.776 135.598 264.776Z" fill="#101010"/>
<path d="M50.8395 252.667H46.1586C44.2465 252.667 42.6951 257.218 42.6951 262.902C42.6951 268.586 44.2449 273.14 46.1586 273.14H50.8395C52.7517 273.14 54.3031 268.588 54.3031 262.903C54.3031 257.219 52.7532 252.667 50.8395 252.667Z" fill="#101010"/>
<path d="M46.1586 273.023C48.0715 273.023 49.6223 268.415 49.6223 262.731C49.6223 257.046 48.0715 252.438 46.1586 252.438C44.2457 252.438 42.6951 257.046 42.6951 262.731C42.6951 268.415 44.2457 273.023 46.1586 273.023Z" fill="white"/>
<path d="M46.1586 273.378C43.7739 273.378 42.3484 267.964 42.3484 262.728C42.3484 257.492 43.7739 252.078 46.1586 252.078C48.5433 252.078 49.9689 257.492 49.9689 262.728C49.9689 267.964 48.5433 273.378 46.1586 273.378ZM46.1586 252.792C44.6849 252.792 43.0432 256.873 43.0432 262.728C43.0432 268.583 44.6849 272.664 46.1586 272.664C47.6324 272.664 49.274 268.583 49.274 262.728C49.274 256.873 47.6324 252.792 46.1586 252.792Z" fill="#101010"/>
<path d="M59.7067 254.299H55.0258C53.1137 254.299 51.5623 258.849 51.5623 264.534C51.5623 270.218 53.1121 274.772 55.0258 274.772H59.7067C61.6188 274.772 63.1703 270.219 63.1703 264.535C63.1703 258.851 61.6204 254.299 59.7067 254.299Z" fill="#101010"/>
<path d="M55.0244 274.657C56.9373 274.657 58.488 270.049 58.488 264.365C58.488 258.68 56.9373 254.072 55.0244 254.072C53.1115 254.072 51.5608 258.68 51.5608 264.365C51.5608 270.049 53.1115 274.657 55.0244 274.657Z" fill="white"/>
<path d="M55.0244 275.014C52.6397 275.014 51.2141 269.599 51.2141 264.364C51.2141 259.128 52.6397 253.714 55.0244 253.714C57.4091 253.714 58.8347 259.128 58.8347 264.364C58.8347 269.599 57.4091 275.014 55.0244 275.014ZM55.0244 254.428C53.5507 254.428 51.909 258.509 51.909 264.364C51.909 270.219 53.5507 274.3 55.0244 274.3C56.4982 274.3 58.1398 270.219 58.1398 264.364C58.1398 258.509 56.4982 254.428 55.0244 254.428Z" fill="#101010"/>
<path d="M68.9579 255.317H64.0967C62.1099 255.317 60.501 260.183 60.501 266.164C60.501 272.145 62.1115 277.013 64.0967 277.013H68.9579C70.9446 277.013 72.5536 272.147 72.5536 266.165C72.5536 260.184 70.9431 255.317 68.9579 255.317Z" fill="#101010"/>
<path d="M64.0967 276.817C66.0826 276.817 67.6924 271.969 67.6924 265.988C67.6924 260.007 66.0826 255.159 64.0967 255.159C62.1108 255.159 60.501 260.007 60.501 265.988C60.501 271.969 62.1108 276.817 64.0967 276.817Z" fill="white"/>
<path d="M64.0968 277.172C61.6281 277.172 60.1528 271.484 60.1528 265.985C60.1528 260.486 61.6281 254.799 64.0968 254.799C66.5655 254.799 68.0408 260.486 68.0408 265.985C68.0408 271.484 66.5655 277.172 64.0968 277.172ZM64.0968 255.514C62.5593 255.514 60.8478 259.816 60.8478 265.987C60.8478 272.158 62.5593 276.46 64.0968 276.46C65.6343 276.46 67.3459 272.158 67.3459 265.987C67.3459 259.816 65.6343 255.514 64.0968 255.514Z" fill="#101010"/>
<path d="M171.965 253.28L175.442 256.486L176.698 280.424H196.336V253.344L171.965 253.28Z" fill="white"/>
<path d="M196.336 280.779H176.697C176.512 280.779 176.359 280.631 176.35 280.442L175.103 256.652L171.731 253.543C171.624 253.444 171.588 253.288 171.64 253.15C171.691 253.013 171.82 252.922 171.965 252.922L196.336 252.987C196.527 252.987 196.682 253.147 196.682 253.343V280.423C196.682 280.62 196.527 280.779 196.336 280.779ZM177.026 280.066H195.988V253.698L172.873 253.636L175.674 256.217C175.742 256.281 175.784 256.369 175.789 256.463L177.026 280.064V280.066Z" fill="#101010"/>
<path d="M194.972 259.794H187.642C184.648 259.794 182.22 267.126 182.22 276.144C182.22 285.162 184.648 292.497 187.642 292.497H194.972C197.966 292.497 200.395 285.164 200.395 276.146C200.395 267.128 197.966 259.794 194.972 259.794Z" fill="#101010"/>
<path d="M187.644 292.238C190.639 292.238 193.066 284.927 193.066 275.91C193.066 266.892 190.639 259.582 187.644 259.582C184.649 259.582 182.222 266.892 182.222 275.91C182.222 284.927 184.649 292.238 187.644 292.238Z" fill="white"/>
<path d="M187.644 292.594C184.409 292.594 181.875 285.266 181.875 275.909C181.875 266.552 184.409 259.224 187.644 259.224C190.879 259.224 193.413 266.552 193.413 275.909C193.413 285.266 190.879 292.594 187.644 292.594ZM187.644 259.937C184.892 259.937 182.568 267.252 182.568 275.909C182.568 284.566 184.892 291.881 187.644 291.881C190.096 291.881 192.72 285.462 192.72 275.909C192.72 266.356 190.096 259.937 187.644 259.937Z" fill="#101010"/>
<path d="M224.76 219.01H226.095C226.835 219.01 227.435 219.626 227.435 220.386V229.401C227.435 230.013 226.952 230.508 226.358 230.508H224.576C224.111 230.508 223.735 230.121 223.735 229.644V220.062C223.735 219.481 224.194 219.01 224.76 219.01Z" fill="#101010"/>
<path d="M241.504 256.241H234.174C231.18 256.241 228.752 263.573 228.752 272.591C228.752 281.609 231.18 288.945 234.174 288.945H241.504C244.498 288.945 246.926 281.611 246.926 272.593C246.926 263.575 244.498 256.241 241.504 256.241Z" fill="#101010"/>
<path d="M234.174 288.684C237.169 288.684 239.596 281.374 239.596 272.356C239.596 263.339 237.169 256.028 234.174 256.028C231.179 256.028 228.752 263.339 228.752 272.356C228.752 281.374 231.179 288.684 234.174 288.684Z" fill="white"/>
<path d="M234.174 289.039C230.939 289.039 228.405 281.71 228.405 272.353C228.405 262.997 230.939 255.668 234.174 255.668C237.409 255.668 239.943 262.997 239.943 272.353C239.943 281.71 237.409 289.039 234.174 289.039ZM234.174 256.382C231.722 256.382 229.098 262.799 229.098 272.353C229.098 281.908 231.722 288.325 234.174 288.325C236.626 288.325 239.25 281.908 239.25 272.353C239.25 262.799 236.626 256.382 234.174 256.382Z" fill="#101010"/>
<path d="M136.52 260.377L173.953 260.954L174.096 280.243H177C176.947 277.733 176.908 275.332 176.908 273.623C176.908 263.338 181.598 255 187.383 255C191.16 255 194.47 258.557 196.312 263.888C203.611 264.257 214.792 264.074 225.61 263.718C241.961 263.181 257.477 262.253 257.477 262.253C257.684 253.294 248.98 249.596 248.98 249.596C248.98 249.596 248.136 242.288 246.9 241.019C245.664 239.75 225.95 232.566 225.95 232.566L216.914 209.055C215.973 206.736 214.658 204.592 212.993 202.742C208.917 198.213 201.075 192.65 186.884 191.961C184.709 191.855 157.616 189.626 144.08 188.996C140.248 188.817 137.248 189.208 136.52 189.27V260.377Z" fill="white"/>
<path d="M253.906 253.103L253.32 253.586C252.29 254.439 251.641 255.686 251.523 257.04L251.388 258.611C251.302 259.603 252.095 260.439 253.064 260.377L257.348 260.104C256.919 257.074 255.47 254.768 253.906 253.103Z" fill="white"/>
<path d="M252.964 260.735C252.445 260.735 251.946 260.521 251.582 260.136C251.189 259.722 250.993 259.154 251.043 258.578L251.178 257.006C251.302 255.563 252.003 254.215 253.103 253.307L253.689 252.823C253.828 252.707 254.032 252.721 254.157 252.853C256.123 254.947 257.312 257.369 257.692 260.051C257.706 260.15 257.679 260.251 257.617 260.328C257.556 260.406 257.466 260.452 257.368 260.459L253.084 260.732C253.043 260.735 253.005 260.735 252.964 260.735ZM253.872 253.585L253.536 253.863C252.583 254.65 251.975 255.819 251.868 257.07L251.733 258.641C251.702 259.01 251.828 259.374 252.078 259.639C252.33 259.904 252.68 260.043 253.04 260.021L256.942 259.774C256.546 257.492 255.514 255.415 253.872 253.588V253.585Z" fill="#101010"/>
<path d="M216.638 242.135L183.845 232.566L176.37 208.106C175.434 205.042 173.881 202.204 171.759 199.847C166.883 194.428 156.611 187.527 136.519 189.27V260.377L173.989 265.986L174.094 279.993L176.995 280.424C176.942 277.914 176.905 275.334 176.905 273.625C176.905 263.339 181.595 255.001 187.38 255.001C191.157 255.001 194.467 258.559 196.309 263.89C203.608 264.259 214.789 264.075 225.607 263.719C226.659 263.684 228.75 263.611 228.75 263.611L221.646 246.652C220.722 244.449 218.883 242.79 216.637 242.135H216.638Z" fill="white"/>
<path d="M218.411 243.266C218.352 243.266 218.291 243.25 218.236 243.218C217.705 242.902 217.136 242.653 216.543 242.48L183.75 232.911C183.638 232.878 183.549 232.79 183.513 232.675L176.039 208.215C175.105 205.158 173.536 202.349 171.504 200.09C168.781 197.064 165.329 194.623 161.246 192.833C161.07 192.756 160.988 192.546 161.062 192.365C161.137 192.185 161.342 192.1 161.518 192.177C165.692 194.007 169.224 196.505 172.014 199.606C174.116 201.942 175.736 204.845 176.701 208.001L184.12 232.276L216.733 241.792C217.38 241.981 218.003 242.252 218.585 242.599C218.751 242.698 218.807 242.916 218.711 243.086C218.647 243.199 218.53 243.263 218.411 243.263V243.266Z" fill="#101010"/>
<path d="M192.636 245.109C183.827 246.566 176.723 255.908 173.954 260.725L174.094 280.243L176.995 280.422C176.942 277.912 176.905 275.331 176.905 273.623C176.905 263.337 181.595 254.999 187.38 254.999C191.157 254.999 194.467 258.557 196.309 263.888C203.608 264.257 214.789 264.073 225.607 263.717C226.659 263.682 227.709 263.647 228.75 263.609C214.327 245.751 201.343 243.671 192.636 245.109Z" fill="white"/>
<path d="M176.997 280.777C176.997 280.777 176.983 280.777 176.977 280.777L174.076 280.598C173.894 280.587 173.751 280.432 173.749 280.245L173.609 260.727C173.609 260.663 173.625 260.6 173.658 260.544C174.48 259.111 181.999 246.507 192.583 244.757C197.935 243.873 203.352 244.558 208.684 246.791C215.645 249.709 222.487 255.291 229.021 263.379C229.105 263.485 229.125 263.628 229.07 263.753C229.016 263.878 228.898 263.959 228.766 263.964C227.727 264 226.681 264.037 225.632 264.071C225.629 264.071 225.626 264.071 225.622 264.071C212.477 264.502 202.61 264.559 196.297 264.24C196.157 264.234 196.034 264.139 195.987 264.004C194.116 258.586 190.899 255.351 187.384 255.351C181.8 255.351 177.256 263.545 177.256 273.619C177.256 275.23 177.289 277.769 177.345 280.41C177.347 280.509 177.309 280.606 177.239 280.675C177.174 280.739 177.088 280.774 176.998 280.774L176.997 280.777ZM174.441 279.905L176.642 280.041C176.591 277.536 176.561 275.158 176.561 273.622C176.561 263.156 181.416 254.641 187.383 254.641C191.154 254.641 194.574 257.963 196.561 263.542C202.863 263.847 212.631 263.787 225.599 263.36C226.412 263.333 227.224 263.306 228.03 263.277C216.682 249.453 204.796 243.461 192.693 245.461C182.606 247.128 175.324 259.07 174.306 260.821L174.443 279.905H174.441Z" fill="#101010"/>
<path d="M176.038 217.601C176.819 220.553 178.621 227.726 179.498 231.23C179.751 232.241 179.008 233.226 177.992 233.226H164.44V216.295H174.373C175.151 216.295 175.832 216.83 176.038 217.601Z" fill="white"/>
<path d="M177.992 233.582H164.44C164.249 233.582 164.094 233.422 164.094 233.226V216.295C164.094 216.098 164.249 215.938 164.44 215.938H174.373C175.305 215.938 176.128 216.584 176.372 217.508C177.138 220.403 178.87 227.293 179.834 231.142C179.982 231.731 179.859 232.344 179.495 232.827C179.131 233.307 178.584 233.583 177.99 233.583L177.992 233.582ZM164.787 232.868H177.992C178.368 232.868 178.716 232.693 178.948 232.388C179.178 232.083 179.257 231.693 179.162 231.318C178.198 227.47 176.467 220.583 175.702 217.693C175.54 217.079 174.993 216.651 174.373 216.651H164.787V232.868Z" fill="#101010"/>
<path d="M248.944 252.486C249.101 250.452 248.978 248.403 248.568 246.406C248.119 244.218 247.408 241.794 246.601 241.018C246.042 240.48 245.69 240.287 244.304 239.679H225.08C223.62 239.679 222.249 240.4 221.394 241.615C220.237 243.263 219.889 245.369 220.45 247.317L222.547 254.59C222.914 255.864 224.054 256.738 225.347 256.738H245.602C247.303 256.738 248.719 255.395 248.852 253.653L248.943 252.486H248.944Z" fill="white"/>
<path d="M245.603 257.093H225.349C223.912 257.093 222.625 256.105 222.216 254.69L220.119 247.417C219.531 245.378 219.903 243.13 221.114 241.406C222.031 240.099 223.514 239.32 225.081 239.32H244.305C244.352 239.32 244.398 239.33 244.442 239.349C245.815 239.953 246.228 240.17 246.841 240.757C247.842 241.72 248.566 244.663 248.91 246.331C249.325 248.35 249.452 250.428 249.292 252.514L249.202 253.679C249.054 255.594 247.473 257.093 245.605 257.093H245.603ZM225.081 240.034C223.737 240.034 222.465 240.703 221.678 241.824C220.593 243.371 220.259 245.386 220.786 247.216L222.883 254.489C223.205 255.603 224.218 256.381 225.35 256.381H245.605C247.114 256.381 248.391 255.171 248.51 253.625L248.6 252.459C248.756 250.444 248.632 248.433 248.232 246.481C247.685 243.821 246.988 241.878 246.368 241.281C245.864 240.797 245.578 240.628 244.237 240.037H225.084L225.081 240.034Z" fill="#101010"/>
<path d="M164.451 215.202H166.677C167.85 215.202 168.803 216.181 168.803 217.385V224.947C168.803 225.916 168.038 226.702 167.094 226.702H164.161C163.425 226.702 162.827 226.088 162.827 225.332V216.871C162.827 215.949 163.554 215.202 164.451 215.202Z" fill="#101010"/>
<path d="M164.45 227.791H166.677C167.85 227.791 168.801 228.768 168.801 229.972V232.193C168.801 233.161 168.036 233.946 167.094 233.946H164.157C163.422 233.946 162.825 233.333 162.825 232.578V229.46C162.825 228.538 163.553 227.791 164.45 227.791Z" fill="#101010"/>
<path d="M181.923 215.137L185.887 229.001C186.214 230.141 187.217 230.935 188.372 230.97L220.281 231.93C221.462 231.965 222.285 230.735 221.828 229.614L216.808 215.867C216.391 214.727 215.342 213.962 214.157 213.935L183.38 213.24C182.388 213.188 181.643 214.157 181.923 215.134V215.137Z" fill="white"/>
<path d="M220.329 232.287C220.309 232.287 220.29 232.287 220.27 232.287L188.361 231.327C187.05 231.287 185.923 230.393 185.553 229.103L181.589 215.239C181.424 214.659 181.538 214.057 181.902 213.583C182.265 213.11 182.813 212.856 183.397 212.888L214.164 213.581C215.499 213.612 216.663 214.461 217.133 215.745L222.153 229.492C222.408 230.118 222.336 230.84 221.954 231.41C221.584 231.964 220.979 232.29 220.328 232.29L220.329 232.287ZM182.256 215.036L186.22 228.9C186.505 229.895 187.374 230.583 188.381 230.613L220.29 231.573C220.726 231.586 221.134 231.373 221.382 231.003C221.629 230.634 221.675 230.166 221.508 229.753L216.483 215.992C216.115 214.983 215.199 214.316 214.15 214.292L183.372 213.597C183.007 213.58 182.67 213.733 182.447 214.022C182.225 214.311 182.155 214.68 182.256 215.034V215.036Z" fill="#101010"/>
<path d="M216.808 215.869C216.391 214.729 215.342 213.964 214.157 213.937L183.38 213.244C182.388 213.192 181.643 214.161 181.923 215.138L184.88 225.481H195.955C198.609 225.481 201.153 224.399 203.03 222.472L203.045 222.456C204.922 220.528 207.467 219.446 210.12 219.446H218.114L216.808 215.869Z" fill="white"/>
<path d="M195.955 225.838H184.88C184.726 225.838 184.591 225.734 184.547 225.582L181.591 215.239C181.426 214.659 181.539 214.057 181.903 213.583C182.267 213.11 182.811 212.856 183.398 212.888L214.165 213.581C215.501 213.612 216.665 214.461 217.134 215.745L218.44 219.322C218.481 219.432 218.465 219.553 218.4 219.65C218.335 219.746 218.229 219.804 218.114 219.804H210.12C207.541 219.804 205.116 220.835 203.291 222.708C201.32 224.733 198.72 225.839 195.955 225.839V225.838ZM185.14 225.124H195.955C198.534 225.124 200.959 224.092 202.784 222.219C204.755 220.195 207.355 219.088 210.12 219.088H217.613L216.483 215.994C216.115 214.985 215.199 214.317 214.15 214.294L183.372 213.599C183.002 213.58 182.669 213.735 182.447 214.024C182.225 214.313 182.155 214.682 182.256 215.036L185.14 225.122V225.124Z" fill="#101010"/>
<path d="M220.329 232.288C220.309 232.288 220.29 232.288 220.27 232.288L188.361 231.328C187.05 231.288 185.923 230.394 185.553 229.104L181.589 215.24C181.424 214.66 181.538 214.058 181.902 213.584C182.265 213.111 182.813 212.857 183.397 212.889L214.164 213.582C215.499 213.613 216.663 214.462 217.133 215.746L222.153 229.493C222.408 230.119 222.336 230.841 221.954 231.411C221.584 231.965 220.979 232.291 220.328 232.291L220.329 232.288ZM182.256 215.037L186.22 228.901C186.505 229.896 187.374 230.584 188.381 230.614L220.29 231.574C220.726 231.587 221.134 231.374 221.382 231.004C221.629 230.635 221.675 230.167 221.508 229.754L216.483 215.993C216.115 214.984 215.199 214.317 214.15 214.293L183.372 213.598C183.007 213.581 182.67 213.734 182.447 214.023C182.225 214.312 182.155 214.681 182.256 215.035V215.037Z" fill="#101010"/>
<path d="M221.092 259.764L215.874 256.325C213.64 254.853 211.042 254.07 208.388 254.07H207.112C205.282 254.07 203.798 255.594 203.798 257.474V257.545C203.798 259.6 205.419 261.267 207.421 261.267H220.663C221.456 261.267 221.761 260.203 221.092 259.764Z" fill="white"/>
<path d="M220.663 261.622H207.421C205.232 261.622 203.451 259.792 203.451 257.544V257.474C203.451 255.4 205.094 253.714 207.112 253.714H208.388C211.113 253.714 213.767 254.512 216.062 256.024L221.28 259.464C221.717 259.753 221.905 260.268 221.759 260.781C221.613 261.293 221.182 261.624 220.663 261.624V261.622ZM207.112 254.426C205.477 254.426 204.144 255.793 204.144 257.472V257.543C204.144 259.398 205.613 260.907 207.42 260.907H220.662C220.909 260.907 221.046 260.736 221.091 260.576C221.136 260.417 221.111 260.198 220.903 260.061L215.684 256.621C213.503 255.184 210.978 254.424 208.387 254.424H207.11L207.112 254.426Z" fill="#101010"/>
<path d="M176.998 280.6H174.094C173.903 280.6 173.749 280.442 173.748 280.246L173.643 266.294L136.469 260.73C136.298 260.704 136.172 260.554 136.172 260.377V189.27C136.172 189.085 136.31 188.93 136.491 188.914C136.581 188.906 136.705 188.893 136.864 188.877C138.017 188.759 140.719 188.481 144.097 188.637C153.857 189.092 170.926 190.399 180.095 191.1C183.697 191.374 186.298 191.574 186.901 191.603C201.198 192.297 209.121 197.911 213.248 202.497C214.916 204.35 216.258 206.509 217.234 208.915L226.215 232.283C228.803 233.236 245.65 239.478 246.853 240.771C248.821 242.885 249.244 248.194 249.314 249.36C250.642 250 258.015 253.939 257.824 262.261C257.819 262.446 257.678 262.598 257.497 262.609C257.342 262.618 241.796 263.543 225.63 264.073C225.627 264.073 225.624 264.073 225.621 264.073C212.475 264.504 202.608 264.562 196.295 264.242C196.155 264.236 196.033 264.142 195.986 264.006C194.114 258.588 190.898 255.354 187.383 255.354C181.799 255.354 177.255 263.548 177.255 273.621C177.255 275.141 177.286 277.366 177.347 280.233C177.348 280.329 177.312 280.422 177.247 280.49C177.182 280.559 177.092 280.597 176.998 280.597V280.6ZM174.439 279.887H176.644C176.588 277.19 176.56 275.084 176.56 273.624C176.56 263.158 181.415 254.643 187.381 254.643C191.153 254.643 194.573 257.966 196.56 263.545C202.862 263.85 212.629 263.789 225.597 263.363C240.469 262.874 254.817 262.053 257.132 261.918C257.112 253.548 248.929 249.962 248.845 249.926C248.72 249.874 248.636 249.751 248.63 249.613C248.627 249.551 248.339 243.404 246.35 241.266C245.505 240.359 233.616 235.767 225.831 232.902C225.736 232.867 225.661 232.794 225.626 232.698L216.589 209.187C215.647 206.865 214.35 204.777 212.736 202.985C208.696 198.497 200.929 193.001 186.867 192.319C186.254 192.289 183.782 192.101 180.042 191.815C170.876 191.114 153.813 189.809 144.063 189.354C140.735 189.199 138.069 189.474 136.931 189.591C136.909 189.592 136.887 189.595 136.865 189.597V260.07L174.038 265.635C174.208 265.66 174.334 265.809 174.335 265.984L174.438 279.888L174.439 279.887Z" fill="#101010"/>
<path d="M204.673 282.71L251.438 280.457C253.956 280.336 256.003 278.331 256.24 275.752L257.477 262.257L196.312 263.892L199.272 278.419C199.802 281.018 202.091 282.837 204.673 282.712V282.71Z" fill="white"/>
<path d="M204.418 283.072C201.764 283.072 199.481 281.183 198.932 278.49L195.97 263.963C195.949 263.859 195.973 263.752 196.039 263.669C196.102 263.586 196.199 263.537 196.301 263.534L257.466 261.899C257.566 261.895 257.661 261.937 257.729 262.012C257.797 262.087 257.83 262.188 257.821 262.288L256.583 275.783C256.333 278.522 254.127 280.682 251.452 280.811L204.687 283.064C204.597 283.069 204.507 283.071 204.416 283.071L204.418 283.072ZM196.737 264.235L199.613 278.343C200.11 280.784 202.229 282.472 204.657 282.354L251.422 280.101C253.753 279.989 255.676 278.105 255.895 275.718L257.095 262.623L196.738 264.236L196.737 264.235Z" fill="#101010"/>
<path d="M225.585 244.601C225.395 244.601 225.241 244.444 225.238 244.249C225.235 244.053 225.388 243.89 225.58 243.887L243.225 243.582H243.231C243.421 243.582 243.575 243.739 243.578 243.933C243.581 244.13 243.428 244.293 243.236 244.296L225.59 244.601H225.583H225.585Z" fill="#101010"/>
<path d="M225.585 248.565C225.395 248.565 225.241 248.408 225.238 248.213C225.235 248.017 225.389 247.854 225.58 247.851L245.003 247.546H245.008C245.198 247.546 245.351 247.702 245.355 247.897C245.358 248.094 245.204 248.256 245.013 248.26L225.59 248.565H225.585Z" fill="#101010"/>
<path d="M229.437 252.532C229.249 252.532 229.094 252.378 229.091 252.183C229.086 251.986 229.238 251.823 229.431 251.819L243.223 251.514C243.41 251.511 243.575 251.665 243.578 251.863C243.583 252.06 243.43 252.223 243.237 252.227L229.445 252.532H229.437Z" fill="#101010"/>
<path d="M154.821 254.43H143.938C143.747 254.43 143.592 254.27 143.592 254.074V241.532C143.592 241.335 143.747 241.176 143.938 241.176H154.821C155.012 241.176 155.167 241.335 155.167 241.532V254.074C155.167 254.27 155.012 254.43 154.821 254.43ZM144.285 253.716H154.472V241.888H144.285V253.716Z" fill="#101010"/>
<path d="M181.777 17.6166C181.635 17.6166 181.502 17.5272 181.45 17.3819C181.385 17.1967 181.477 16.9923 181.657 16.9237L183.392 16.2706C183.572 16.2036 183.771 16.2978 183.838 16.483C183.904 16.6682 183.812 16.8726 183.632 16.9412L181.897 17.5943C181.858 17.6086 181.817 17.6166 181.777 17.6166Z" fill="#101010"/>
<path d="M175.708 19.9008C175.566 19.9008 175.433 19.8114 175.381 19.6661C175.316 19.4809 175.408 19.2765 175.588 19.2078L177.323 18.5548C177.503 18.4877 177.702 18.5819 177.769 18.7672C177.834 18.9524 177.743 19.1567 177.562 19.2254L175.828 19.8784C175.789 19.8928 175.748 19.9008 175.708 19.9008Z" fill="#101010"/>
<path d="M178.856 16.2283C178.713 16.2283 178.579 16.1357 178.528 15.9888L177.925 14.2245C177.861 14.0392 177.956 13.8349 178.138 13.7694C178.318 13.7039 178.517 13.8013 178.581 13.9881L179.184 15.7525C179.248 15.9377 179.153 16.1421 178.971 16.2075C178.934 16.2219 178.895 16.2283 178.856 16.2283Z" fill="#101010"/>
<path d="M180.967 22.4002C180.824 22.4002 180.69 22.3076 180.639 22.1607L180.036 20.3963C179.972 20.2111 180.067 20.0067 180.249 19.9413C180.429 19.8758 180.628 19.9732 180.692 20.16L181.295 21.9244C181.359 22.1096 181.264 22.314 181.082 22.3794C181.045 22.3938 181.006 22.4002 180.967 22.4002Z" fill="#101010"/>
<path d="M129.192 18.4232C129.172 15.1867 131.744 12.5873 134.937 12.6145C138.131 12.6416 140.736 15.2873 140.756 18.5238C140.777 21.7603 138.204 24.3597 135.011 24.3326C131.817 24.3054 129.212 21.6597 129.192 18.4232Z" fill="white"/>
<path d="M135.062 24.6883C135.043 24.6883 135.026 24.6883 135.007 24.6883C131.631 24.6596 128.865 21.8494 128.845 18.4245C128.834 16.7783 129.455 15.2311 130.588 14.0703C131.743 12.8872 133.291 12.2421 134.942 12.2581C138.319 12.2868 141.084 15.097 141.104 18.5219C141.115 20.1681 140.495 21.7153 139.362 22.8761C138.219 24.0465 136.694 24.6899 135.062 24.6899V24.6883ZM129.54 18.4197C129.559 21.4566 132.015 23.9491 135.014 23.9746C136.483 23.9954 137.849 23.4174 138.871 22.3699C139.872 21.3433 140.417 19.9781 140.41 18.5251C140.391 15.4882 137.935 12.9958 134.936 12.9702C133.479 12.9463 132.1 13.5275 131.079 14.5749C130.078 15.6016 129.532 16.9667 129.54 18.4197Z" fill="#101010"/>
<path d="M39.152 138.855C39.0649 138.855 38.9763 138.822 38.9094 138.753C38.7726 138.616 38.7711 138.389 38.9048 138.249L40.1982 136.895C40.3319 136.754 40.5526 136.753 40.6895 136.89C40.8263 137.027 40.8278 137.254 40.6941 137.394L39.4007 138.748C39.3323 138.82 39.2422 138.855 39.1535 138.855H39.152Z" fill="#101010"/>
<path d="M34.6251 143.594C34.538 143.594 34.4494 143.56 34.3826 143.492C34.2458 143.354 34.2442 143.127 34.3779 142.987L35.6713 141.633C35.805 141.492 36.0258 141.491 36.1626 141.628C36.2994 141.765 36.3009 141.992 36.1672 142.133L34.8738 143.487C34.8054 143.559 34.7153 143.594 34.6267 143.594H34.6251Z" fill="#101010"/>
<path d="M35.9325 138.892C35.8439 138.892 35.7538 138.857 35.6854 138.786L34.4044 137.46C34.2691 137.319 34.2707 137.094 34.4059 136.955C34.5428 136.816 34.7619 136.818 34.8971 136.957L36.1782 138.283C36.3134 138.424 36.3118 138.649 36.1766 138.788C36.1082 138.857 36.0211 138.892 35.9325 138.892Z" fill="#101010"/>
<path d="M40.4189 143.534C40.3303 143.534 40.2402 143.499 40.1718 143.429L38.8893 142.102C38.754 141.962 38.7555 141.736 38.8908 141.598C39.0276 141.459 39.2468 141.46 39.382 141.599L40.6646 142.926C40.7998 143.066 40.7983 143.292 40.6631 143.431C40.5947 143.499 40.5075 143.534 40.4189 143.534Z" fill="#101010"/>
<path d="M15.7075 169.168C15.6966 169.168 15.6842 169.168 15.6733 169.168C13.5591 169.151 11.8273 167.39 11.8133 165.244C11.8071 164.211 12.1941 163.242 12.9061 162.512C13.6228 161.777 14.5774 161.375 15.6018 161.375C15.6127 161.375 15.6251 161.375 15.636 161.375C17.7502 161.393 19.482 163.154 19.496 165.3C19.5022 166.333 19.1136 167.302 18.4031 168.032C17.6864 168.764 16.732 169.168 15.7091 169.168H15.7075ZM15.6018 162.089C14.7639 162.089 13.9819 162.418 13.3974 163.016C12.8191 163.609 12.5035 164.399 12.5082 165.239C12.519 166.997 13.9415 168.439 15.6796 168.455C16.5268 168.474 17.3212 168.132 17.9119 167.527C18.4902 166.935 18.8058 166.144 18.8011 165.304C18.7902 163.546 17.3678 162.105 15.6298 162.089C15.6204 162.089 15.6112 162.089 15.6018 162.089Z" fill="#101010"/>
</svg>
