<svg width="298" height="285" viewBox="0 0 298 285" fill="none" xmlns="http://www.w3.org/2000/svg">
<path d="M50.4534 63.8104C51.1249 63.5867 113.112 1.02734 113.112 1.02734L137.129 12.0901H117.364L73.0554 56.369L50.4534 67.9288V63.8104Z" fill="white"/>
<path d="M50.4535 68.2847C50.3882 68.2847 50.3244 68.2677 50.2669 68.2319C50.1612 68.1667 50.0959 68.0517 50.0959 67.9274V63.809C50.0959 63.6785 50.1674 63.5604 50.2778 63.4983C51.6396 62.4668 91.7757 22.0515 112.859 0.774276C112.965 0.667082 113.126 0.637565 113.263 0.70126L137.28 11.764C137.432 11.8339 137.516 12.0017 137.479 12.1648C137.443 12.3295 137.297 12.446 137.129 12.446H117.513L73.3089 56.6208C73.2825 56.6472 73.2514 56.669 73.2187 56.6861L50.6167 68.2459C50.5654 68.2723 50.5094 68.2847 50.4535 68.2847ZM50.811 63.9488V67.3418L72.841 56.074L117.111 11.8339C117.178 11.7671 117.269 11.7298 117.364 11.7298H135.497L113.19 1.45472C95.1305 19.6808 54.3943 60.7454 50.811 63.9504V63.9488Z" fill="#101010"/>
<path d="M38.0183 50.1739V44.822L52.6889 18.0996V50.1739H38.0183Z" fill="white"/>
<path d="M52.689 50.5349H38.0184C37.821 50.5349 37.6609 50.3749 37.6609 50.1776V44.8241C37.6609 44.7636 37.6764 44.7045 37.7044 44.6517L52.375 17.9293C52.4542 17.7864 52.619 17.7149 52.7776 17.7553C52.9362 17.7957 53.0465 17.9386 53.0465 18.1018V50.1761C53.0465 50.3734 52.8864 50.5334 52.689 50.5334V50.5349ZM38.3775 49.8203H52.3314V19.4984L38.3775 44.9158V49.8203Z" fill="#101010"/>
<path d="M52.6889 72.9473H38.0183V98.6738H52.6889V72.9473Z" fill="white"/>
<path d="M52.689 99.033H38.0184C37.821 99.033 37.6609 98.873 37.6609 98.6757V72.9491C37.6609 72.7518 37.821 72.5918 38.0184 72.5918H52.689C52.8864 72.5918 53.0465 72.7518 53.0465 72.9491V98.6757C53.0465 98.873 52.8864 99.033 52.689 99.033ZM38.3775 98.3184H52.3314V73.308H38.3775V98.3184Z" fill="#101010"/>
<path d="M74.2324 132.431V91.6152H63.2991V132.431H74.2324Z" fill="white"/>
<path d="M74.2323 132.79H63.299C63.1015 132.79 62.9414 132.63 62.9414 132.433V91.6171C62.9414 91.4198 63.1015 91.2598 63.299 91.2598H74.2323C74.4298 91.2598 74.5899 91.4198 74.5899 91.6171V132.433C74.5899 132.63 74.4298 132.79 74.2323 132.79ZM63.6581 132.076H73.8748V91.9759H63.6581V132.076Z" fill="#101010"/>
<path d="M27.4084 132.554L27.4084 91.7383H16.4751V132.554H27.4084Z" fill="white"/>
<path d="M27.4086 132.912H16.4752C16.2778 132.912 16.1177 132.752 16.1177 132.554V91.7382C16.1177 91.5409 16.2778 91.3809 16.4752 91.3809H27.4086C27.606 91.3809 27.7661 91.5409 27.7661 91.7382V132.554C27.7661 132.752 27.606 132.912 27.4086 132.912ZM16.8343 132.197H27.051V92.097H16.8343V132.197Z" fill="#101010"/>
<path d="M52.6889 44.8203H9.64258V67.9245H52.6889V44.8203Z" fill="white"/>
<path d="M52.689 68.2837H9.64268C9.44525 68.2837 9.28516 68.1236 9.28516 67.9263V44.8222C9.28516 44.6249 9.44525 44.4648 9.64268 44.4648H52.689C52.8864 44.4648 53.0465 44.6249 53.0465 44.8222V67.9263C53.0465 68.1236 52.8864 68.2837 52.689 68.2837ZM10.0002 67.569H52.3299V45.181H10.0002V67.569Z" fill="#101010"/>
<path d="M28.2898 51.2852H18.1011V61.467H28.2898V51.2852Z" fill="#101010"/>
<path d="M45.7026 51.2852H35.5139V61.467H45.7026V51.2852Z" fill="#101010"/>
<path d="M61.3867 67.9219H9.64258V77.9127H61.3867V67.9219Z" fill="white"/>
<path d="M61.3853 78.2738H9.64268C9.44525 78.2738 9.28516 78.1138 9.28516 77.9165V67.9257C9.28516 67.7284 9.44525 67.5684 9.64268 67.5684H61.3853C61.5827 67.5684 61.7428 67.7284 61.7428 67.9257V77.9165C61.7428 78.1138 61.5827 78.2738 61.3853 78.2738ZM10.0002 77.5592H61.0277V68.283H10.0002V77.5592Z" fill="#101010"/>
<path d="M74.2308 84.2871H16.4751V98.9478H74.2308V84.2871Z" fill="white"/>
<path d="M74.2324 99.3074H16.4767C16.2793 99.3074 16.1191 99.1474 16.1191 98.9501V84.2909C16.1191 84.0936 16.2793 83.9336 16.4767 83.9336H74.2324C74.4298 83.9336 74.5899 84.0936 74.5899 84.2909V98.9501C74.5899 99.1474 74.4298 99.3074 74.2324 99.3074ZM16.8342 98.5928H73.8749V84.6482H16.8342V98.5928Z" fill="#101010"/>
<path d="M52.6889 18.4584C52.5334 18.4584 52.3888 18.3559 52.3453 18.1974C52.2909 18.0079 52.4028 17.8091 52.5925 17.7562L113.016 0.67977C113.206 0.625396 113.404 0.73725 113.457 0.926782C113.51 1.11631 113.4 1.31517 113.21 1.36799L52.7868 18.4445C52.7541 18.4538 52.7215 18.4584 52.6889 18.4584Z" fill="#101010"/>
<path d="M140.073 15.2168H134.182V24.3034H140.073V15.2168Z" fill="#101010"/>
<path d="M137.288 32.4531C135.475 32.4531 134 30.9788 134 29.1674C134 28.9701 134.16 28.81 134.357 28.81C134.555 28.81 134.715 28.9701 134.715 29.1674C134.715 30.5842 135.868 31.7385 137.288 31.7385C138.707 31.7385 139.861 30.5857 139.861 29.1674C139.861 27.749 138.707 26.5963 137.288 26.5963C137.09 26.5963 136.93 26.4362 136.93 26.2389V12.0878C136.93 11.8905 137.09 11.7305 137.288 11.7305C137.485 11.7305 137.645 11.8905 137.645 12.0878V25.9003C139.29 26.0789 140.576 27.4756 140.576 29.1674C140.576 30.9788 139.1 32.4531 137.288 32.4531Z" fill="#101010"/>
<path d="M193.285 103.805H151.901V50.1758L193.285 51.226V103.805Z" fill="white"/>
<path d="M193.285 104.165H151.901C151.703 104.165 151.543 104.005 151.543 103.807V50.1778C151.543 50.0815 151.582 49.9883 151.65 49.9215C151.72 49.8547 151.812 49.8174 151.91 49.8205L193.294 50.8707C193.489 50.8753 193.643 51.0338 193.643 51.228V103.807C193.643 104.005 193.482 104.165 193.285 104.165ZM152.258 103.45H192.926V51.5775L152.258 50.546V103.45Z" fill="#101010"/>
<path d="M158.15 97.7788C157.953 97.7788 157.792 97.6188 157.792 97.4215V55.6718C157.792 55.4745 157.953 55.3145 158.15 55.3145C158.347 55.3145 158.508 55.4745 158.508 55.6718V97.4215C158.508 97.6188 158.347 97.7788 158.15 97.7788Z" fill="#101010"/>
<path d="M165.439 97.779C165.242 97.779 165.082 97.6189 165.082 97.4216V76.5468C165.082 76.3495 165.242 76.1895 165.439 76.1895C165.637 76.1895 165.797 76.3495 165.797 76.5468V97.4216C165.797 97.6189 165.637 97.779 165.439 97.779Z" fill="#101010"/>
<path d="M172.777 97.7773C172.58 97.7773 172.419 97.6173 172.419 97.42V84.6561C172.419 84.4588 172.58 84.2988 172.777 84.2988C172.974 84.2988 173.135 84.4588 173.135 84.6561V97.42C173.135 97.6173 172.974 97.7773 172.777 97.7773Z" fill="#101010"/>
<path d="M165.439 67.1368C165.242 67.1368 165.082 66.9768 165.082 66.7795V60.6073C165.082 60.41 165.242 60.25 165.439 60.25C165.637 60.25 165.797 60.41 165.797 60.6073V66.7795C165.797 66.9768 165.637 67.1368 165.439 67.1368Z" fill="#101010"/>
<path d="M151.901 103.803V50.1738L93.2915 58.1155V105.644L151.901 103.803Z" fill="white"/>
<path d="M93.2914 106.004C93.1981 106.004 93.1095 105.968 93.0427 105.903C92.9727 105.836 92.9338 105.743 92.9338 105.647V58.1195C92.9338 57.9408 93.066 57.7886 93.2432 57.7653L151.852 49.8236C151.955 49.8096 152.058 49.8407 152.137 49.909C152.215 49.9774 152.26 50.0753 152.26 50.1778V103.807C152.26 104 152.106 104.159 151.913 104.165L93.3038 106.006C93.3038 106.006 93.2961 106.006 93.293 106.006L93.2914 106.004ZM93.649 58.4317V105.279L151.541 103.461V50.5879L93.649 58.4317Z" fill="#101010"/>
<path d="M145.831 97.7808C145.634 97.7808 145.474 97.6208 145.474 97.4235V56.1522C145.474 55.9549 145.634 55.7949 145.831 55.7949C146.029 55.7949 146.189 55.9549 146.189 56.1522V97.4235C146.189 97.6208 146.029 97.7808 145.831 97.7808Z" fill="#101010"/>
<path d="M139.133 97.7812C138.936 97.7812 138.775 97.6212 138.775 97.4239V57.0429C138.775 56.8456 138.936 56.6855 139.133 56.6855C139.33 56.6855 139.49 56.8456 139.49 57.0429V97.4239C139.49 97.6212 139.33 97.7812 139.133 97.7812Z" fill="#101010"/>
<path d="M132.436 98.2944C132.238 98.2944 132.078 98.1343 132.078 97.937V57.9335C132.078 57.7362 132.238 57.5762 132.436 57.5762C132.633 57.5762 132.793 57.7362 132.793 57.9335V97.937C132.793 98.1343 132.633 98.2944 132.436 98.2944Z" fill="#101010"/>
<path d="M125.739 98.2952C125.541 98.2952 125.381 98.1352 125.381 97.9379V58.8261C125.381 58.6288 125.541 58.4688 125.739 58.4688C125.936 58.4688 126.096 58.6288 126.096 58.8261V97.9379C126.096 98.1352 125.936 98.2952 125.739 98.2952Z" fill="#101010"/>
<path d="M119.041 80.604C118.844 80.604 118.684 80.444 118.684 80.2467V59.7167C118.684 59.5194 118.844 59.3594 119.041 59.3594C119.239 59.3594 119.399 59.5194 119.399 59.7167V80.2467C119.399 80.444 119.239 80.604 119.041 80.604Z" fill="#101010"/>
<path d="M119.041 98.2953C118.844 98.2953 118.684 98.1352 118.684 97.9379V90.2479C118.684 90.0506 118.844 89.8906 119.041 89.8906C119.239 89.8906 119.399 90.0506 119.399 90.2479V97.9379C119.399 98.1352 119.239 98.2953 119.041 98.2953Z" fill="#101010"/>
<path d="M112.344 73.309C112.147 73.309 111.987 73.149 111.987 72.9517V60.6073C111.987 60.41 112.147 60.25 112.344 60.25C112.542 60.25 112.702 60.41 112.702 60.6073V72.9517C112.702 73.149 112.542 73.309 112.344 73.309Z" fill="#101010"/>
<path d="M105.647 73.1747C105.45 73.1747 105.29 73.0147 105.29 72.8174V61.4999C105.29 61.3026 105.45 61.1426 105.647 61.1426C105.845 61.1426 106.005 61.3026 106.005 61.4999V72.8174C106.005 73.0147 105.845 73.1747 105.647 73.1747Z" fill="#101010"/>
<path d="M105.647 99.3153C105.45 99.3153 105.29 99.1553 105.29 98.958V87.6405C105.29 87.4432 105.45 87.2832 105.647 87.2832C105.845 87.2832 106.005 87.4432 106.005 87.6405V98.958C106.005 99.1553 105.845 99.3153 105.647 99.3153Z" fill="#101010"/>
<path d="M98.9501 99.3134C98.7527 99.3134 98.5925 99.1534 98.5925 98.9561V62.3905C98.5925 62.1932 98.7527 62.0332 98.9501 62.0332C99.1475 62.0332 99.3076 62.1932 99.3076 62.3905V98.9561C99.3076 99.1534 99.1475 99.3134 98.9501 99.3134Z" fill="#101010"/>
<path d="M151.9 50.535C151.785 50.535 151.673 50.4806 151.605 50.3797L139.922 33.3079C139.81 33.1447 139.852 32.9226 140.016 32.8107C140.179 32.6989 140.401 32.7408 140.513 32.9039L152.196 49.9757C152.308 50.1389 152.266 50.361 152.102 50.4729C152.04 50.5148 151.97 50.535 151.9 50.535Z" fill="#101010"/>
<path d="M120.411 51.6394C120.327 51.6394 120.241 51.6099 120.173 51.5493C120.025 51.4188 120.011 51.192 120.144 51.0444L133.916 35.5324C134.046 35.3848 134.273 35.3708 134.421 35.5028C134.568 35.6333 134.582 35.8602 134.45 36.0077L120.678 51.5198C120.607 51.599 120.509 51.6394 120.411 51.6394Z" fill="#101010"/>
<path d="M93.2929 58.4743C93.1778 58.4743 93.0644 58.4184 92.9944 58.3158C92.884 58.1511 92.9291 57.929 93.0923 57.8202L136.928 28.5237C137.026 28.4584 137.151 28.4444 137.259 28.4879L193.416 50.7905C193.599 50.8635 193.689 51.0717 193.616 51.255C193.543 51.4383 193.335 51.5284 193.151 51.4554L137.169 29.2228L93.4903 58.4137C93.4297 58.4541 93.3597 58.4743 93.2913 58.4743H93.2929Z" fill="#101010"/>
<path d="M215.289 167.343H173.671V113.715L215.289 114.763V167.343Z" fill="white"/>
<path d="M215.289 167.702H173.673C173.475 167.702 173.315 167.542 173.315 167.345V113.715C173.315 113.619 173.354 113.525 173.422 113.459C173.492 113.392 173.582 113.354 173.682 113.358L215.298 114.406C215.492 114.411 215.646 114.569 215.646 114.764V167.343C215.646 167.54 215.486 167.7 215.289 167.7V167.702ZM174.03 166.987H214.931V115.115L174.03 114.083V166.987Z" fill="#101010"/>
<path d="M173.671 167.341V113.713L115.295 118.266V164.403L173.671 167.341Z" fill="white"/>
<path d="M173.671 167.701C173.671 167.701 173.659 167.701 173.654 167.701L115.278 164.763C115.087 164.754 114.938 164.597 114.938 164.406V118.269C114.938 118.083 115.082 117.927 115.267 117.912L173.643 113.359C173.746 113.351 173.84 113.385 173.914 113.453C173.987 113.522 174.029 113.616 174.029 113.716V167.345C174.029 167.443 173.988 167.537 173.918 167.605C173.851 167.669 173.763 167.703 173.671 167.703V167.701ZM115.653 164.066L173.313 166.968V114.101L115.653 118.599V164.064V164.066Z" fill="#101010"/>
<path d="M168.104 130.347C167.906 130.347 167.746 130.187 167.746 129.989V119.287C167.746 119.09 167.906 118.93 168.104 118.93C168.301 118.93 168.461 119.09 168.461 119.287V129.989C168.461 130.187 168.301 130.347 168.104 130.347Z" fill="#101010"/>
<path d="M161.287 130.344C161.09 130.344 160.93 130.184 160.93 129.986V120.131C160.93 119.933 161.09 119.773 161.287 119.773C161.485 119.773 161.645 119.933 161.645 120.131V129.986C161.645 130.184 161.485 130.344 161.287 130.344Z" fill="#101010"/>
<path d="M154.75 128.815C154.553 128.815 154.393 128.655 154.393 128.458V120.131C154.393 119.933 154.553 119.773 154.75 119.773C154.948 119.773 155.108 119.933 155.108 120.131V128.458C155.108 128.655 154.948 128.815 154.75 128.815Z" fill="#101010"/>
<path d="M147.932 127.436C147.734 127.436 147.574 127.276 147.574 127.079V120.416C147.574 120.219 147.734 120.059 147.932 120.059C148.129 120.059 148.289 120.219 148.289 120.416V127.079C148.289 127.276 148.129 127.436 147.932 127.436Z" fill="#101010"/>
<path d="M135.001 127.439C134.803 127.439 134.643 127.279 134.643 127.082V121.266C134.643 121.068 134.803 120.908 135.001 120.908C135.198 120.908 135.358 121.068 135.358 121.266V127.082C135.358 127.279 135.198 127.439 135.001 127.439Z" fill="#101010"/>
<path d="M128.206 125.421C128.008 125.421 127.848 125.261 127.848 125.064V121.266C127.848 121.068 128.008 120.908 128.206 120.908C128.403 120.908 128.563 121.068 128.563 121.266V125.064C128.563 125.261 128.403 125.421 128.206 125.421Z" fill="#101010"/>
<path d="M295.967 112.673H248.219V50.7969L295.967 52.0086V112.673Z" fill="white"/>
<path d="M295.967 113.032H248.219C248.022 113.032 247.862 112.872 247.862 112.675V50.7989C247.862 50.7026 247.901 50.6094 247.969 50.5426C248.039 50.4758 248.132 50.4385 248.229 50.4416L295.976 51.6518C296.17 51.6564 296.324 51.8149 296.324 52.0091V112.673C296.324 112.87 296.164 113.03 295.967 113.03V113.032ZM248.577 112.317H295.609V52.3586L248.577 51.1655V112.316V112.317Z" fill="#101010"/>
<path d="M248.219 112.671V50.7949L180.598 59.9577V113.841L248.219 112.671Z" fill="white"/>
<path d="M180.598 114.202C180.505 114.202 180.415 114.165 180.348 114.099C180.28 114.032 180.241 113.941 180.241 113.845V59.9617C180.241 59.783 180.373 59.6307 180.55 59.6074L248.171 50.4447C248.274 50.4307 248.376 50.4618 248.456 50.5301C248.533 50.5985 248.578 50.6964 248.578 50.7989V112.675C248.578 112.87 248.421 113.029 248.227 113.032L180.606 114.203C180.606 114.203 180.601 114.203 180.6 114.203L180.598 114.202ZM180.956 60.2739V113.481L247.86 112.322V51.2075L180.956 60.2739Z" fill="#101010"/>
<path d="M255.778 103.347C255.58 103.347 255.42 103.187 255.42 102.99V57.6952C255.42 57.4979 255.58 57.3379 255.778 57.3379C255.975 57.3379 256.135 57.4979 256.135 57.6952V102.99C256.135 103.187 255.975 103.347 255.778 103.347Z" fill="#101010"/>
<path d="M263.788 103.347C263.591 103.347 263.431 103.187 263.431 102.99V57.6952C263.431 57.4979 263.591 57.3379 263.788 57.3379C263.986 57.3379 264.146 57.4979 264.146 57.6952V102.99C264.146 103.187 263.986 103.347 263.788 103.347Z" fill="#101010"/>
<path d="M271.801 88.6971C271.603 88.6971 271.443 88.5371 271.443 88.3398V58.2929C271.443 58.0956 271.603 57.9355 271.801 57.9355C271.998 57.9355 272.158 58.0956 272.158 58.2929V88.3398C272.158 88.5371 271.998 88.6971 271.801 88.6971Z" fill="#101010"/>
<path d="M279.811 103.945C279.614 103.945 279.454 103.785 279.454 103.588V58.2929C279.454 58.0956 279.614 57.9355 279.811 57.9355C280.009 57.9355 280.169 58.0956 280.169 58.2929V103.588C280.169 103.785 280.009 103.945 279.811 103.945Z" fill="#101010"/>
<path d="M287.822 103.945C287.625 103.945 287.464 103.785 287.464 103.588V58.2929C287.464 58.0956 287.625 57.9355 287.822 57.9355C288.019 57.9355 288.179 58.0956 288.179 58.2929V103.588C288.179 103.785 288.019 103.945 287.822 103.945Z" fill="#101010"/>
<path d="M241.216 104.546C241.018 104.546 240.858 104.386 240.858 104.189V57.6932C240.858 57.4959 241.018 57.3359 241.216 57.3359C241.413 57.3359 241.574 57.4959 241.574 57.6932V104.189C241.574 104.386 241.413 104.546 241.216 104.546Z" fill="#101010"/>
<path d="M233.488 105.557C233.291 105.557 233.131 105.397 233.131 105.2V58.7245C233.131 58.5272 233.291 58.3672 233.488 58.3672C233.686 58.3672 233.846 58.5272 233.846 58.7245V105.2C233.846 105.397 233.686 105.557 233.488 105.557Z" fill="#101010"/>
<path d="M225.762 106.187C225.564 106.187 225.404 106.027 225.404 105.829V59.7499C225.404 59.5526 225.564 59.3926 225.762 59.3926C225.959 59.3926 226.119 59.5526 226.119 59.7499V105.829C226.119 106.027 225.959 106.187 225.762 106.187Z" fill="#101010"/>
<path d="M218.034 95.4312C217.837 95.4312 217.677 95.2712 217.677 95.0739V60.7811C217.677 60.5838 217.837 60.4238 218.034 60.4238C218.232 60.4238 218.392 60.5838 218.392 60.7811V95.0739C218.392 95.2712 218.232 95.4312 218.034 95.4312Z" fill="#101010"/>
<path d="M210.308 107.457C210.11 107.457 209.95 107.297 209.95 107.099V61.8046C209.95 61.6073 210.11 61.4473 210.308 61.4473C210.505 61.4473 210.665 61.6073 210.665 61.8046V107.099C210.665 107.297 210.505 107.457 210.308 107.457Z" fill="#101010"/>
<path d="M202.58 107.462C202.383 107.462 202.222 107.302 202.222 107.105V95.0761C202.222 94.8788 202.383 94.7188 202.58 94.7188C202.777 94.7188 202.937 94.8788 202.937 95.0761V107.105C202.937 107.302 202.777 107.462 202.58 107.462Z" fill="#101010"/>
<path d="M202.58 83.1592C202.383 83.1592 202.222 82.9992 202.222 82.8019V62.8358C202.222 62.6385 202.383 62.4785 202.58 62.4785C202.777 62.4785 202.937 62.6385 202.937 62.8358V82.8019C202.937 82.9992 202.777 83.1592 202.58 83.1592Z" fill="#101010"/>
<path d="M194.852 108.018C194.655 108.018 194.495 107.858 194.495 107.661V100.297C194.495 100.099 194.655 99.9395 194.852 99.9395C195.05 99.9395 195.21 100.099 195.21 100.297V107.661C195.21 107.858 195.05 108.018 194.852 108.018Z" fill="#101010"/>
<path d="M194.852 93.2631C194.655 93.2631 194.495 93.1031 194.495 92.9058V63.8671C194.495 63.6698 194.655 63.5098 194.852 63.5098C195.05 63.5098 195.21 63.6698 195.21 63.8671V92.9058C195.21 93.1031 195.05 93.2631 194.852 93.2631Z" fill="#101010"/>
<path d="M187.126 109.021C186.928 109.021 186.768 108.861 186.768 108.663V64.8925C186.768 64.6952 186.928 64.5352 187.126 64.5352C187.323 64.5352 187.483 64.6952 187.483 64.8925V108.663C187.483 108.861 187.323 109.021 187.126 109.021Z" fill="#101010"/>
<path d="M295.966 171.378H247.95V109.502L295.966 110.712V171.378Z" fill="white"/>
<path d="M295.966 171.737H247.95C247.753 171.737 247.593 171.577 247.593 171.38V109.504C247.593 109.408 247.631 109.315 247.7 109.248C247.77 109.181 247.858 109.142 247.959 109.147L295.976 110.357C296.17 110.362 296.324 110.52 296.324 110.714V171.378C296.324 171.576 296.164 171.736 295.966 171.736V171.737ZM248.309 171.023H295.609V111.064L248.309 109.871V171.021V171.023Z" fill="#101010"/>
<path d="M255.778 142.93C255.58 142.93 255.42 142.77 255.42 142.573V117.412C255.42 117.215 255.58 117.055 255.778 117.055C255.975 117.055 256.135 117.215 256.135 117.412V142.573C256.135 142.77 255.975 142.93 255.778 142.93Z" fill="#101010"/>
<path d="M263.788 143.99C263.591 143.99 263.431 143.83 263.431 143.633V117.414C263.431 117.217 263.591 117.057 263.788 117.057C263.986 117.057 264.146 117.217 264.146 117.414V143.633C264.146 143.83 263.986 143.99 263.788 143.99Z" fill="#101010"/>
<path d="M271.8 163.064C271.603 163.064 271.443 162.904 271.443 162.707V118.012C271.443 117.814 271.603 117.654 271.8 117.654C271.998 117.654 272.158 117.814 272.158 118.012V162.707C272.158 162.904 271.998 163.064 271.8 163.064Z" fill="#101010"/>
<path d="M279.811 163.664C279.614 163.664 279.454 163.504 279.454 163.307V118.012C279.454 117.814 279.614 117.654 279.811 117.654C280.009 117.654 280.169 117.814 280.169 118.012V163.307C280.169 163.504 280.009 163.664 279.811 163.664Z" fill="#101010"/>
<path d="M287.822 163.664C287.625 163.664 287.464 163.504 287.464 163.307V131.635C287.464 131.437 287.625 131.277 287.822 131.277C288.019 131.277 288.179 131.437 288.179 131.635V163.307C288.179 163.504 288.019 163.664 287.822 163.664Z" fill="#101010"/>
<path d="M247.95 171.378V109.502L180.598 114.756V167.988L247.95 171.378Z" fill="white"/>
<path d="M247.95 171.738C247.95 171.738 247.938 171.738 247.932 171.738L180.579 168.348C180.39 168.339 180.239 168.182 180.239 167.991V114.759C180.239 114.573 180.382 114.417 180.569 114.402L247.921 109.148C248.023 109.14 248.118 109.174 248.191 109.242C248.264 109.311 248.306 109.405 248.306 109.505V171.381C248.306 171.479 248.266 171.572 248.194 171.64C248.127 171.704 248.039 171.738 247.947 171.738H247.95ZM180.956 167.651L247.593 171.003V109.89L180.956 115.088V167.649V167.651Z" fill="#101010"/>
<path d="M241.216 142.412C241.018 142.412 240.858 142.252 240.858 142.055V114.879C240.858 114.682 241.018 114.521 241.216 114.521C241.413 114.521 241.574 114.682 241.574 114.879V142.055C241.574 142.252 241.413 142.412 241.216 142.412Z" fill="#101010"/>
<path d="M233.488 128.828C233.291 128.828 233.131 128.668 233.131 128.47V115.91C233.131 115.713 233.291 115.553 233.488 115.553C233.686 115.553 233.846 115.713 233.846 115.91V128.47C233.846 128.668 233.686 128.828 233.488 128.828Z" fill="#101010"/>
<path d="M225.762 140.332C225.564 140.332 225.404 140.172 225.404 139.974V116.935C225.404 116.738 225.564 116.578 225.762 116.578C225.959 116.578 226.119 116.738 226.119 116.935V139.974C226.119 140.172 225.959 140.332 225.762 140.332Z" fill="#101010"/>
<path d="M218.034 139.501C217.837 139.501 217.677 139.341 217.677 139.144V117.605C217.677 117.408 217.837 117.248 218.034 117.248C218.232 117.248 218.392 117.408 218.392 117.605V139.144C218.392 139.341 218.232 139.501 218.034 139.501Z" fill="#101010"/>
<path d="M210.308 138.484C210.11 138.484 209.95 138.324 209.95 138.127V118.277C209.95 118.08 210.11 117.92 210.308 117.92C210.505 117.92 210.665 118.08 210.665 118.277V138.127C210.665 138.324 210.505 138.484 210.308 138.484Z" fill="#101010"/>
<path d="M202.58 136.552C202.383 136.552 202.222 136.392 202.222 136.195V127.088C202.222 126.89 202.383 126.73 202.58 126.73C202.777 126.73 202.937 126.89 202.937 127.088V136.195C202.937 136.392 202.777 136.552 202.58 136.552Z" fill="#101010"/>
<path d="M194.852 135.623C194.655 135.623 194.495 135.463 194.495 135.266V119.26C194.495 119.062 194.655 118.902 194.852 118.902C195.05 118.902 195.21 119.062 195.21 119.26V135.266C195.21 135.463 195.05 135.623 194.852 135.623Z" fill="#101010"/>
<path d="M187.126 134.238C186.928 134.238 186.768 134.078 186.768 133.881V119.574C186.768 119.377 186.928 119.217 187.126 119.217C187.323 119.217 187.483 119.377 187.483 119.574V133.881C187.483 134.078 187.323 134.238 187.126 134.238Z" fill="#101010"/>
<path d="M21.5882 267.278H30.4571V113.24L3.61105 120.264C0.542312 139.82 -1.60923 167.484 2.98144 200.005C6.9083 227.817 14.5553 250.604 21.5882 267.28V267.278Z" fill="white"/>
<path d="M30.4571 267.636H21.5882C21.3907 267.636 21.2306 267.476 21.2306 267.279C21.2306 267.081 21.3907 266.921 21.5882 266.921H30.0995V113.704L3.70119 120.609C3.50997 120.659 3.31413 120.546 3.26438 120.354C3.21463 120.163 3.3281 119.968 3.51931 119.918L30.3653 112.894C30.4726 112.866 30.5876 112.89 30.6747 112.957C30.7633 113.025 30.8146 113.129 30.8146 113.239V267.277C30.8146 267.474 30.6545 267.634 30.4571 267.634V267.636Z" fill="#101010"/>
<path d="M260.659 267.276H30.457V113.238L260.659 148.928V267.276Z" fill="white"/>
<path d="M42.853 148.279V267.279H107.89V156.782L42.853 148.279Z" fill="#101010"/>
<path d="M107.89 147.721V135.675L42.853 125.193V138.26L107.89 147.721Z" fill="#101010"/>
<path d="M198.524 168.633V267.279H248.18V175.123L198.524 168.633Z" fill="#101010"/>
<path d="M248.18 168.131V158.389L198.524 150.35V160.907L248.18 168.131Z" fill="#101010"/>
<path d="M124.716 158.98V267.277H182.726V166.565L124.716 158.98Z" fill="#101010"/>
<path d="M182.726 158.61V147.793L124.716 138.4V150.17L182.726 158.61Z" fill="#101010"/>
<path d="M55.4001 267.636H30.4569C30.2595 267.636 30.0994 267.476 30.0994 267.279V113.241C30.0994 113.137 30.1445 113.038 30.2237 112.969C30.303 112.901 30.4072 112.871 30.5113 112.887L260.713 148.576C260.887 148.603 261.016 148.753 261.016 148.93V180.766C261.016 180.963 260.856 181.123 260.659 181.123C260.461 181.123 260.301 180.963 260.301 180.766V149.237L30.8145 113.657V266.92H55.4001C55.5976 266.92 55.7577 267.08 55.7577 267.277C55.7577 267.475 55.5976 267.635 55.4001 267.635V267.636Z" fill="#101010"/>
<path d="M202.483 252.457H198.115C196.33 252.457 194.883 256.711 194.883 261.94C194.883 267.169 196.33 271.424 198.115 271.424H202.483C204.268 271.424 205.715 267.169 205.715 261.941C205.715 256.714 204.268 252.459 202.483 252.459V252.457Z" fill="#101010"/>
<path d="M236.431 266.585V203.025L148.99 214.273V262.703L236.431 266.585Z" fill="white"/>
<path d="M236.429 266.946C236.429 266.946 236.418 266.946 236.414 266.946L148.975 263.062C148.784 263.054 148.633 262.896 148.633 262.705V214.276C148.633 214.096 148.767 213.944 148.945 213.922L236.384 202.673C236.488 202.659 236.589 202.692 236.666 202.759C236.743 202.827 236.787 202.925 236.787 203.027V266.589C236.787 266.687 236.746 266.78 236.676 266.847C236.61 266.91 236.521 266.946 236.429 266.946ZM149.348 262.363L236.072 266.214V203.434L149.348 214.59V262.363Z" fill="#101010"/>
<path d="M225.151 250.24L227.881 252.79L227.139 270.011C227.097 271 227.882 271.825 228.866 271.825H244.28V250.292L225.151 250.24Z" fill="white"/>
<path d="M244.28 272.184H228.866C228.294 272.184 227.761 271.956 227.363 271.543C226.963 271.125 226.757 270.576 226.782 269.997L227.517 252.941L224.907 250.503C224.8 250.402 224.764 250.247 224.818 250.11C224.873 249.973 225.005 249.885 225.151 249.885L244.28 249.936C244.477 249.936 244.637 250.096 244.637 250.293V271.827C244.637 272.024 244.477 272.184 244.28 272.184ZM226.062 250.601L228.126 252.529C228.202 252.6 228.244 252.701 228.24 252.805L227.498 270.026C227.481 270.409 227.618 270.771 227.882 271.045C228.143 271.317 228.493 271.466 228.868 271.466H243.924V250.648L226.063 250.599L226.062 250.601Z" fill="#101010"/>
<path d="M273.069 185.104H222.087V250.801H273.069V185.104Z" fill="white"/>
<path d="M273.069 251.162H222.087C221.889 251.162 221.729 251.002 221.729 250.805V185.107C221.729 184.91 221.889 184.75 222.087 184.75H273.069C273.267 184.75 273.427 184.91 273.427 185.107V250.805C273.427 251.002 273.267 251.162 273.069 251.162ZM222.444 250.448H272.712V185.465H222.444V250.448Z" fill="#101010"/>
<path d="M240.844 256.469H235.798C233.737 256.469 232.065 261.379 232.065 267.42C232.065 273.46 233.737 278.374 235.798 278.374H240.844C242.906 278.374 244.577 273.461 244.577 267.421C244.577 261.381 242.906 256.469 240.844 256.469Z" fill="#101010"/>
<path d="M235.798 278.421C237.859 278.421 239.531 273.524 239.531 267.484C239.531 261.443 237.859 256.547 235.798 256.547C233.737 256.547 232.065 261.443 232.065 267.484C232.065 273.524 233.737 278.421 235.798 278.421Z" fill="white"/>
<path d="M235.798 278.779C233.238 278.779 231.706 273.036 231.706 267.483C231.706 261.931 233.236 256.188 235.798 256.188C238.36 256.188 239.888 261.931 239.888 267.483C239.888 273.036 238.358 278.779 235.798 278.779ZM235.798 256.904C234.201 256.904 232.423 261.249 232.423 267.483C232.423 273.718 234.201 278.063 235.798 278.063C237.395 278.063 239.173 273.718 239.173 267.483C239.173 261.249 237.395 256.904 235.798 256.904Z" fill="#101010"/>
<path d="M282.006 255.934H276.96C274.899 255.934 273.228 260.844 273.228 266.884C273.228 272.925 274.899 277.838 276.96 277.838H282.006C284.068 277.838 285.739 272.926 285.739 266.886C285.739 260.846 284.068 255.934 282.006 255.934Z" fill="#101010"/>
<path d="M276.866 277.837C278.927 277.837 280.598 272.94 280.598 266.9C280.598 260.86 278.927 255.963 276.866 255.963C274.804 255.963 273.133 260.86 273.133 266.9C273.133 272.94 274.804 277.837 276.866 277.837Z" fill="white"/>
<path d="M276.866 278.197C274.305 278.197 272.774 272.454 272.774 266.903C272.774 261.352 274.304 255.607 276.866 255.607C279.428 255.607 280.956 261.351 280.956 266.903C280.956 272.456 279.426 278.197 276.866 278.197ZM276.866 256.322C275.269 256.322 273.491 260.667 273.491 266.902C273.491 273.136 275.269 277.481 276.866 277.481C278.462 277.481 280.241 273.136 280.241 266.902C280.241 260.667 278.462 256.322 276.866 256.322Z" fill="#101010"/>
<path d="M225.042 204.851L224.893 250.502L226.614 251.951C227.245 252.483 227.595 253.281 227.559 254.108L226.85 270.552C226.821 271.251 227.376 271.837 228.072 271.837C228.599 271.837 229.089 271.833 229.089 271.816C229.089 261.547 231.019 253.127 233.516 253.127C236.013 253.127 238.037 261.451 238.037 271.722C238.037 271.757 244.014 271.829 244.014 271.829V205.044L225.042 204.85V204.851Z" fill="white"/>
<path d="M228.38 272.198C228.288 272.198 228.185 272.198 228.072 272.198C227.638 272.198 227.234 272.024 226.934 271.71C226.631 271.394 226.475 270.979 226.494 270.541L227.203 254.096C227.234 253.385 226.928 252.686 226.385 252.229L224.664 250.78C224.583 250.711 224.537 250.61 224.537 250.505L224.686 204.854C224.686 204.759 224.725 204.668 224.793 204.601C224.862 204.534 224.955 204.495 225.048 204.498L244.02 204.692C244.216 204.694 244.375 204.854 244.375 205.05V271.835C244.375 271.931 244.336 272.023 244.269 272.09C244.201 272.156 244.111 272.19 244.013 272.192C244.013 272.192 242.517 272.175 241.023 272.152C240.275 272.141 239.528 272.128 238.966 272.116C237.755 272.091 237.682 272.089 237.682 271.726C237.682 260.979 235.489 253.491 233.519 253.491C231.55 253.491 229.449 260.856 229.449 271.822C229.449 271.917 229.412 272.009 229.344 272.076C229.232 272.187 229.219 272.2 228.381 272.2L228.38 272.198ZM225.252 250.338L226.845 251.679C227.557 252.279 227.958 253.192 227.918 254.124L227.209 270.569C227.198 270.811 227.285 271.039 227.452 271.213C227.616 271.386 227.837 271.481 228.074 271.481C228.381 271.481 228.591 271.481 228.733 271.477C228.773 262.346 230.447 252.771 233.518 252.771C236.588 252.771 238.356 262.298 238.396 271.383C239.268 271.407 241.769 271.443 243.658 271.467V205.398L225.4 205.211L225.254 250.335L225.252 250.338Z" fill="#101010"/>
<path d="M286.505 204.916H244.344V271.828H290.078C291.443 271.828 292.548 270.716 292.548 269.343V247.888C292.548 241.929 292.024 235.982 290.982 230.116L286.505 204.916Z" fill="white"/>
<path d="M290.078 272.188H244.344C244.146 272.188 243.986 272.028 243.986 271.83V204.918C243.986 204.721 244.146 204.561 244.344 204.561H286.505C286.679 204.561 286.827 204.685 286.858 204.856L291.335 230.056C292.379 235.926 292.907 241.928 292.907 247.89V269.345C292.907 270.912 291.639 272.188 290.078 272.188ZM244.701 271.473H290.078C291.244 271.473 292.19 270.519 292.19 269.345V247.89C292.19 241.97 291.665 236.01 290.63 230.181L286.205 205.277H244.701V271.473Z" fill="#101010"/>
<path d="M237.264 234.929L239.482 235.311C240.215 235.437 240.885 234.87 240.885 234.121V220.259C240.885 219.313 240.123 218.547 239.182 218.547H236.1C235.315 218.547 234.679 219.187 234.679 219.976V231.845C234.679 233.369 235.77 234.671 237.264 234.929Z" fill="white"/>
<path d="M239.686 235.687C239.599 235.687 239.51 235.68 239.422 235.666L237.203 235.283C235.534 234.996 234.321 233.551 234.321 231.847V219.978C234.321 218.993 235.119 218.191 236.1 218.191H239.182C240.317 218.191 241.242 219.12 241.242 220.261V234.123C241.242 234.587 241.039 235.024 240.686 235.322C240.403 235.56 240.048 235.687 239.686 235.687ZM236.1 218.906C235.514 218.906 235.036 219.386 235.036 219.978V231.847C235.036 233.202 235.999 234.35 237.325 234.578L239.543 234.96C239.786 235.002 240.034 234.934 240.224 234.775C240.417 234.614 240.527 234.376 240.527 234.123V220.261C240.527 219.513 239.924 218.906 239.184 218.906H236.101H236.1Z" fill="#101010"/>
<path d="M222.087 250.805V185.105L144.76 194.431V250.874L222.087 250.805Z" fill="white"/>
<path d="M144.76 251.233C144.666 251.233 144.575 251.196 144.507 251.129C144.44 251.062 144.401 250.971 144.401 250.876V194.433C144.401 194.252 144.537 194.099 144.717 194.077L222.043 184.753C222.144 184.74 222.247 184.773 222.323 184.84C222.399 184.908 222.444 185.004 222.444 185.107V250.804C222.444 251.002 222.284 251.162 222.087 251.162L144.76 251.232V251.233ZM145.118 194.75V250.517L221.729 250.449V185.511L145.118 194.75Z" fill="#101010"/>
<path d="M280.783 204.789H225.191L227.686 193.083C228.161 190.858 230.245 189.258 232.666 189.258H274.562C276.455 189.258 278.075 190.529 278.406 192.275L280.783 204.789Z" fill="white"/>
<path d="M280.783 205.147H225.191C225.084 205.147 224.981 205.099 224.913 205.015C224.845 204.931 224.818 204.821 224.842 204.715L227.337 193.01C227.843 190.629 230.085 188.9 232.666 188.9H274.562C276.629 188.9 278.394 190.292 278.759 192.208L281.136 204.722C281.156 204.826 281.128 204.934 281.06 205.017C280.991 205.099 280.89 205.146 280.785 205.146L280.783 205.147ZM225.634 204.433H280.351L278.055 192.345C277.755 190.765 276.286 189.618 274.562 189.618H232.666C230.421 189.618 228.475 191.108 228.036 193.16L225.634 204.433Z" fill="#101010"/>
<path d="M278.406 192.275C278.075 190.529 276.454 189.258 274.562 189.258H232.666C231.525 189.258 230.463 189.617 229.605 190.224L247.779 204.787H280.785L278.408 192.273L278.406 192.275Z" fill="white"/>
<path d="M280.783 205.148H247.778C247.697 205.148 247.618 205.12 247.554 205.068L229.379 190.506C229.292 190.436 229.242 190.329 229.245 190.217C229.249 190.105 229.305 190.001 229.396 189.935C230.349 189.26 231.479 188.902 232.664 188.902H274.56C276.628 188.902 278.392 190.294 278.756 192.21L281.133 204.724C281.153 204.828 281.125 204.936 281.057 205.019C280.988 205.101 280.887 205.148 280.781 205.148H280.783ZM247.904 204.433H280.351L278.055 192.345C277.755 190.765 276.285 189.619 274.561 189.619H232.666C231.793 189.619 230.957 189.839 230.217 190.26L247.904 204.433Z" fill="#101010"/>
<path d="M250.295 217.254H283.133C284.685 217.254 286.011 218.376 286.28 219.912L289.072 235.915C289.341 237.459 288.159 238.874 286.602 238.874H249.609C248.224 238.874 247.1 237.745 247.1 236.352V220.468C247.1 218.694 248.53 217.255 250.295 217.255V217.254Z" fill="white"/>
<path d="M286.602 239.232H249.609C248.028 239.232 246.742 237.939 246.742 236.351V220.468C246.742 218.5 248.336 216.896 250.295 216.896H283.134C284.862 216.896 286.334 218.139 286.633 219.85L289.425 235.851C289.573 236.695 289.341 237.554 288.791 238.209C288.245 238.859 287.448 239.23 286.602 239.23V239.232ZM250.295 217.613C248.731 217.613 247.459 218.894 247.459 220.468V236.351C247.459 237.546 248.424 238.517 249.609 238.517H286.602C287.235 238.517 287.833 238.237 288.243 237.751C288.657 237.259 288.831 236.612 288.721 235.977L285.929 219.974C285.689 218.605 284.516 217.613 283.135 217.613H250.296H250.295Z" fill="#101010"/>
<path d="M271.956 232.556C270.038 230.597 267.417 229.484 264.684 229.484H247.069V236.354C247.069 237.748 248.224 238.834 249.609 238.834H286.602C288.161 238.834 289.342 237.44 289.072 235.896L289.021 235.629H279.227C276.492 235.629 273.873 234.515 271.955 232.557L271.956 232.556Z" fill="white"/>
<path d="M286.602 239.193H249.609C248.011 239.193 246.71 237.92 246.71 236.356V229.486C246.71 229.289 246.87 229.129 247.067 229.129H264.682C267.487 229.129 270.23 230.288 272.211 232.309C274.058 234.193 276.615 235.273 279.228 235.273H289.022C289.195 235.273 289.342 235.396 289.374 235.564L289.425 235.831C289.573 236.674 289.344 237.526 288.8 238.174C288.254 238.821 287.454 239.193 286.603 239.193H286.602ZM247.426 229.844V236.356C247.426 237.526 248.406 238.478 249.609 238.478H286.602C287.241 238.478 287.842 238.2 288.251 237.714C288.654 237.235 288.825 236.608 288.725 235.988H279.228C276.424 235.988 273.68 234.829 271.7 232.808C269.854 230.923 267.297 229.844 264.684 229.844H247.426Z" fill="#101010"/>
<path d="M213.513 254.066H208.607C206.602 254.066 204.977 258.876 204.977 264.75C204.977 270.624 206.602 275.437 208.607 275.437H213.513C215.519 275.437 217.143 270.626 217.143 264.752C217.143 258.878 215.519 254.066 213.513 254.066Z" fill="#101010"/>
<path d="M208.607 275.261C210.612 275.261 212.237 270.5 212.237 264.626C212.237 258.752 210.612 253.99 208.607 253.99C206.602 253.99 204.977 258.752 204.977 264.626C204.977 270.5 206.602 275.261 208.607 275.261Z" fill="white"/>
<path d="M159.911 252.728H155.705C153.985 252.728 152.593 256.707 152.593 261.677C152.593 266.646 153.985 270.626 155.705 270.626H159.911C161.631 270.626 163.024 266.646 163.024 261.677C163.024 256.707 161.631 252.727 159.911 252.727V252.728Z" fill="#101010"/>
<path d="M155.707 270.522C157.425 270.522 158.819 266.493 158.819 261.523C158.819 256.554 157.425 252.525 155.707 252.525C153.988 252.525 152.594 256.554 152.594 261.523C152.594 266.493 153.988 270.522 155.707 270.522Z" fill="white"/>
<path d="M167.879 253.263H163.672C161.952 253.263 160.56 257.242 160.56 262.212C160.56 267.181 161.952 271.162 163.672 271.162H167.879C169.598 271.162 170.991 267.181 170.991 262.212C170.991 257.242 169.598 253.262 167.879 253.262V253.263Z" fill="#101010"/>
<path d="M163.674 271.057C165.392 271.057 166.786 267.028 166.786 262.059C166.786 257.089 165.392 253.061 163.674 253.061C161.955 253.061 160.561 257.089 160.561 262.059C160.561 267.028 161.955 271.057 163.674 271.057Z" fill="white"/>
<path d="M176.192 253.262H171.824C170.039 253.262 168.592 257.515 168.592 262.745C168.592 267.974 170.039 272.229 171.824 272.229H176.192C177.977 272.229 179.424 267.974 179.424 262.746C179.424 257.518 177.977 253.263 176.192 253.263V253.262Z" fill="#101010"/>
<path d="M171.824 272.061C173.609 272.061 175.056 267.823 175.056 262.594C175.056 257.366 173.609 253.127 171.824 253.127C170.039 253.127 168.592 257.366 168.592 262.594C168.592 267.823 170.039 272.061 171.824 272.061Z" fill="white"/>
<path d="M256.522 264.514H250.59C249.57 264.514 248.741 263.681 248.741 262.656V259.32H253.432C255.022 259.32 256.44 260.33 256.968 261.84L257.446 263.204C257.669 263.844 257.197 264.515 256.522 264.515V264.514Z" fill="white"/>
<path d="M256.522 264.869H250.59C249.374 264.869 248.384 263.874 248.384 262.652V259.316C248.384 259.119 248.544 258.959 248.742 258.959H253.432C255.171 258.959 256.729 260.068 257.306 261.718L257.783 263.082C257.926 263.494 257.862 263.951 257.61 264.306C257.357 264.664 256.961 264.869 256.522 264.869ZM249.099 259.674V262.652C249.099 263.48 249.768 264.152 250.588 264.152H256.521C256.723 264.152 256.906 264.058 257.024 263.891C257.144 263.722 257.174 263.514 257.105 263.318L256.628 261.954C256.151 260.59 254.867 259.674 253.43 259.674H249.098H249.099Z" fill="#101010"/>
<path d="M281.209 264.149H287.141C288.161 264.149 288.99 263.316 288.99 262.291V258.955H284.299C282.709 258.955 281.291 259.965 280.763 261.475L280.285 262.839C280.062 263.479 280.534 264.15 281.209 264.15V264.149Z" fill="white"/>
<path d="M287.141 264.507H281.209C280.772 264.507 280.376 264.302 280.121 263.945C279.869 263.589 279.804 263.132 279.948 262.721L280.425 261.357C281.002 259.707 282.56 258.598 284.299 258.598H288.99C289.187 258.598 289.347 258.758 289.347 258.955V262.29C289.347 263.513 288.359 264.507 287.141 264.507ZM284.298 259.312C282.862 259.312 281.576 260.229 281.1 261.593L280.623 262.957C280.555 263.153 280.584 263.362 280.704 263.53C280.822 263.696 281.005 263.791 281.207 263.791H287.14C287.961 263.791 288.629 263.118 288.629 262.29V259.312H284.296H284.298Z" fill="#101010"/>
<path d="M276.979 268.021H261.369C260.567 268.021 259.827 267.589 259.428 266.888L258.739 265.677C258.504 265.265 258.8 264.754 259.271 264.754H279.076C279.547 264.754 279.842 265.267 279.608 265.677L278.919 266.888C278.521 267.589 277.78 268.021 276.977 268.021H276.979Z" fill="white"/>
<path d="M276.979 268.38H261.369C260.441 268.38 259.578 267.876 259.117 267.067L258.427 265.855C258.252 265.549 258.254 265.184 258.431 264.88C258.607 264.577 258.921 264.396 259.269 264.396H279.074C279.423 264.396 279.737 264.577 279.912 264.88C280.09 265.184 280.091 265.548 279.917 265.855L279.227 267.067C278.767 267.876 277.904 268.38 276.974 268.38H276.979ZM259.271 265.113C259.139 265.113 259.073 265.201 259.052 265.24C259.028 265.279 258.983 265.383 259.052 265.503L259.742 266.714C260.076 267.302 260.699 267.665 261.371 267.665H276.98C277.652 267.665 278.277 267.3 278.61 266.714L279.3 265.503C279.367 265.385 279.322 265.28 279.3 265.242C279.278 265.203 279.211 265.114 279.081 265.114H259.275L259.271 265.113Z" fill="#101010"/>
<path d="M235.472 233.352C233.356 233.352 231.641 231.639 231.641 229.524V223.858C231.641 222.233 232.959 220.916 234.585 220.916H235.45C236.194 220.916 236.799 221.519 236.799 222.264V232.027C236.799 232.76 236.205 233.354 235.472 233.354V233.352Z" fill="#101010"/>
<path d="M293.86 233.878C293.392 233.878 293.014 233.499 293.014 233.033V221.122C293.014 220.763 293.305 220.473 293.664 220.473H294.961C296.12 220.473 297.061 221.413 297.061 222.571V230.681C297.061 232.447 295.628 233.88 293.86 233.88V233.878Z" fill="#101010"/>
<path d="M289.259 246.184H247.899C247.66 246.184 247.465 246.379 247.465 246.619V249.33C247.465 250.248 248.205 250.992 249.118 250.992H250.365C251.007 250.992 251.591 251.366 251.863 251.952L253.157 254.745C254.284 257.181 256.712 258.738 259.383 258.738H279.019C281.689 258.738 284.118 257.181 285.246 254.745L286.54 251.952C286.81 251.366 287.395 250.992 288.038 250.992C288.951 250.992 289.691 250.248 289.691 249.33V246.619C289.691 246.378 289.496 246.184 289.257 246.184H289.259Z" fill="white"/>
<path d="M279.022 259.095H259.386C256.588 259.095 254.016 257.447 252.835 254.896L251.541 252.102C251.33 251.644 250.868 251.349 250.368 251.349H249.121C248.012 251.349 247.111 250.443 247.111 249.329V246.62C247.111 246.182 247.465 245.826 247.902 245.826H289.262C289.698 245.826 290.053 246.182 290.053 246.62V249.329C290.053 250.443 289.151 251.349 288.043 251.349C287.542 251.349 287.081 251.644 286.869 252.102L285.576 254.896C284.396 257.447 281.823 259.096 279.025 259.096L279.022 259.095ZM247.901 246.539C247.859 246.539 247.826 246.575 247.826 246.617V249.326C247.826 250.046 248.407 250.631 249.121 250.631H250.368C251.146 250.631 251.863 251.09 252.191 251.8L253.485 254.593C254.549 256.892 256.866 258.377 259.386 258.377H279.022C281.543 258.377 283.859 256.892 284.924 254.591L286.218 251.798C286.546 251.088 287.263 250.63 288.041 250.63C288.755 250.63 289.336 250.044 289.336 249.325V246.615C289.336 246.572 289.302 246.538 289.262 246.538H247.902L247.901 246.539Z" fill="#101010"/>
<path d="M119.524 254.555H114.425C112.341 254.555 110.652 259.521 110.652 265.625C110.652 271.729 112.341 276.699 114.425 276.699H119.524C121.607 276.699 123.297 271.731 123.297 265.627C123.297 259.523 121.607 254.555 119.524 254.555Z" fill="#101010"/>
<path d="M159.159 271.045V196.834L57.0681 209.968V266.512L159.159 271.045Z" fill="white"/>
<path d="M159.159 271.406C159.159 271.406 159.148 271.406 159.143 271.406L57.0542 266.871C56.863 266.863 56.7122 266.705 56.7122 266.514V209.97C56.7122 209.789 56.8459 209.637 57.0246 209.615L159.114 196.482C159.216 196.468 159.319 196.5 159.395 196.567C159.473 196.636 159.516 196.733 159.516 196.836V271.047C159.516 271.145 159.476 271.238 159.406 271.305C159.339 271.368 159.251 271.404 159.159 271.404V271.406ZM57.4273 266.172L158.801 270.674V197.243L57.4273 210.285V266.172Z" fill="#101010"/>
<path d="M145.99 251.966L149.179 254.943L148.313 275.049C148.263 276.203 149.18 277.166 150.329 277.166H168.325V252.025L145.992 251.965L145.99 251.966Z" fill="white"/>
<path d="M168.323 277.527H150.327C149.676 277.527 149.068 277.268 148.616 276.796C148.16 276.32 147.926 275.696 147.954 275.036L148.813 255.094L145.746 252.23C145.639 252.129 145.603 251.973 145.657 251.837C145.712 251.7 145.844 251.611 145.99 251.611L168.323 251.672C168.521 251.672 168.681 251.832 168.681 252.029V277.17C168.681 277.367 168.521 277.527 168.323 277.527ZM146.9 252.328L149.423 254.683C149.499 254.754 149.541 254.855 149.536 254.959L148.67 275.065C148.65 275.528 148.815 275.966 149.135 276.3C149.451 276.629 149.875 276.811 150.329 276.811H167.967V252.385L146.901 252.328H146.9Z" fill="#101010"/>
<path d="M201.936 175.916H142.412V252.622H201.936V175.916Z" fill="white"/>
<path d="M201.936 252.983H192.421C192.223 252.983 192.063 252.823 192.063 252.626C192.063 252.428 192.223 252.268 192.421 252.268H201.579V176.277H142.771V252.626C142.771 252.823 142.61 252.983 142.413 252.983C142.216 252.983 142.055 252.823 142.055 252.626V175.92C142.055 175.723 142.216 175.562 142.413 175.562H201.938C202.135 175.562 202.295 175.723 202.295 175.92V252.626C202.295 252.823 202.135 252.983 201.938 252.983H201.936Z" fill="#101010"/>
<path d="M164.311 259.234H158.419C156.013 259.234 154.06 264.968 154.06 272.02C154.06 279.071 156.011 284.809 158.419 284.809H164.311C166.717 284.809 168.67 279.073 168.67 272.022C168.67 264.97 166.719 259.234 164.311 259.234Z" fill="#101010"/>
<path d="M158.421 284.601C160.828 284.601 162.78 278.883 162.78 271.831C162.78 264.778 160.828 259.061 158.421 259.061C156.013 259.061 154.062 264.778 154.062 271.831C154.062 278.883 156.013 284.601 158.421 284.601Z" fill="white"/>
<path d="M158.421 284.96C155.776 284.96 153.704 279.193 153.704 271.832C153.704 264.472 155.776 258.705 158.421 258.705C161.065 258.705 163.137 264.472 163.137 271.832C163.137 279.193 161.065 284.96 158.421 284.96ZM158.421 259.42C156.488 259.42 154.421 264.407 154.421 271.832C154.421 279.258 156.49 284.245 158.421 284.245C160.351 284.245 162.421 279.258 162.421 271.832C162.421 264.407 160.351 259.42 158.421 259.42Z" fill="#101010"/>
<path d="M212.372 258.607H206.48C204.074 258.607 202.121 264.342 202.121 271.393C202.121 278.445 204.072 284.182 206.48 284.182H212.372C214.779 284.182 216.731 278.446 216.731 271.395C216.731 264.343 214.78 258.607 212.372 258.607Z" fill="#101010"/>
<path d="M206.445 284.181C208.871 284.181 210.838 278.417 210.838 271.308C210.838 264.199 208.871 258.436 206.445 258.436C204.018 258.436 202.052 264.199 202.052 271.308C202.052 278.417 204.018 284.181 206.445 284.181Z" fill="white"/>
<path d="M206.445 284.54C203.78 284.54 201.694 278.728 201.694 271.31C201.694 263.892 203.78 258.08 206.445 258.08C209.109 258.08 211.195 263.892 211.195 271.31C211.195 278.728 209.109 284.54 206.445 284.54ZM206.445 258.796C204.495 258.796 202.409 263.825 202.409 271.31C202.409 278.795 204.495 283.824 206.445 283.824C208.394 283.824 210.48 278.795 210.48 271.31C210.48 263.825 208.394 258.796 206.445 258.796Z" fill="#101010"/>
<path d="M145.861 198.963L145.687 252.263L147.696 253.955C148.433 254.576 148.841 255.507 148.8 256.473L147.972 275.673C147.937 276.491 148.585 277.173 149.398 277.174C150.014 277.174 150.586 277.171 150.586 277.151C150.586 265.161 152.84 255.331 155.755 255.331C158.67 255.331 161.034 265.05 161.034 277.041C161.034 277.082 168.013 277.165 168.013 277.165V199.19L145.861 198.963Z" fill="white"/>
<path d="M149.735 277.533C149.634 277.533 149.522 277.533 149.398 277.533C148.908 277.533 148.451 277.338 148.112 276.982C147.77 276.624 147.593 276.154 147.615 275.66L148.442 256.46C148.479 255.61 148.114 254.776 147.466 254.23L145.457 252.538C145.376 252.47 145.33 252.369 145.33 252.263L145.504 198.963C145.504 198.868 145.543 198.777 145.611 198.71C145.679 198.643 145.76 198.607 145.866 198.607L168.017 198.834C168.213 198.836 168.372 198.996 168.372 199.192V277.167C168.372 277.263 168.333 277.355 168.266 277.421C168.197 277.488 168.109 277.526 168.009 277.524C168.009 277.524 166.264 277.504 164.519 277.477C163.646 277.465 162.774 277.449 162.119 277.437C161.789 277.431 161.516 277.423 161.325 277.417C160.992 277.406 160.679 277.395 160.679 277.042C160.679 264.271 158.135 255.691 155.758 255.691C153.381 255.691 150.946 264.314 150.946 277.153C150.946 277.247 150.907 277.339 150.841 277.407C150.726 277.521 150.713 277.535 149.737 277.535L149.735 277.533ZM146.046 252.099L147.927 253.683C148.743 254.372 149.204 255.42 149.159 256.491L148.331 275.691C148.319 275.989 148.425 276.273 148.632 276.488C148.835 276.701 149.109 276.817 149.401 276.819C149.808 276.819 150.065 276.819 150.231 276.814C150.272 266.163 152.206 254.974 155.758 254.974C159.31 254.974 161.351 265.963 161.395 276.704C162.368 276.733 165.402 276.777 167.658 276.805V199.546L146.222 199.327L146.051 252.099H146.046Z" fill="#101010"/>
<path d="M217.624 199.045H168.396V277.168H221.793C223.387 277.168 224.678 275.869 224.678 274.266V249.216C224.678 242.26 224.066 235.315 222.85 228.467L217.624 199.045Z" fill="white"/>
<path d="M221.795 277.527H168.396C168.199 277.527 168.039 277.367 168.039 277.169V199.047C168.039 198.849 168.199 198.689 168.396 198.689H217.624C217.798 198.689 217.945 198.814 217.977 198.985L223.203 228.407C224.42 235.258 225.037 242.26 225.037 249.22V274.269C225.037 276.066 223.582 277.528 221.795 277.528V277.527ZM168.755 276.812H221.795C223.188 276.812 224.322 275.67 224.322 274.267V249.218C224.322 242.302 223.708 235.34 222.499 228.531L217.324 199.404H168.754V276.812H168.755Z" fill="#101010"/>
<path d="M160.132 234.09L162.722 234.536C163.579 234.683 164.359 234.02 164.359 233.147V216.962C164.359 215.858 163.47 214.963 162.372 214.963H158.772C157.856 214.963 157.113 215.71 157.113 216.631V230.489C157.113 232.268 158.388 233.789 160.132 234.09Z" fill="white"/>
<path d="M162.96 234.916C162.86 234.916 162.761 234.908 162.661 234.891L160.072 234.445C158.15 234.114 156.756 232.452 156.756 230.493V216.635C156.756 215.518 157.66 214.609 158.772 214.609H162.372C163.666 214.609 164.717 215.666 164.717 216.966V233.151C164.717 233.674 164.488 234.168 164.087 234.506C163.768 234.774 163.369 234.919 162.958 234.919L162.96 234.916ZM160.193 233.74L162.783 234.185C163.083 234.237 163.392 234.154 163.627 233.956C163.865 233.755 164.002 233.462 164.002 233.148V216.963C164.002 216.059 163.271 215.322 162.372 215.322H158.772C158.055 215.322 157.471 215.911 157.471 216.634V230.491C157.471 232.102 158.615 233.468 160.193 233.74Z" fill="#101010"/>
<path d="M142.412 252.622V175.916L52.1294 186.803V252.704L142.412 252.622Z" fill="white"/>
<path d="M210.942 198.893H146.037L148.949 185.226C149.502 182.63 151.935 180.76 154.763 180.76H203.679C205.89 180.76 207.782 182.245 208.169 184.283L210.944 198.893H210.942Z" fill="white"/>
<path d="M210.942 199.252H146.037C145.93 199.252 145.827 199.204 145.759 199.12C145.69 199.036 145.664 198.926 145.687 198.82L148.599 185.153C149.185 182.402 151.778 180.404 154.763 180.404H203.679C206.064 180.404 208.1 182.008 208.52 184.218L211.295 198.828C211.315 198.932 211.287 199.041 211.219 199.123C211.15 199.205 211.049 199.252 210.944 199.252H210.942ZM146.478 198.537H210.51L207.816 184.352C207.46 182.48 205.72 181.12 203.679 181.12H154.763C152.114 181.12 149.816 182.879 149.298 185.304L146.478 198.539V198.537Z" fill="#101010"/>
<path d="M208.167 184.281C207.78 182.243 205.888 180.758 203.678 180.758H154.761C153.431 180.758 152.188 181.176 151.187 181.887L172.406 198.891H210.941L208.166 184.281H208.167Z" fill="white"/>
<path d="M210.942 199.252H172.407C172.326 199.252 172.247 199.224 172.183 199.173L150.965 182.169C150.878 182.099 150.828 181.992 150.831 181.88C150.834 181.768 150.89 181.664 150.982 181.599C152.084 180.818 153.392 180.404 154.763 180.404H203.679C206.064 180.404 208.1 182.008 208.52 184.218L211.295 198.828C211.315 198.932 211.287 199.041 211.219 199.123C211.15 199.205 211.049 199.252 210.944 199.252H210.942ZM172.533 198.537H210.51L207.816 184.352C207.46 182.48 205.72 181.12 203.679 181.12H154.763C153.704 181.12 152.689 181.397 151.798 181.922L172.533 198.537Z" fill="#101010"/>
<path d="M175.347 213.449H213.688C215.499 213.449 217.049 214.757 217.361 216.551L220.621 235.234C220.935 237.038 219.556 238.689 217.736 238.689H174.545C172.928 238.689 171.616 237.37 171.616 235.744V217.199C171.616 215.127 173.286 213.447 175.345 213.447L175.347 213.449Z" fill="white"/>
<path d="M217.736 239.05H174.545C172.732 239.05 171.258 237.568 171.258 235.745V217.201C171.258 214.934 173.091 213.092 175.345 213.092H213.686C215.676 213.092 217.369 214.521 217.712 216.491L220.972 235.174C221.142 236.142 220.876 237.127 220.245 237.877C219.618 238.621 218.704 239.048 217.736 239.048V239.05ZM175.345 213.808C173.486 213.808 171.973 215.33 171.973 217.202V235.747C171.973 237.175 173.127 238.335 174.545 238.335H217.736C218.493 238.335 219.208 238.001 219.697 237.42C220.192 236.831 220.4 236.059 220.268 235.3L217.008 216.617C216.724 214.99 215.328 213.81 213.687 213.81H175.347L175.345 213.808Z" fill="#101010"/>
<path d="M200.637 231.314C198.397 229.027 195.337 227.727 192.146 227.727H171.579V235.747C171.579 237.374 172.928 238.643 174.545 238.643H217.736C219.556 238.643 220.935 237.017 220.619 235.213L220.56 234.901H209.126C205.935 234.901 202.875 233.6 200.635 231.314H200.637Z" fill="white"/>
<path d="M217.736 239.002H174.545C172.712 239.002 171.221 237.544 171.221 235.749V227.728C171.221 227.531 171.381 227.371 171.579 227.371H192.146C195.404 227.371 198.592 228.718 200.892 231.065C203.059 233.276 206.061 234.545 209.126 234.545H220.56C220.733 234.545 220.88 234.668 220.911 234.837L220.971 235.15C221.14 236.116 220.877 237.093 220.254 237.834C219.629 238.577 218.712 239.002 217.736 239.002ZM171.936 228.086V235.749C171.936 237.149 173.107 238.286 174.545 238.286H217.736C218.499 238.286 219.219 237.954 219.707 237.373C220.195 236.793 220.398 236.029 220.268 235.275L220.265 235.258H209.128C205.869 235.258 202.683 233.911 200.38 231.564C198.215 229.353 195.213 228.084 192.146 228.084H171.938L171.936 228.086Z" fill="#101010"/>
<path d="M217.736 239.05H174.545C172.732 239.05 171.258 237.568 171.258 235.745V217.201C171.258 214.934 173.091 213.092 175.345 213.092H213.686C215.676 213.092 217.369 214.521 217.712 216.491L220.972 235.174C221.142 236.142 220.876 237.127 220.245 237.877C219.618 238.621 218.704 239.048 217.736 239.048V239.05ZM175.345 213.808C173.486 213.808 171.973 215.33 171.973 217.202V235.747C171.973 237.175 173.127 238.335 174.545 238.335H217.736C218.493 238.335 219.208 238.001 219.697 237.42C220.192 236.831 220.4 236.059 220.268 235.3L217.008 216.617C216.724 214.99 215.328 213.81 213.687 213.81H175.347L175.345 213.808Z" fill="#101010"/>
<path d="M132.402 256.422H126.673C124.332 256.422 122.435 262.038 122.435 268.897C122.435 275.756 124.333 281.375 126.673 281.375H132.402C134.743 281.375 136.64 275.757 136.64 268.898C136.64 262.039 134.741 256.422 132.402 256.422Z" fill="#101010"/>
<path d="M126.673 281.171C129.014 281.171 130.911 275.611 130.911 268.753C130.911 261.895 129.014 256.336 126.673 256.336C124.333 256.336 122.435 261.895 122.435 268.753C122.435 275.611 124.333 281.171 126.673 281.171Z" fill="white"/>
<path d="M126.673 281.531C124.096 281.531 122.076 275.92 122.076 268.755C122.076 261.59 124.096 255.979 126.673 255.979C129.251 255.979 131.27 261.59 131.27 268.755C131.27 275.92 129.251 281.531 126.673 281.531ZM126.673 256.695C124.798 256.695 122.793 261.54 122.793 268.755C122.793 275.969 124.8 280.815 126.673 280.815C128.546 280.815 130.553 275.969 130.553 268.755C130.553 261.54 128.546 256.695 126.673 256.695Z" fill="#101010"/>
<path d="M69.8191 254.869H64.9082C62.9012 254.869 61.2751 259.514 61.2751 265.317C61.2751 271.119 62.9012 275.767 64.9082 275.767H69.8191C71.8261 275.767 73.4522 271.121 73.4522 265.318C73.4522 259.516 71.8261 254.869 69.8191 254.869Z" fill="#101010"/>
<path d="M64.9082 275.646C66.9147 275.646 68.5412 270.942 68.5412 265.139C68.5412 259.337 66.9147 254.633 64.9082 254.633C62.9017 254.633 61.2751 259.337 61.2751 265.139C61.2751 270.942 62.9017 275.646 64.9082 275.646Z" fill="white"/>
<path d="M64.9081 276.001C62.4099 276.001 60.9175 270.477 60.9175 265.137C60.9175 259.798 62.4099 254.273 64.9081 254.273C67.4063 254.273 68.8987 259.798 68.8987 265.137C68.8987 270.477 67.4063 276.001 64.9081 276.001ZM64.9081 254.99C63.3582 254.99 61.6326 259.158 61.6326 265.137C61.6326 271.117 63.3582 275.285 64.9081 275.285C66.458 275.285 68.1836 271.117 68.1836 265.137C68.1836 259.158 66.458 254.99 64.9081 254.99Z" fill="#101010"/>
<path d="M79.1214 255.49H74.2104C72.2035 255.49 70.5774 260.135 70.5774 265.938C70.5774 271.74 72.2035 276.388 74.2104 276.388H79.1214C81.1283 276.388 82.7544 271.742 82.7544 265.939C82.7544 260.137 81.1283 255.49 79.1214 255.49Z" fill="#101010"/>
<path d="M74.2107 276.269C76.2171 276.269 77.8437 271.565 77.8437 265.762C77.8437 259.96 76.2171 255.256 74.2107 255.256C72.2042 255.256 70.5776 259.96 70.5776 265.762C70.5776 271.565 72.2042 276.269 74.2107 276.269Z" fill="white"/>
<path d="M74.2106 276.628C71.7124 276.628 70.22 271.104 70.22 265.764C70.22 260.425 71.7124 254.9 74.2106 254.9C76.7088 254.9 78.2012 260.425 78.2012 265.764C78.2012 271.104 76.7088 276.628 74.2106 276.628ZM74.2106 255.617C72.6606 255.617 70.9351 259.785 70.9351 265.764C70.9351 271.744 72.6606 275.912 74.2106 275.912C75.7605 275.912 77.4861 271.744 77.4861 265.764C77.4861 259.785 75.7605 255.617 74.2106 255.617Z" fill="#101010"/>
<path d="M88.8283 255.492H83.7293C81.6461 255.492 79.9563 260.459 79.9563 266.563C79.9563 272.667 81.6461 277.636 83.7293 277.636H88.8283C90.9114 277.636 92.6013 272.668 92.6013 266.564C92.6013 260.46 90.9114 255.492 88.8283 255.492Z" fill="#101010"/>
<path d="M83.7278 277.443C85.8115 277.443 87.5008 272.494 87.5008 266.389C87.5008 260.285 85.8115 255.336 83.7278 255.336C81.644 255.336 79.9548 260.285 79.9548 266.389C79.9548 272.494 81.644 277.443 83.7278 277.443Z" fill="white"/>
<path d="M83.7277 277.798C81.1424 277.798 79.5972 271.996 79.5972 266.387C79.5972 260.779 81.1424 254.977 83.7277 254.977C86.313 254.977 87.8582 260.779 87.8582 266.387C87.8582 271.996 86.313 277.798 83.7277 277.798ZM83.7277 255.691C82.1125 255.691 80.3123 260.083 80.3123 266.387C80.3123 272.692 82.1125 277.083 83.7277 277.083C85.3429 277.083 87.1431 272.692 87.1431 266.387C87.1431 260.083 85.3429 255.691 83.7277 255.691Z" fill="#101010"/>
<path d="M182.616 268.626H175.689C174.498 268.626 173.531 267.655 173.531 266.455V262.561H179.008C180.866 262.561 182.521 263.74 183.137 265.503L183.694 267.095C183.955 267.843 183.403 268.626 182.616 268.626Z" fill="white"/>
<path d="M182.616 268.985H175.689C174.302 268.985 173.174 267.851 173.174 266.457V262.562C173.174 262.365 173.334 262.205 173.531 262.205H179.008C181.015 262.205 182.809 263.484 183.476 265.387L184.032 266.979C184.194 267.44 184.121 267.955 183.838 268.354C183.553 268.755 183.107 268.986 182.616 268.986V268.985ZM173.89 262.92V266.457C173.89 267.456 174.697 268.27 175.69 268.27H182.618C182.874 268.27 183.106 268.149 183.255 267.939C183.406 267.726 183.443 267.462 183.358 267.215L182.801 265.623C182.235 264.007 180.712 262.921 179.009 262.921H173.892L173.89 262.92Z" fill="#101010"/>
<path d="M211.44 268.208H218.367C219.557 268.208 220.524 267.237 220.524 266.037V262.143H215.048C213.19 262.143 211.534 263.322 210.919 265.085L210.362 266.677C210.101 267.425 210.653 268.208 211.44 268.208Z" fill="white"/>
<path d="M218.367 268.566H211.44C210.948 268.566 210.504 268.336 210.218 267.934C209.935 267.535 209.862 267.022 210.023 266.559L210.58 264.967C211.245 263.064 213.041 261.785 215.048 261.785H220.523C220.72 261.785 220.881 261.945 220.881 262.142V266.037C220.881 267.431 219.752 268.565 218.365 268.565L218.367 268.566ZM215.048 262.501C213.345 262.501 211.822 263.587 211.256 265.203L210.7 266.795C210.612 267.042 210.65 267.306 210.802 267.521C210.951 267.731 211.183 267.852 211.44 267.852H218.367C219.359 267.852 220.165 267.039 220.165 266.039V262.501H215.048Z" fill="#101010"/>
<path d="M206.501 272.728H188.276C187.34 272.728 186.475 272.223 186.01 271.406L185.204 269.99C184.931 269.51 185.276 268.912 185.826 268.912H208.951C209.501 268.912 209.845 269.51 209.572 269.99L208.767 271.406C208.302 272.223 207.438 272.728 206.501 272.728Z" fill="white"/>
<path d="M206.501 273.085H188.276C187.214 273.085 186.226 272.508 185.699 271.583L184.893 270.167C184.701 269.829 184.702 269.425 184.9 269.089C185.094 268.755 185.441 268.555 185.826 268.555H208.951C209.336 268.555 209.683 268.755 209.877 269.089C210.073 269.426 210.075 269.829 209.882 270.167L209.077 271.583C208.55 272.51 207.561 273.085 206.499 273.085H206.501ZM185.826 269.271C185.641 269.271 185.55 269.395 185.518 269.45C185.487 269.504 185.422 269.65 185.517 269.815L186.322 271.228C186.723 271.932 187.471 272.369 188.278 272.369H206.502C207.307 272.369 208.057 271.932 208.458 271.228L209.263 269.813C209.356 269.648 209.293 269.502 209.261 269.448C209.23 269.394 209.137 269.269 208.952 269.269H185.828L185.826 269.271Z" fill="#101010"/>
<path d="M156.728 217.727H158.141C158.94 217.727 159.588 218.374 159.588 219.173V230.823C159.588 231.609 158.949 232.247 158.163 232.247H157.678C155.408 232.247 153.566 230.407 153.566 228.138V220.886C153.566 219.143 154.982 217.728 156.726 217.728L156.728 217.727Z" fill="#101010"/>
<path d="M225.854 232.859C225.308 232.859 224.866 232.416 224.866 231.872V217.965C224.866 217.547 225.205 217.207 225.625 217.207H227.139C228.493 217.207 229.591 218.304 229.591 219.657V229.126C229.591 231.187 227.918 232.86 225.854 232.86V232.859Z" fill="#101010"/>
<path d="M220.839 247.221H172.55C172.27 247.221 172.045 247.449 172.045 247.729V250.893C172.045 251.965 172.909 252.835 173.974 252.835H175.429C176.18 252.835 176.863 253.273 177.178 253.957L178.688 257.219C180.004 260.062 182.84 261.88 185.957 261.88H208.884C212.002 261.88 214.838 260.062 216.154 257.218L217.664 253.957C217.981 253.273 218.664 252.835 219.413 252.835C220.479 252.835 221.342 251.967 221.342 250.893V247.729C221.342 247.448 221.115 247.221 220.837 247.221H220.839Z" fill="white"/>
<path d="M208.885 262.239H185.958C182.714 262.239 179.732 260.328 178.364 257.37L176.855 254.107C176.598 253.551 176.039 253.194 175.431 253.194H173.976C172.715 253.194 171.687 252.162 171.687 250.895V247.73C171.687 247.252 172.074 246.863 172.552 246.863H220.84C221.316 246.863 221.704 247.252 221.704 247.73V250.895C221.704 252.162 220.678 253.194 219.416 253.194C218.808 253.194 218.248 253.553 217.99 254.109L216.481 257.37C215.111 260.328 212.131 262.24 208.885 262.24V262.239ZM172.548 247.579C172.468 247.579 172.401 247.648 172.401 247.73V250.895C172.401 251.768 173.107 252.478 173.972 252.478H175.428C176.314 252.478 177.128 253 177.501 253.808L179.011 257.07C180.264 259.776 182.989 261.524 185.957 261.524H208.884C211.85 261.524 214.577 259.776 215.83 257.07L217.339 253.809C217.714 253.001 218.527 252.479 219.413 252.479C220.299 252.479 220.985 251.769 220.985 250.896V247.732C220.985 247.648 220.918 247.581 220.837 247.581H172.548V247.579Z" fill="#101010"/>
<path d="M217.188 250.82H178.398C178.201 250.82 178.041 250.66 178.041 250.463C178.041 250.265 178.201 250.105 178.398 250.105H217.188C217.386 250.105 217.546 250.265 217.546 250.463C217.546 250.66 217.386 250.82 217.188 250.82Z" fill="#101010"/>
<path d="M213.586 254.072H181.909C181.711 254.072 181.551 253.912 181.551 253.715C181.551 253.517 181.711 253.357 181.909 253.357H213.586C213.784 253.357 213.944 253.517 213.944 253.715C213.944 253.912 213.784 254.072 213.586 254.072Z" fill="#101010"/>
<path d="M209.431 257.326H185.141C184.943 257.326 184.783 257.166 184.783 256.969C184.783 256.771 184.943 256.611 185.141 256.611H209.431C209.628 256.611 209.788 256.771 209.788 256.969C209.788 257.166 209.628 257.326 209.431 257.326Z" fill="#101010"/>
<path d="M52.1294 253.064C52.0346 253.064 51.9444 253.027 51.876 252.96C51.8092 252.894 51.7703 252.802 51.7703 252.707V186.806C51.7703 186.626 51.9055 186.472 52.0858 186.45L142.37 175.563C142.469 175.551 142.573 175.583 142.649 175.65C142.726 175.718 142.769 175.815 142.769 175.917V252.465C142.769 252.662 142.609 252.822 142.412 252.822L52.1278 253.063L52.1294 253.064ZM52.4885 187.123V252.348L142.056 252.111V176.323L52.4885 187.125V187.123Z" fill="#101010"/>
<path d="M211.222 42.4791C214.264 42.4791 216.73 40.0148 216.73 36.9749C216.73 33.935 214.264 31.4707 211.222 31.4707C208.18 31.4707 205.714 33.935 205.714 36.9749C205.714 40.0148 208.18 42.4791 211.222 42.4791Z" fill="white"/>
<path d="M211.222 42.8382C207.987 42.8382 205.356 40.2081 205.356 36.9767C205.356 33.7454 207.988 31.1152 211.222 31.1152C214.455 31.1152 217.087 33.7454 217.087 36.9767C217.087 40.2081 214.457 42.8382 211.222 42.8382ZM211.222 31.8299C208.382 31.8299 206.072 34.1384 206.072 36.9767C206.072 39.815 208.382 42.1236 211.222 42.1236C214.062 42.1236 216.372 39.815 216.372 36.9767C216.372 34.1384 214.062 31.8299 211.222 31.8299Z" fill="#101010"/>
</svg>
