<svg width="284" height="293" viewBox="0 0 284 293" fill="none" xmlns="http://www.w3.org/2000/svg">
<path d="M215.522 16.3287C215.398 16.3287 215.277 16.2584 215.218 16.1355L214.044 13.7117C213.96 13.5393 214.028 13.3301 214.196 13.2439C214.366 13.1577 214.568 13.2279 214.652 13.4004L215.825 15.8241C215.909 15.9966 215.841 16.2057 215.673 16.292C215.625 16.3175 215.574 16.3287 215.522 16.3287Z" fill="#101010"/>
<path d="M218.255 21.9742C218.131 21.9742 218.01 21.9039 217.951 21.781L216.777 19.3572C216.693 19.1848 216.761 18.9756 216.929 18.8894C217.099 18.8032 217.301 18.8734 217.385 19.0459L218.558 21.4696C218.642 21.6421 218.574 21.8513 218.406 21.9375C218.358 21.963 218.307 21.9742 218.255 21.9742Z" fill="#101010"/>
<path d="M212.374 19.9464C212.25 19.9464 212.129 19.8761 212.07 19.7532C211.986 19.5807 212.054 19.3715 212.222 19.2853L214.582 18.0798C214.751 17.9936 214.953 18.0639 215.037 18.2363C215.121 18.4087 215.053 18.6179 214.885 18.7041L212.525 19.9096C212.477 19.9352 212.426 19.9464 212.374 19.9464Z" fill="#101010"/>
<path d="M217.87 17.1387C217.745 17.1387 217.624 17.0685 217.565 16.9455C217.481 16.7731 217.549 16.5639 217.717 16.4777L220.077 15.2722C220.245 15.186 220.449 15.2562 220.533 15.4287C220.617 15.6011 220.548 15.8103 220.38 15.8965L218.02 17.102C217.972 17.1276 217.921 17.1387 217.87 17.1387Z" fill="#101010"/>
<path d="M135.309 248.977C199.947 248.977 252.346 194.794 252.346 127.957C252.346 61.1198 199.947 6.9375 135.309 6.9375C70.6717 6.9375 18.2727 61.1198 18.2727 127.957C18.2727 194.794 70.6717 248.977 135.309 248.977Z" fill="white"/>
<path d="M119.636 45.7833C119.471 45.7833 119.303 45.7673 119.134 45.7338C117.441 45.4065 115.697 43.4793 114.469 40.5781C113.542 38.3874 113.615 34.2919 113.687 30.3305C113.744 27.1148 113.799 24.0779 113.279 22.6792C112.328 20.1213 111.331 20.1437 109.155 20.1932C108.841 20.2011 108.505 20.2075 108.148 20.2075C106.075 20.2075 104.72 19.0068 104.19 17.9785C103.882 17.3814 103.84 16.8353 104.076 16.4777C107.95 10.6018 120.587 12.0947 127.376 12.8963C135.278 13.8303 139.339 17.3574 138.81 22.8309C138.28 28.3187 127.327 34.648 126.08 35.3505C124.783 36.0818 124.217 38.1591 123.67 40.1678C123.187 41.9433 122.688 43.7779 121.655 44.8445C121.058 45.4608 120.37 45.7785 119.638 45.7785L119.636 45.7833ZM109.918 19.4858C111.691 19.4858 112.928 19.786 113.912 22.4317C114.48 23.9566 114.424 27.0589 114.364 30.3433C114.298 34.0476 114.223 38.2469 115.09 40.3003C116.211 42.9492 117.808 44.7694 119.258 45.0488C119.955 45.1814 120.598 44.9498 121.172 44.3575C122.08 43.4202 122.554 41.6734 123.014 39.9841C123.599 37.8366 124.203 35.6156 125.75 34.7438C130.159 32.2562 137.73 26.936 138.132 22.767C138.627 17.6624 134.879 14.4898 127.297 13.594C120.65 12.8085 108.28 11.3475 104.637 16.872C104.58 16.9583 104.574 17.2377 104.79 17.6544C105.267 18.5789 106.491 19.5114 108.148 19.5114C108.499 19.5114 108.829 19.5034 109.14 19.497C109.412 19.4906 109.671 19.4842 109.92 19.4842L109.918 19.4858Z" fill="#101010"/>
<path d="M95.5773 236.823C94.4067 236.823 92.9967 236.069 92.0577 235.099C89.8549 232.82 85.7663 223.05 83.921 217.324C82.4644 212.804 81.6995 198.716 81.1943 189.395C81.042 186.591 80.9114 184.171 80.7979 182.772C80.4077 177.927 78.6883 177.177 74.0945 175.175C73.3577 174.854 72.5229 174.49 71.6228 174.076C65.0484 171.055 64.4484 168.199 64.5774 161.921C64.5898 161.349 64.5448 160.605 64.4919 159.743C64.2665 156.043 63.9276 150.453 67.2824 146.984C70.2765 143.888 71.8575 133.846 71.6849 129.626C71.6259 128.178 72.3503 126.838 73.5753 126.131C75.974 124.747 80.0253 123.563 85.7088 125.788C88.078 126.715 89.1569 128.221 90.2 129.679C91.069 130.894 91.9691 132.15 93.6511 133.128C94.8342 133.816 96.2986 134.239 97.7133 134.648C100.689 135.507 103.764 136.396 103.056 139.872C102.164 144.258 107.031 148.825 114.894 150.977C119.471 152.229 122.907 155.692 123.249 159.4C123.477 161.863 122.266 163.942 119.93 165.101C114.136 167.977 114.234 170.077 114.902 173.538C115.154 174.841 115.617 176.201 116.063 177.516C116.891 179.947 117.604 182.047 116.726 183.137C115.448 184.725 111.265 186.211 109.439 186.684C107.717 187.129 105.652 189.449 105.192 193.49C104.71 197.728 98.6957 208.649 95.1731 213.264C92.0048 217.414 93.3309 220.96 95.9721 228.024C96.1882 228.602 96.4136 229.202 96.6437 229.828C98.2947 234.292 97.5873 235.927 96.7028 236.513C96.3794 236.727 95.9939 236.823 95.5788 236.823H95.5773ZM73.7417 126.437L73.908 126.742C72.9068 127.32 72.3146 128.414 72.3643 129.599C72.5182 133.364 71.1393 143.988 67.7659 147.477C64.6256 150.723 64.9536 156.126 65.1713 159.701C65.2241 160.578 65.2708 161.336 65.2583 161.937C65.1324 168.012 65.6718 170.578 71.901 173.439C72.7949 173.85 73.6266 174.214 74.3619 174.533C78.9557 176.535 81.0528 177.45 81.4757 182.714C81.5892 184.123 81.7151 186.431 81.8737 189.357C82.3773 198.641 83.1375 212.673 84.5662 217.105C86.3913 222.767 90.4052 232.4 92.5396 234.607C93.6076 235.712 95.4296 236.526 96.3343 235.927C97.2718 235.306 97.1536 233.175 96.0079 230.077C95.7762 229.453 95.5524 228.852 95.3363 228.274C92.6889 221.195 91.2307 217.295 94.6367 212.834C98.1143 208.281 104.047 197.543 104.516 193.411C105.017 189.018 107.265 186.527 109.272 186.008C111.44 185.448 115.143 184.008 116.2 182.695C116.835 181.908 116.147 179.888 115.42 177.749C114.966 176.412 114.495 175.029 114.234 173.677C113.452 169.631 113.729 167.405 119.631 164.475C121.73 163.434 122.773 161.656 122.571 159.468C122.311 156.669 119.743 153.03 114.717 151.654C106.358 149.366 101.404 144.574 102.389 139.731C102.94 137.031 100.9 136.297 97.5283 135.321C96.0747 134.901 94.5714 134.467 93.3153 133.737C91.5074 132.685 90.5637 131.368 89.6528 130.094C88.6236 128.655 87.6505 127.295 85.4678 126.441C80.0315 124.312 76.1808 125.43 73.9095 126.741L73.7432 126.436L73.7417 126.437Z" fill="#101010"/>
<path d="M185.653 201.618C184.952 201.618 184.289 201.262 183.696 200.558C180.501 196.762 179.707 182.443 184.552 175.036C190.051 166.63 186.393 160.07 184.566 157.639C183.161 155.771 182.935 147.572 182.994 141.022L182.998 140.653C182.998 140.573 183.008 140.449 183.024 140.286C183.122 139.262 183.354 136.866 181.483 135.069C179.176 132.855 174.53 132.333 167.673 133.514C161.729 134.538 157.345 133.632 154.644 130.822C151.637 127.696 150.768 122.389 152.06 115.045C152.68 111.518 152.119 108.681 151.623 106.177C151.331 104.702 151.056 103.308 151.056 101.946C151.056 97.7468 156.592 94.2644 161.237 92.0817C164.033 90.7661 166.014 89.2045 167.929 87.694C169.704 86.2937 171.382 84.9701 173.476 84.0775C176.507 82.7874 177.756 84.9781 178.962 87.0969C179.624 88.2592 180.308 89.4616 181.311 90.3254C182.45 91.3073 183.187 90.9545 184.303 90.4196C185.825 89.6915 187.719 88.7862 191.256 91.071C195.458 93.787 200.216 92.6262 202.108 90.9864C202.612 90.5505 203.395 89.6691 202.989 88.6616C202.483 87.405 201.401 86.9883 200.149 86.5045C198.514 85.8738 196.661 85.1601 195.506 82.476C194.24 79.5301 196.51 77.6732 198.705 75.8769C200.169 74.6794 201.682 73.4404 201.971 71.9459C202.262 70.445 201.57 68.5114 200.073 66.6385C198.567 64.7528 196.521 63.3301 195.318 63.3301C194.564 63.3301 194.363 64.8039 194.13 66.5107C193.771 69.1533 193.276 72.7714 190.189 73.889C187.459 74.8758 184.81 73.3829 182.248 71.9379C179.949 70.6414 177.571 69.3002 175.169 69.7744C172.47 70.3061 170.062 73.5649 167.512 77.017C165.296 80.0187 163.004 83.1211 160.301 84.7018C158.354 85.8387 156.623 85.6087 155.55 84.0711C153.815 81.5851 154.219 76.2458 157.164 73.5585C160.804 70.2358 160.647 65.7268 160.563 63.303C160.553 62.9852 160.543 62.7026 160.543 62.4647C160.543 61.8005 160.702 60.1064 162.179 58.7317C163.833 57.1908 166.514 56.5921 170.149 56.9561C173.082 57.2483 175.318 56.8076 176.618 55.6804C177.678 54.7591 177.76 53.7117 177.763 53.6685C178.786 46.2583 177.812 43.8313 176.813 43.0969C176.075 42.5524 175.153 42.8318 174.511 43.1655C174.258 43.3076 173.515 44.6185 172.859 45.7729C171.041 48.9711 168.587 53.2917 166.294 53.2917C166.171 53.2917 166.048 53.279 165.925 53.2534C164.273 52.9037 163.167 50.191 162.542 44.9602C161.644 37.4206 162.49 32.6338 165.059 30.7353C167.301 29.0779 169.981 30.2786 170.245 30.4032C175.204 32.2058 179.066 32.1292 181.724 30.1764C185.56 27.3567 185.908 21.3915 185.878 18.9565C185.878 18.8352 185.937 18.7218 186.037 18.6579C186.136 18.5925 186.261 18.5861 186.366 18.6388C201.67 26.2949 215.463 37.5627 226.255 51.2256C237.161 65.0322 245.108 81.4318 249.237 98.6537C249.247 98.7016 249.249 98.7527 249.241 98.8022C248.604 102.291 247.261 107.142 244.489 110.432C242.16 113.196 242.521 115.874 242.838 118.237C243.071 119.973 243.292 121.613 242.239 122.823C241.921 123.19 241.597 123.687 241.287 124.167C240.528 125.338 239.747 126.546 238.715 126.337C237.52 126.093 235.954 124.054 233.419 110.787C230.177 93.8317 222.848 92.8194 219.841 93.1691C219.636 93.193 219.577 93.3623 219.563 93.4134C219.546 93.4756 219.524 93.6353 219.678 93.7551C221.612 95.2607 224.928 98.3216 225.402 101.911C225.63 103.637 225.173 105.283 224.042 106.803C219.738 112.586 218.591 117.665 220.811 121.106C222.988 124.482 223.302 126.995 222.103 131.455C221.666 133.083 220.342 134.8 218.941 136.618C216.253 140.105 213.208 144.059 215.585 148.482C219.522 155.81 210.158 178.42 203.767 183.503C200.788 185.873 198.088 189.271 195.475 192.557C192.462 196.349 189.614 199.929 186.736 201.346C186.371 201.527 186.012 201.616 185.662 201.616L185.653 201.618ZM173.976 132.207C177.645 132.207 180.314 132.992 181.947 134.56C184.062 136.591 183.8 139.325 183.7 140.354C183.688 140.487 183.677 140.589 183.677 140.653C183.677 140.723 183.677 140.851 183.674 141.03C183.593 150 184.114 155.898 185.102 157.214C187.021 159.764 190.861 166.644 185.116 175.426C180.509 182.469 181.211 196.54 184.21 200.103C184.897 200.919 185.625 201.12 186.435 200.722C189.177 199.373 191.977 195.849 194.941 192.121C197.578 188.804 200.303 185.375 203.344 182.957C206.383 180.54 210.237 173.926 212.936 166.5C215.852 158.472 216.617 151.865 214.983 148.825C212.388 143.995 215.583 139.848 218.402 136.19C219.759 134.429 221.04 132.765 221.441 131.274C222.717 126.526 222.069 124.338 220.238 121.496C218.852 119.348 217.435 114.53 223.494 106.383C224.511 105.017 224.925 103.544 224.721 102.008C224.279 98.6681 221.11 95.7541 219.26 94.3139C218.929 94.0568 218.792 93.6417 218.901 93.2313C219.009 92.8226 219.345 92.5272 219.757 92.4793C222.944 92.1025 230.729 93.1292 234.079 110.656C235.931 120.342 237.534 125.389 238.843 125.655C239.424 125.772 240.111 124.716 240.716 123.784C241.041 123.283 241.377 122.764 241.728 122.36C242.571 121.392 242.389 120.043 242.16 118.335C241.84 115.949 241.44 112.981 243.971 109.977C246.625 106.827 247.929 102.147 248.557 98.7495C240.225 64.0981 217.644 35.2491 186.554 19.5153C186.517 22.3239 185.936 27.9411 182.116 30.7481C179.265 32.8445 175.189 32.9483 170 31.0594C169.989 31.0562 169.978 31.0514 169.967 31.045C169.942 31.0323 167.428 29.8395 165.448 31.3085C163.833 32.506 162.135 35.8319 163.212 44.8804C163.929 50.8935 165.156 52.3832 166.057 52.5748C167.971 52.9788 170.662 48.251 172.268 45.4264C173.289 43.6302 173.798 42.7568 174.202 42.5476C175.346 41.9568 176.412 41.952 177.205 42.5364C178.878 43.7691 179.291 47.542 178.433 53.7468C178.433 53.7739 178.345 55.0832 177.072 56.2025C175.61 57.4862 173.258 57.9748 170.079 57.6571C166.642 57.3138 164.136 57.8503 162.631 59.2538C161.356 60.4417 161.219 61.8979 161.219 62.4695C161.219 62.6994 161.229 62.9741 161.24 63.2822C161.328 65.8194 161.492 70.544 157.611 74.0838C154.959 76.5028 154.557 81.4589 156.099 83.6688C156.971 84.919 158.306 85.0675 159.962 84.0999C162.544 82.591 164.793 79.5445 166.968 76.6002C169.599 73.0396 172.083 69.677 175.038 69.0942C177.682 68.5753 180.168 69.9756 182.573 71.3311C185.116 72.765 187.517 74.1206 189.962 73.236C192.661 72.2588 193.101 69.0207 193.455 66.4181C193.732 64.3887 193.971 62.6356 195.315 62.6356C196.746 62.6356 198.918 64.1013 200.595 66.1978C202.222 68.232 202.965 70.3779 202.635 72.0832C202.298 73.8284 200.686 75.1488 199.126 76.4246C197.04 78.1314 195.07 79.7425 196.126 82.1966C197.164 84.6124 198.803 85.2431 200.386 85.8546C201.729 86.372 202.996 86.8605 203.614 88.3966C204.031 89.4312 203.641 90.5697 202.545 91.5213C200.106 93.6353 194.957 94.2899 190.893 91.6634C187.669 89.5797 186.034 90.3621 184.591 91.0535C183.436 91.6059 182.345 92.128 180.876 90.8603C179.783 89.9182 179.037 88.6073 178.377 87.4497C177.126 85.2527 176.223 83.664 173.737 84.7226C171.725 85.58 170.082 86.8749 168.343 88.2481C166.488 89.7106 164.388 91.3696 161.52 92.7172C155.209 95.6823 151.735 98.9603 151.735 101.948C151.735 103.239 152.004 104.6 152.288 106.04C152.795 108.606 153.37 111.512 152.728 115.17C151.479 122.275 152.285 127.377 155.127 130.332C157.664 132.971 161.848 133.811 167.561 132.826C169.958 132.413 172.098 132.207 173.978 132.207H173.976Z" fill="#101010"/>
<path d="M61.1139 130.585C60.5449 130.585 59.9137 130.375 59.2266 129.957C54.7727 127.247 38.8787 103.668 39.5783 90.6401C39.6343 89.6039 39.684 88.6075 39.7322 87.6463C40.2934 76.4424 40.6323 69.6788 47.4398 57.4146C49.5602 53.5953 50.58 49.1597 50.4712 44.2339C50.4697 44.1413 50.5023 44.0519 50.5645 43.9848C55.3044 38.8722 64.6334 30.6317 69.8086 26.6783C69.8879 26.6176 69.989 26.5953 70.0869 26.6176C71.1767 26.8715 72.1669 27.3952 73.2147 27.9509C75.8202 29.332 78.7739 30.8968 84.3299 28.5991C89.4383 26.4867 92.4262 24.9667 94.4036 23.9623C97.0588 22.6131 97.9543 22.1581 99.6752 22.4551C102.803 22.9947 105.422 25.6277 105.169 27.9812C104.78 31.6009 101.239 33.4355 94.6446 33.4355C89.4274 33.4355 86.6276 37.2516 85.6669 38.8914C84.1356 41.5052 83.6646 44.491 84.5212 46.1531C85.2922 47.6492 85.9343 48.3374 86.7333 48.5306C88.0765 48.8531 90.1005 47.844 94.2108 44.8087C97.1257 42.6564 99.77 41.8022 102.069 42.27C104.393 42.7442 105.642 44.4431 106.069 45.152C106.971 46.6433 105.866 49.3258 104.696 52.1647C104.174 53.434 103.633 54.7481 103.262 55.9744C102.609 58.1347 102.62 60.1513 102.627 61.772C102.634 63.0892 102.64 64.1303 102.295 64.844C101.783 65.901 100.05 66.6483 97.6527 67.6813C96.3624 68.237 94.9011 68.8677 93.3776 69.6548C88.7621 72.0403 85.5876 73.9324 83.5822 78.3105C82.2872 81.1366 79.9087 82.8131 77.9966 84.1592C76.7343 85.0485 75.6445 85.8165 75.2932 86.6308C74.9776 87.3653 74.8952 88.7273 74.8066 90.1675C74.6372 92.9649 74.4444 96.1359 72.5696 97.3159C70.118 98.8615 65.375 96.6517 63.497 94.4674C62.6762 93.5126 61.6036 93.0894 60.5604 93.3098C59.6448 93.503 58.9204 94.164 58.625 95.0805C57.7575 97.771 58.311 101.394 60.2697 105.852C63.0042 112.071 64.3894 117.377 64.3894 121.622C64.3894 126.588 63.6649 129.425 62.1757 130.297C61.8523 130.487 61.4979 130.581 61.1154 130.581L61.1139 130.585ZM51.1537 44.3632C51.2423 49.3593 50.193 53.8668 48.0305 57.7595C41.3023 69.88 40.9852 76.2029 40.41 87.6815C40.3618 88.6443 40.3121 89.6406 40.2561 90.6784C39.5363 104.071 55.8703 127.105 59.5717 129.357C60.4967 129.919 61.2585 130.032 61.8368 129.694C63.0789 128.967 63.7085 126.251 63.7085 121.624C63.7085 117.479 62.342 112.269 59.6495 106.141C57.6176 101.52 57.0549 97.7246 57.9783 94.8634C58.3514 93.7074 59.2655 92.8707 60.4221 92.628C61.7124 92.355 63.0167 92.8595 64.0038 94.0075C65.8833 96.1934 70.2859 97.9354 72.212 96.7235C73.7852 95.7336 73.9671 92.7541 74.1257 90.126C74.2205 88.5564 74.3045 87.2009 74.6682 86.3514C75.0973 85.3551 76.2601 84.5344 77.608 83.586C79.4517 82.2862 81.7478 80.6704 82.9635 78.0151C85.2192 73.0909 89.2098 71.028 93.0682 69.0321C94.6119 68.2338 96.0857 67.5983 97.3853 67.0378C99.5633 66.099 101.283 65.3581 101.682 64.5326C101.956 63.9658 101.951 62.9998 101.945 61.7736C101.937 60.105 101.926 58.0277 102.61 55.7652C102.991 54.5054 103.538 53.177 104.068 51.8916C105.119 49.3417 106.204 46.704 105.489 45.5193C105.107 44.8886 103.997 43.3749 101.934 42.9534C99.826 42.5239 97.3604 43.3382 94.6042 45.374C90.256 48.5849 88.1542 49.5892 86.5763 49.2092C85.5627 48.9649 84.7932 48.1745 83.9195 46.4789C82.9417 44.582 83.4096 41.3886 85.0839 38.5321C87.2417 34.8502 90.7255 32.7377 94.6446 32.7377C100.835 32.7377 104.149 31.1107 104.494 27.9046C104.707 25.9295 102.31 23.6159 99.5633 23.1416C98.0569 22.883 97.2796 23.2774 94.7052 24.5866C92.7185 25.5958 89.7166 27.1222 84.5833 29.2458C78.7381 31.6632 75.6383 30.0202 72.9038 28.5704C71.9462 28.0626 71.0383 27.582 70.0885 27.3345C64.9459 31.28 55.861 39.3081 51.1537 44.3601V44.3632Z" fill="#101010"/>
<path d="M246.829 149.76C245.061 149.355 245.453 153.824 243.096 154.637C240.738 155.449 239.757 156.668 240.346 161.138C240.935 165.607 239.953 171.499 237.596 173.735C235.238 175.968 231.898 177.594 231.703 183.08C231.507 188.566 226.594 193.848 223.647 195.676C220.699 197.505 216.182 200.35 216.182 205.022C216.182 208.03 216.104 211.876 216.782 214.835C232.377 199.194 243.772 179.104 249.055 156.543C248.595 153.544 247.841 149.995 246.83 149.764L246.829 149.76Z" fill="white"/>
<path d="M135.309 249.325C103.956 249.325 74.4816 236.7 52.3118 213.777C30.1435 190.853 17.9338 160.375 17.9338 127.956C17.9338 95.5369 30.1435 65.0593 52.3118 42.1356C74.4801 19.2119 103.956 6.58691 135.309 6.58691C166.662 6.58691 196.138 19.2119 218.308 42.1356C240.476 65.0593 252.686 95.5369 252.686 127.956C252.686 160.375 240.476 190.853 218.308 213.777C196.138 236.7 166.662 249.325 135.309 249.325ZM135.309 7.28467C70.9621 7.28467 18.6132 61.4173 18.6132 127.956C18.6132 194.495 70.9621 248.628 135.309 248.628C199.656 248.628 252.005 194.495 252.005 127.956C252.005 61.4173 199.655 7.28467 135.309 7.28467Z" fill="#101010"/>
<path d="M11.2942 274.238L11.9207 280.406L15.9548 280.895V273.582L11.2942 274.238Z" fill="white"/>
<path d="M15.9549 281.242C15.9409 281.242 15.9285 281.242 15.9145 281.241L11.8804 280.752C11.7218 280.733 11.599 280.603 11.5819 280.442L10.9554 274.274C10.9368 274.087 11.0658 273.918 11.2477 273.893L15.9083 273.236C16.0047 273.224 16.1042 273.252 16.1772 273.319C16.2519 273.386 16.2938 273.482 16.2938 273.583V280.897C16.2938 280.996 16.2519 281.092 16.1803 281.158C16.1182 281.215 16.0373 281.245 15.9549 281.245V281.242ZM12.2302 280.091L15.6145 280.501V273.98L11.6658 274.536L12.2302 280.091Z" fill="#101010"/>
<path d="M16.5892 291.632C14.9071 291.876 12.1493 292.092 8.91109 291.629C7.85242 291.477 7.14975 290.414 7.40626 289.341C8.11826 286.347 9.34637 280.664 11.4544 278.031L11.9783 279.459L12.7012 278.115C12.8006 277.931 12.9779 277.806 13.18 277.779L14.7641 277.572C15.0952 277.529 15.403 277.755 15.4714 278.092L15.7233 279.331L16.6886 277.707L17.1177 283.773C17.2094 285.073 17.3991 286.363 17.6867 287.632L18.1189 289.545C18.2479 290.556 17.567 291.49 16.5907 291.632H16.5892Z" fill="white"/>
<path d="M12.7759 292.25C11.5913 292.25 10.273 292.175 8.86611 291.974C8.2676 291.888 7.72816 291.543 7.38771 291.029C7.0457 290.512 6.93222 289.867 7.07679 289.258L7.2307 288.608C7.9598 285.511 9.18014 280.325 11.1933 277.812C11.271 277.716 11.3892 277.666 11.5105 277.689C11.6302 277.709 11.7296 277.792 11.7732 277.909L12.0375 278.629L12.4043 277.946C12.5551 277.666 12.8287 277.475 13.1381 277.433L14.7222 277.226C15.2274 277.16 15.7 277.51 15.8042 278.021L15.8804 278.398L16.3996 277.526C16.4773 277.396 16.6266 277.331 16.7696 277.369C16.9126 277.404 17.0183 277.532 17.0277 277.684L17.4567 283.75C17.5469 285.027 17.735 286.308 18.0179 287.555L18.4501 289.467C18.6087 290.699 17.7925 291.811 16.639 291.979C15.6456 292.123 14.3242 292.252 12.7774 292.252L12.7759 292.25ZM11.3565 278.749C9.65273 281.292 8.56142 285.928 7.89139 288.771L7.73749 289.423C7.638 289.84 7.71573 290.282 7.95047 290.636C8.18365 290.989 8.55209 291.224 8.96094 291.283C12.1292 291.736 14.8341 291.535 16.5442 291.286C17.3323 291.171 17.8873 290.41 17.7832 289.589L17.3572 287.71C17.0681 286.427 16.8737 285.112 16.7805 283.798L16.4276 278.818L16.0141 279.514C15.941 279.637 15.8042 279.701 15.6658 279.675C15.529 279.651 15.4202 279.542 15.3907 279.404L15.1388 278.164C15.1062 278.003 14.9694 277.898 14.8077 277.919L13.2236 278.126C13.1288 278.139 13.0448 278.198 12.9997 278.284L12.2769 279.629C12.2131 279.747 12.0888 279.815 11.9551 279.807C11.8229 279.798 11.7079 279.71 11.6612 279.582L11.355 278.749H11.3565Z" fill="#101010"/>
<path d="M12.9002 290.418C11.8944 290.418 10.699 290.311 9.35425 289.994C9.17081 289.95 9.05733 289.764 9.0993 289.575C9.14127 289.387 9.32316 289.269 9.5066 289.313C13.4086 290.233 16.0498 289.286 16.0762 289.277C16.2519 289.211 16.4462 289.305 16.51 289.486C16.5737 289.668 16.482 289.867 16.3063 289.931C16.2302 289.96 14.9678 290.415 12.9002 290.415V290.418Z" fill="#101010"/>
<path d="M10.9538 285.678C10.7719 285.678 10.6212 285.53 10.6149 285.341C10.6087 285.148 10.7548 284.987 10.943 284.98L14.7237 284.851C14.904 284.84 15.0688 284.995 15.075 285.188C15.0812 285.381 14.9351 285.543 14.747 285.549L10.9663 285.678C10.9663 285.678 10.9585 285.678 10.9554 285.678H10.9538Z" fill="#101010"/>
<path d="M30.1887 270.958L30.7935 279.959H35.6484L35.8738 270.958H30.1887Z" fill="white"/>
<path d="M35.6485 280.307H30.7935C30.6147 280.307 30.467 280.165 30.4546 279.982L29.8499 270.979C29.8437 270.884 29.8763 270.788 29.94 270.718C30.0038 270.647 30.0939 270.607 30.1888 270.607H35.8739C35.9656 270.607 36.0526 270.646 36.1164 270.713C36.1801 270.78 36.2159 270.871 36.2128 270.965L35.9873 279.967C35.9827 280.156 35.8319 280.307 35.6485 280.307ZM31.1106 279.61H35.3173L35.5256 271.305H30.5541L31.1122 279.61H31.1106Z" fill="#101010"/>
<path d="M29.5266 285.04C29.5141 285.891 30.0769 286.64 30.8791 286.832C33.6695 287.504 39.9562 288.998 41.7502 289.275C44.0774 289.632 46.9378 288.896 48.1675 287.488C49.3972 286.081 45.4144 282.72 43.524 281.497C40.7149 279.68 38.0177 276.091 36.8859 275.929C35.7542 275.768 33.6431 279.161 33.6431 279.161L30.1904 277.662C30.1904 277.662 29.5888 280.719 29.5266 285.039V285.04Z" fill="white"/>
<path d="M42.9611 289.712C42.5352 289.712 42.1108 289.682 41.6988 289.618C39.8753 289.337 33.4704 287.812 30.8012 287.17C29.8514 286.942 29.172 286.043 29.186 285.034C29.2482 280.732 29.8498 277.624 29.856 277.593C29.8762 277.491 29.94 277.403 30.0301 277.354C30.1203 277.306 30.2276 277.299 30.3208 277.341L33.5108 278.727C34.1062 277.809 35.7821 275.427 36.9294 275.585C37.6056 275.68 38.5321 276.591 39.8162 277.85C40.9946 279.006 42.33 280.316 43.7011 281.203C45.2324 282.193 48.4737 284.822 48.7193 286.624C48.7768 287.05 48.6726 287.43 48.4161 287.723C47.359 288.933 45.1235 289.715 42.958 289.715L42.9611 289.712ZM30.4483 278.152C30.2866 279.131 29.9135 281.722 29.8654 285.043C29.856 285.727 30.3146 286.337 30.9567 286.492C33.6166 287.132 40.0012 288.652 41.7999 288.93C44.0602 289.278 46.804 288.526 47.914 287.255C48.0368 287.114 48.0804 286.944 48.0493 286.72C47.8658 285.372 45.1982 282.993 43.342 281.793C41.9118 280.868 40.5515 279.532 39.3498 278.353C38.3409 277.363 37.2978 276.34 36.8392 276.274C36.2749 276.203 34.8882 277.807 33.929 279.348C33.8404 279.492 33.6632 279.548 33.5108 279.482L30.4499 278.154L30.4483 278.152Z" fill="#101010"/>
<path d="M42.9332 287.504C38.6861 287.504 33.214 285.516 31.2179 284.73C31.0422 284.662 30.9552 284.459 31.022 284.28C31.0889 284.101 31.2847 284.012 31.4604 284.079C33.3399 284.82 42.899 288.392 46.4621 285.993C46.6191 285.888 46.829 285.933 46.9316 286.094C47.0342 286.255 46.9906 286.471 46.8336 286.576C45.8403 287.245 44.466 287.504 42.9316 287.504H42.9332Z" fill="#101010"/>
<path d="M37.5373 282.609C37.4487 282.609 37.3616 282.574 37.2948 282.503C37.1642 282.366 37.1658 282.146 37.2994 282.01L39.3111 279.987C39.4448 279.853 39.6593 279.855 39.7914 279.992C39.922 280.129 39.9205 280.35 39.7868 280.485L37.7751 282.508C37.7099 282.575 37.6244 282.607 37.5373 282.607V282.609Z" fill="#101010"/>
<path d="M9.91694 212.273C9.91694 212.273 8.4121 240.413 7.62549 250.127C6.83887 259.841 9.46611 275.455 9.46611 275.455L16.9592 275.048C16.9592 275.048 17.4722 256.062 18.0287 250.79C18.0287 250.79 21.1939 243.643 22.1313 237.267C23.0687 230.893 26.2649 220.825 26.2649 220.825C26.2649 220.825 28.8595 271.08 29.1098 275.027C29.1098 275.027 34.9861 275.297 37.0925 273.927C37.0925 273.927 40.8251 255.602 40.2887 245.632C39.7524 235.663 40.3416 210.892 40.3416 210.892L9.91538 212.271L9.91694 212.273Z" fill="white"/>
<path d="M9.46618 275.804C9.3014 275.804 9.15993 275.683 9.13195 275.515C9.10552 275.359 6.50627 259.745 7.28822 250.098C8.06551 240.5 9.56412 212.535 9.57967 212.253C9.589 212.074 9.72891 211.932 9.90302 211.924L40.3292 210.544C40.4225 210.535 40.5142 210.576 40.5826 210.643C40.6495 210.71 40.6868 210.805 40.6837 210.9C40.6775 211.148 40.1007 235.772 40.6308 245.614C41.1625 255.515 37.4657 273.815 37.4268 273.998C37.4082 274.091 37.3538 274.171 37.276 274.222C35.1043 275.635 29.3415 275.388 29.0958 275.375C28.9233 275.367 28.7834 275.226 28.7725 275.049C28.5533 271.586 26.5059 232.028 26.0271 222.769C25.0679 225.97 23.1527 232.671 22.4687 237.319C21.5764 243.383 18.6506 250.217 18.3615 250.882C17.8143 256.155 17.3044 274.867 17.2982 275.057C17.2935 275.239 17.1536 275.386 16.9764 275.396L9.48329 275.803C9.48329 275.803 9.47085 275.803 9.46463 275.803L9.46618 275.804ZM10.2388 212.607C10.0709 215.735 8.69822 241.102 7.96291 250.157C7.24936 258.972 9.39157 272.862 9.75067 275.092L16.6281 274.719C16.6996 272.194 17.18 255.603 17.6915 250.755C17.6961 250.719 17.7055 250.682 17.7194 250.648C17.7505 250.578 20.8752 243.47 21.7955 237.219C22.7267 230.889 25.909 220.821 25.9416 220.72C25.9929 220.56 26.1499 220.461 26.3085 220.482C26.4702 220.504 26.5945 220.642 26.6039 220.809C26.6287 221.301 29.0912 268.978 29.4301 274.693C30.6209 274.723 34.9815 274.758 36.791 273.711C37.1439 271.94 40.4536 254.993 39.9515 245.656C39.4571 236.454 39.925 214.404 39.995 211.26L10.2388 212.609V212.607Z" fill="#101010"/>
<path d="M16.6498 251.139H14.3599C14.1718 251.139 14.021 250.982 14.021 250.79C14.021 250.599 14.1733 250.442 14.3599 250.442H16.6498C16.8379 250.442 16.9887 250.599 16.9887 250.79C16.9887 250.982 16.8363 251.139 16.6498 251.139Z" fill="#101010"/>
<path d="M32.9652 265.754H32.959C32.7709 265.751 32.6217 265.591 32.6263 265.398C32.7087 260.723 37.6554 252.37 37.8668 252.016C37.9647 251.851 38.1746 251.799 38.3332 251.901C38.4933 252.001 38.5431 252.215 38.4451 252.38C38.3954 252.464 33.385 260.925 33.3057 265.41C33.3026 265.6 33.1502 265.752 32.9668 265.752L32.9652 265.754Z" fill="#101010"/>
<path d="M44.9617 167.752C45.3768 167.718 48.831 173.807 50.454 176.714C50.9157 177.541 51.9449 177.809 52.733 177.311L65.4293 169.261C66.4662 168.605 67.3554 167.723 68.0254 166.676C69.0856 165.017 69.7168 163.329 71.1361 162.151C72.2912 161.191 73.4602 160.126 73.81 159.848C74.0292 159.674 75.0475 160.418 74.281 161.74C74.0448 162.146 73.1649 162.97 72.9239 163.343C72.5399 163.939 72.5399 164.734 72.9674 165.298C73.4229 165.9 73.8038 166.863 73.2923 168.204C72.5353 170.187 70.8206 170.679 69.8505 170.794C69.3624 170.851 68.9146 171.094 68.5913 171.475L56.8744 185.264C55.0571 187.404 52.0179 187.886 49.6627 186.409C45.8525 184.019 40.9493 179.203 37.4158 173.115L44.9648 167.753L44.9617 167.752Z" fill="white"/>
<path d="M52.604 187.609C51.5329 187.609 50.4541 187.314 49.4825 186.704C46.0033 184.521 40.9276 179.851 37.1204 173.292C37.0287 173.133 37.0723 172.931 37.2199 172.827L44.769 167.464C44.8187 167.429 44.8747 167.408 44.9353 167.403C45.2416 167.373 45.6147 167.347 50.7494 176.539C50.9267 176.857 51.2143 177.081 51.5578 177.172C51.8998 177.261 52.2543 177.205 52.5559 177.013L65.2521 168.963C66.2486 168.331 67.1098 167.473 67.7425 166.483C68.0472 166.006 68.3208 165.519 68.5836 165.048C69.2443 163.868 69.8708 162.752 70.9232 161.878C71.5886 161.326 72.2461 160.75 72.7747 160.285C73.1509 159.954 73.4494 159.693 73.6033 159.57C73.8225 159.396 74.1521 159.455 74.4428 159.72C74.8672 160.106 75.1563 160.912 74.5734 161.917C74.4272 162.167 74.1179 162.503 73.7898 162.857C73.5504 163.117 73.3017 163.386 73.2069 163.533C72.8929 164.021 72.9037 164.642 73.2349 165.08C73.723 165.725 74.1847 166.812 73.608 168.327C72.784 170.485 70.9248 171.013 69.8879 171.136C69.4837 171.184 69.1137 171.385 68.8447 171.701L57.1279 185.49C55.9479 186.879 54.2892 187.609 52.6056 187.609H52.604ZM37.8682 173.213C41.5914 179.515 46.4759 183.999 49.8369 186.108C52.0537 187.499 54.9048 187.045 56.6149 185.032L68.3317 171.243C68.711 170.796 69.2365 170.512 69.8086 170.443C70.6931 170.338 72.2803 169.891 72.9737 168.072C73.3437 167.101 73.2504 166.239 72.697 165.508C72.1855 164.834 72.1622 163.885 72.6379 163.146C72.7669 162.947 73.0234 162.669 73.2939 162.375C73.5691 162.078 73.88 161.741 73.9873 161.556C74.2858 161.042 74.2453 160.687 74.1567 160.48C74.0914 160.325 73.9919 160.232 73.9282 160.191C73.7696 160.323 73.5178 160.544 73.2131 160.812C72.7094 161.254 72.0192 161.859 71.3476 162.417C70.3931 163.208 69.7992 164.269 69.1696 165.393C68.9007 165.872 68.6224 166.368 68.3068 166.863C67.6197 167.938 66.6854 168.869 65.605 169.554L52.9087 177.604C52.4501 177.896 51.9092 177.981 51.3868 177.845C50.8629 177.71 50.4261 177.368 50.1571 176.886C47.0262 171.278 45.4483 168.757 44.9509 168.179L37.8651 173.212L37.8682 173.213Z" fill="#101010"/>
<path d="M1.38383 179.074C1.38383 179.074 0.539695 163.044 12.3389 158.541C21.4752 155.054 33.1439 156.558 36.8002 157.861C45.8028 161.068 50.2349 173.286 50.2349 173.286L39.684 174.813C39.684 174.813 42.8646 209.916 41.4842 217.746C41.4842 217.746 32.9931 218.77 29.3911 217.304C25.7892 215.838 13.9479 213.783 8.28771 216.472L9.31685 178.926L1.38383 179.076V179.074Z" fill="#101010"/>
<path d="M16.0902 209.083C15.9285 209.083 15.7855 208.965 15.756 208.796C15.7233 208.606 15.8462 208.426 16.0311 208.392C29.4643 205.938 33.3896 196.329 33.4284 196.233C33.4984 196.054 33.6974 195.968 33.8699 196.04C34.044 196.112 34.128 196.315 34.058 196.493C34.0192 196.594 29.9711 206.553 16.1493 209.079C16.1291 209.082 16.1089 209.083 16.0902 209.083Z" fill="white"/>
<path d="M41.2651 191.991H23.9797L29.3943 172.027H46.6797L41.2651 191.991Z" fill="white"/>
<path d="M41.265 192.338H23.9781C23.8724 192.338 23.7714 192.287 23.7076 192.201C23.6439 192.114 23.6221 192.001 23.6517 191.896L29.0663 171.932C29.1067 171.781 29.2404 171.677 29.3927 171.677H46.6796C46.7853 171.677 46.8864 171.728 46.9501 171.814C47.0139 171.9 47.0356 172.014 47.0061 172.119L41.5915 192.082C41.5511 192.234 41.4174 192.338 41.265 192.338ZM24.4258 191.64H41.007L46.2319 172.375H29.6508L24.4258 191.64Z" fill="#101010"/>
<path d="M3.43262 179.096L11.0345 178.741C11.0345 178.741 11.092 185.36 11.7776 185.478C14.2214 185.899 19.3391 185.92 22.669 185.505C23.8287 185.359 24.7474 184.443 24.9651 183.255C25.1299 182.359 25.5994 181.306 26.7902 180.549C27.9405 179.816 26.8057 182.12 27.883 183.603C28.4613 184.4 30.2911 184.047 32.7877 183.45C35.2844 182.853 35.9171 185.61 33.1204 187.277C30.0874 189.085 28.1613 188.882 27.1944 189.093C25.2682 189.514 8.23471 192.273 5.60592 190.796C3.57408 189.655 3.43417 179.096 3.43417 179.096H3.43262Z" fill="white"/>
<path d="M8.90789 191.572C7.29423 191.572 6.0428 191.437 5.44273 191.1C3.29897 189.896 3.10775 180.199 3.09376 179.099C3.09221 178.911 3.23523 178.754 3.41867 178.746L11.0206 178.392C11.1138 178.384 11.2024 178.422 11.2693 178.487C11.3361 178.553 11.375 178.642 11.375 178.738C11.3983 181.464 11.6082 184.625 11.9113 185.147C14.3582 185.551 19.4293 185.559 22.6286 185.158C23.6344 185.032 24.4397 184.242 24.6325 183.191C24.861 181.947 25.545 180.932 26.6114 180.253C26.7405 180.17 27.0856 179.952 27.3903 180.127C27.7121 180.312 27.7074 180.737 27.7027 181.275C27.6981 181.901 27.6903 182.759 28.1536 183.397C28.651 184.082 30.9953 183.522 32.7085 183.111C33.8698 182.834 34.8383 183.215 35.174 184.087C35.5316 185.015 35.0948 186.503 33.2883 187.579C30.8414 189.037 29.049 189.225 27.9795 189.337C27.6965 189.367 27.4509 189.393 27.2628 189.434C26.299 189.645 15.0081 191.576 8.90633 191.576L8.90789 191.572ZM3.77933 179.426C3.86017 183.455 4.45402 189.749 5.76919 190.488C8.17413 191.837 24.3635 189.353 27.1244 188.749C27.3483 188.7 27.611 188.673 27.9142 188.641C28.9962 188.527 30.63 188.357 32.951 186.974C34.3455 186.144 34.8087 185.021 34.546 184.343C34.3377 183.803 33.6941 183.592 32.8655 183.79C30.2352 184.419 28.3184 184.79 27.611 183.812C27.011 182.985 27.0203 181.952 27.0249 181.269C27.0249 181.124 27.0281 180.943 27.0187 180.815C27.0032 180.825 26.9876 180.835 26.969 180.846C26.0564 181.427 25.4937 182.259 25.2994 183.321C25.0506 184.671 24.0106 185.689 22.711 185.851C19.3671 186.268 14.2323 186.255 11.7217 185.823C11.4621 185.778 10.7796 185.66 10.6988 179.107L3.77778 179.43L3.77933 179.426Z" fill="#101010"/>
<path d="M29.6103 158.149C29.6103 158.149 27.6422 156.905 27.6609 156.179L27.0997 152.446C27.0935 152.104 27.2987 151.798 27.608 151.684L29.9352 150.863C30.2322 150.756 30.4234 150.455 30.4032 150.129L30.2213 147.162L31.1338 146.332C31.2053 146.267 31.2147 146.155 31.154 146.078L29.7129 144.274C29.2419 143.592 28.7693 141.962 28.3822 142.074C28.3822 142.074 20.1709 141.1 19.7699 145.352C19.7123 145.966 19.8927 146.583 20.2393 147.086L20.9669 148.14C21.6975 149.197 22.0815 150.493 21.9525 151.79C21.9261 152.059 21.584 153.792 21.3555 154.938C21.2265 155.59 20.8736 156.168 20.3637 156.572C19.7217 157.079 18.9413 157.726 19.0687 157.768C19.0687 157.768 19.9782 158.454 21.413 159.061C23.9626 160.14 26.8618 159.872 29.217 158.395L29.6072 158.151L29.6103 158.149Z" fill="white"/>
<path d="M24.656 160.064C23.5087 160.064 22.363 159.839 21.2872 159.384C19.8306 158.766 18.9087 158.078 18.8714 158.047C18.7968 157.99 18.7408 157.904 18.7237 157.813C18.6849 157.589 18.6662 157.476 20.1602 156.296C20.6063 155.943 20.9141 155.437 21.0261 154.868C21.3821 153.078 21.5982 151.945 21.6168 151.755C21.7334 150.586 21.4054 149.376 20.6918 148.343L19.9643 147.289C19.557 146.7 19.3689 146.002 19.4326 145.32C19.5166 144.429 19.9145 143.684 20.6157 143.101C22.9102 141.196 27.7729 141.657 28.3683 141.723C28.8363 141.657 29.1285 142.296 29.4892 143.091C29.6555 143.46 29.8296 143.842 29.9898 144.073L31.4169 145.857C31.5941 146.079 31.5692 146.403 31.3593 146.593L30.5712 147.31L30.7422 150.107C30.7717 150.588 30.4857 151.035 30.0488 151.193L27.7185 152.015C27.5553 152.074 27.4434 152.235 27.4387 152.419L27.9968 156.127C27.9999 156.147 28.0015 156.168 28.0015 156.189C27.9937 156.463 28.8456 157.257 29.7892 157.853C29.8903 157.916 29.9509 158.03 29.9509 158.15C29.9509 158.269 29.8887 158.384 29.7877 158.447L29.3975 158.691C27.9486 159.599 26.3008 160.062 24.656 160.062V160.064ZM19.5648 157.687C19.9332 157.929 20.6328 158.351 21.5469 158.739C23.9425 159.753 26.7127 159.529 28.9762 158.14C28.3139 157.672 27.3423 156.874 27.3237 156.206L26.7656 152.497C26.764 152.481 26.7625 152.465 26.7609 152.449C26.7531 151.956 27.0485 151.517 27.4962 151.354L29.8265 150.532C29.9773 150.477 30.0768 150.319 30.0659 150.149L29.8841 147.182C29.8778 147.075 29.9198 146.971 29.9975 146.899L30.7935 146.176L29.4503 144.496C29.2405 144.193 29.0539 143.783 28.8736 143.385C28.7228 143.053 28.5005 142.561 28.3699 142.422C28.3606 142.422 28.3528 142.422 28.345 142.421C28.2937 142.414 23.2165 141.839 21.0432 143.644C20.482 144.11 20.1773 144.68 20.1104 145.387C20.0622 145.901 20.2068 146.433 20.5193 146.885L21.2468 147.939C22.0552 149.109 22.4267 150.489 22.293 151.825C22.2713 152.047 22.0692 153.117 21.6914 155.007C21.5453 155.739 21.1489 156.392 20.5737 156.847C20.0327 157.275 19.7327 157.532 19.5648 157.685V157.687Z" fill="#101010"/>
<path d="M28.6574 135.602C26.7857 135.503 29.1518 137.484 22.2199 135.437C19.459 134.623 20.8768 137.949 20.1601 137.74C17.5142 136.967 17.6044 136.989 16.3172 137.35C15.4653 137.59 14.9212 139.226 15.0922 140.444C15.3161 142.054 17.0727 144.607 18.646 147.307C19.4606 148.706 20.9032 148.832 22.6474 146.751C22.8324 146.529 21.8841 145.225 22.3801 144.663C23.6672 143.2 24.2393 145.409 25.2793 144.728C26.2774 144.074 26.6893 143.651 27.7449 142.661C29.0212 141.463 31.1634 143.326 31.9034 140.631C32.2889 139.226 31.2178 135.737 28.6559 135.602H28.6574Z" fill="#101010"/>
<path d="M4.44158 41.2496H104.561C104.856 41.2496 105.094 41.4955 105.094 41.7973V100.666H4.04517V41.6552C4.04517 41.4301 4.22239 41.248 4.44158 41.248V41.2496Z" fill="white"/>
<path d="M105.096 101.013H4.0452C3.85709 101.013 3.7063 100.857 3.7063 100.665V41.6546C3.7063 41.2379 4.03587 40.8994 4.44161 40.8994H104.561C105.043 40.8994 105.435 41.3018 105.435 41.7968V100.665C105.435 100.858 105.282 101.013 105.096 101.013ZM4.38565 100.315H104.755V41.7952C104.755 41.685 104.668 41.5956 104.561 41.5956H4.44161C4.41052 41.5956 4.38565 41.6211 4.38565 41.6531V100.315Z" fill="#101010"/>
<path d="M93.1583 78.3741H89.2625C88.479 78.3741 87.8401 77.7195 87.8401 76.9131V68.0371C87.8401 67.2324 88.4775 66.5762 89.2625 66.5762H93.1583C93.9418 66.5762 94.5807 67.2308 94.5807 68.0371V76.9131C94.5807 77.7179 93.9434 78.3741 93.1583 78.3741ZM89.2625 67.2755C88.8537 67.2755 88.5194 67.6172 88.5194 68.0387V76.9147C88.5194 77.3347 88.8521 77.678 89.2625 77.678H93.1583C93.5672 77.678 93.9014 77.3363 93.9014 76.9147V68.0387C93.9014 67.6188 93.5687 67.2755 93.1583 67.2755H89.2625Z" fill="#101010"/>
<path d="M100.159 78.3745H96.4819C95.6378 78.3745 94.9507 77.6687 94.9507 76.8017V68.1509C94.9507 67.2839 95.6378 66.5781 96.4819 66.5781H100.159C101.003 66.5781 101.69 67.2839 101.69 68.1509V76.8017C101.69 77.6687 101.003 78.3745 100.159 78.3745ZM96.4819 67.2759C96.0125 67.2759 95.63 67.6687 95.63 68.1509V76.8017C95.63 77.2839 96.0125 77.6767 96.4819 77.6767H100.159C100.628 77.6767 101.01 77.2839 101.01 76.8017V68.1509C101.01 67.6687 100.628 67.2759 100.159 67.2759H96.4819Z" fill="#101010"/>
<path d="M93.4676 90.7055H88.9546C88.3406 90.7055 87.8416 90.193 87.8416 89.5623V80.0524C87.8416 79.4217 88.3406 78.9092 88.9546 78.9092H93.4676C94.0816 78.9092 94.5806 79.4217 94.5806 80.0524V89.5623C94.5806 90.193 94.0816 90.7055 93.4676 90.7055ZM88.9546 79.6069C88.7152 79.6069 88.5209 79.8065 88.5209 80.0524V89.5623C88.5209 89.8082 88.7152 90.0078 88.9546 90.0078H93.4676C93.707 90.0078 93.9013 89.8082 93.9013 89.5623V80.0524C93.9013 79.8065 93.707 79.6069 93.4676 79.6069H88.9546Z" fill="#101010"/>
<path d="M100.128 90.7052H96.5116C95.6503 90.7052 94.9492 89.9851 94.9492 89.1005V80.5119C94.9492 79.6273 95.6503 78.9072 96.5116 78.9072H100.128C100.989 78.9072 101.69 79.6273 101.69 80.5119V89.1005C101.69 89.9851 100.989 90.7052 100.128 90.7052ZM96.5116 79.6066C96.025 79.6066 95.6286 80.0137 95.6286 80.5135V89.1021C95.6286 89.6019 96.025 90.009 96.5116 90.009H100.128C100.614 90.009 101.011 89.6019 101.011 89.1021V80.5135C101.011 80.0137 100.614 79.6066 100.128 79.6066H96.5116Z" fill="#101010"/>
<path d="M12.7679 78.5089H8.87215C8.08864 78.5089 7.44971 77.8542 7.44971 77.0479V68.1719C7.44971 67.3672 8.08708 66.7109 8.87215 66.7109H12.7679C13.5514 66.7109 14.1904 67.3656 14.1904 68.1719V77.0479C14.1904 77.8526 13.553 78.5089 12.7679 78.5089ZM8.87215 67.4103C8.46329 67.4103 8.12906 67.752 8.12906 68.1735V77.0495C8.12906 77.4694 8.46174 77.8127 8.87215 77.8127H12.7679C13.1768 77.8127 13.511 77.471 13.511 77.0495V68.1735C13.511 67.7536 13.1783 67.4103 12.7679 67.4103H8.87215Z" fill="#101010"/>
<path d="M19.7681 78.5092H16.0916C15.2474 78.5092 14.5603 77.8035 14.5603 76.9365V68.2856C14.5603 67.4186 15.2474 66.7129 16.0916 66.7129H19.7681C20.6123 66.7129 21.2994 67.4186 21.2994 68.2856V76.9365C21.2994 77.8035 20.6123 78.5092 19.7681 78.5092ZM16.0916 67.4106C15.6221 67.4106 15.2397 67.8034 15.2397 68.2856V76.9365C15.2397 77.4187 15.6221 77.8115 16.0916 77.8115H19.7681C20.2376 77.8115 20.6201 77.4187 20.6201 76.9365V68.2856C20.6201 67.8034 20.2376 67.4106 19.7681 67.4106H16.0916Z" fill="#101010"/>
<path d="M13.0772 90.8422H8.56425C7.95019 90.8422 7.45117 90.3297 7.45117 89.699V80.1891C7.45117 79.5584 7.95019 79.0459 8.56425 79.0459H13.0772C13.6913 79.0459 14.1903 79.5584 14.1903 80.1891V89.699C14.1903 90.3297 13.6913 90.8422 13.0772 90.8422ZM8.56425 79.7437C8.32485 79.7437 8.13052 79.9432 8.13052 80.1891V89.699C8.13052 89.9449 8.32485 90.1445 8.56425 90.1445H13.0772C13.3166 90.1445 13.5109 89.9449 13.5109 89.699V80.1891C13.5109 79.9432 13.3166 79.7437 13.0772 79.7437H8.56425Z" fill="#101010"/>
<path d="M19.7371 90.8419H16.1212C15.26 90.8419 14.5588 90.1218 14.5588 89.2372V80.6486C14.5588 79.7641 15.26 79.0439 16.1212 79.0439H19.7371C20.5984 79.0439 21.2995 79.7641 21.2995 80.6486V89.2372C21.2995 90.1218 20.5984 90.8419 19.7371 90.8419ZM16.1212 79.7433C15.6346 79.7433 15.2382 80.1505 15.2382 80.6502V89.2388C15.2382 89.7386 15.6346 90.1457 16.1212 90.1457H19.7371C20.2237 90.1457 20.6201 89.7386 20.6201 89.2388V80.6502C20.6201 80.1505 20.2237 79.7433 19.7371 79.7433H16.1212Z" fill="#101010"/>
<path d="M106.835 45.7012H2.30557C1.40391 45.7012 0.77586 44.7799 1.08522 43.9097L9.20323 21.0052C9.39133 20.4751 9.88258 20.1238 10.4313 20.127L98.4967 20.6714C99.0314 20.6746 99.5103 21.0147 99.7015 21.5289L108.046 43.8873C108.373 44.7607 107.745 45.6996 106.834 45.6996L106.835 45.7012Z" fill="white"/>
<path d="M106.836 46.0503H2.30567C1.77089 46.0503 1.26876 45.782 0.962511 45.3318C0.656259 44.8815 0.583193 44.3051 0.765079 43.7909L8.88464 20.8864C9.11938 20.2222 9.73811 19.7783 10.4252 19.7783H10.4346L98.4999 20.3228C99.1808 20.3276 99.7777 20.7507 100.02 21.4038L108.365 43.7622C108.558 44.2795 108.491 44.8607 108.186 45.319C107.88 45.7756 107.375 46.0487 106.836 46.0487V46.0503ZM10.4252 20.4777C10.0226 20.4777 9.66038 20.7379 9.52357 21.1259L1.40401 44.0289C1.29519 44.3354 1.33716 44.6643 1.51905 44.931C1.70094 45.1976 1.98698 45.3509 2.30567 45.3509H106.834C107.156 45.3509 107.443 45.1944 107.625 44.923C107.807 44.6516 107.844 44.3194 107.731 44.0113L99.386 21.6512C99.243 21.2696 98.8947 21.0205 98.4952 21.0189L10.4299 20.4745H10.4237L10.4252 20.4777Z" fill="#101010"/>
<path d="M85.1397 100.664L84.9314 42.5586L54.9156 3.44922L24.0012 42.0125L24.2919 100.664H85.1397Z" fill="white"/>
<path d="M85.1396 101.012H24.2919C24.1053 101.012 23.953 100.857 23.953 100.666L23.6638 42.0145C23.6638 41.9331 23.6902 41.8549 23.7415 41.791L54.6528 3.22615C54.7181 3.14472 54.8222 3.08565 54.9186 3.09842C55.0212 3.09842 55.1176 3.14792 55.1814 3.23094L85.1972 42.3403C85.2438 42.401 85.2702 42.4776 85.2702 42.5542L85.4785 100.661C85.4785 100.754 85.4428 100.843 85.379 100.908C85.3153 100.974 85.2282 101.011 85.1381 101.011L85.1396 101.012ZM24.6292 100.315H84.7976L84.5924 42.6788L54.9093 4.00374L24.3416 42.1359L24.6292 100.315Z" fill="#101010"/>
<path d="M42.3095 81.7895H37.7608C36.9773 81.7895 36.3384 81.1348 36.3384 80.3285V67.8711C36.3384 67.0664 36.9758 66.4102 37.7608 66.4102H42.3095C43.093 66.4102 43.732 67.0648 43.732 67.8711V80.3285C43.732 81.1332 43.0946 81.7895 42.3095 81.7895ZM37.7608 67.1095C37.352 67.1095 37.0177 67.4512 37.0177 67.8727V80.3301C37.0177 80.75 37.3504 81.0933 37.7608 81.0933H42.3095C42.7184 81.0933 43.0526 80.7516 43.0526 80.3301V67.8727C43.0526 67.4528 42.7199 67.1095 42.3095 67.1095H37.7608Z" fill="#101010"/>
<path d="M34.3252 81.7898H29.9941C29.15 81.7898 28.4629 81.0841 28.4629 80.2171V67.9849C28.4629 67.1178 29.15 66.4121 29.9941 66.4121H34.3252C35.1693 66.4121 35.8565 67.1178 35.8565 67.9849V80.2171C35.8565 81.0841 35.1693 81.7898 34.3252 81.7898ZM29.9941 67.1099C29.5247 67.1099 29.1422 67.5026 29.1422 67.9849V80.2171C29.1422 80.6993 29.5247 81.0921 29.9941 81.0921H34.3252C34.7947 81.0921 35.1771 80.6993 35.1771 80.2171V67.9849C35.1771 67.5026 34.7947 67.1099 34.3252 67.1099H29.9941Z" fill="#101010"/>
<path d="M42.6189 98.1H37.4515C36.8374 98.1 36.3384 97.5875 36.3384 96.9568V83.8639C36.3384 83.2332 36.8374 82.7207 37.4515 82.7207H42.6189C43.2329 82.7207 43.732 83.2332 43.732 83.8639V96.9568C43.732 97.5875 43.2329 98.1 42.6189 98.1ZM37.4515 83.42C37.2121 83.42 37.0177 83.6196 37.0177 83.8655V96.9584C37.0177 97.2043 37.2121 97.4039 37.4515 97.4039H42.6189C42.8583 97.4039 43.0526 97.2043 43.0526 96.9584V83.8655C43.0526 83.6196 42.8583 83.42 42.6189 83.42H37.4515Z" fill="#101010"/>
<path d="M34.2941 98.1H30.0252C29.164 98.1 28.4629 97.3799 28.4629 96.4953V84.3254C28.4629 83.4408 29.164 82.7207 30.0252 82.7207H34.2941C35.1554 82.7207 35.8565 83.4408 35.8565 84.3254V96.4953C35.8565 97.3799 35.1554 98.1 34.2941 98.1ZM30.0252 83.42C29.5387 83.42 29.1422 83.8272 29.1422 84.327V96.4969C29.1422 96.9967 29.5387 97.4039 30.0252 97.4039H34.2941C34.7807 97.4039 35.1771 96.9967 35.1771 96.4969V84.327C35.1771 83.8272 34.7807 83.42 34.2941 83.42H30.0252Z" fill="#101010"/>
<path d="M79.257 82.0698H74.7083C73.9248 82.0698 73.2859 81.4151 73.2859 80.6088V68.1514C73.2859 67.3467 73.9233 66.6904 74.7083 66.6904H79.257C80.0405 66.6904 80.6795 67.3451 80.6795 68.1514V80.6088C80.6795 81.4135 80.0421 82.0698 79.257 82.0698ZM74.7083 67.3898C74.2995 67.3898 73.9652 67.7315 73.9652 68.153V80.6104C73.9652 81.0303 74.2979 81.3736 74.7083 81.3736H79.257C79.6659 81.3736 80.0001 81.0319 80.0001 80.6104V68.153C80.0001 67.7331 79.6674 67.3898 79.257 67.3898H74.7083Z" fill="#101010"/>
<path d="M71.2713 82.0698H66.9402C66.0961 82.0698 65.4089 81.364 65.4089 80.497V68.2632C65.4089 67.3962 66.0961 66.6904 66.9402 66.6904H71.2713C72.1154 66.6904 72.8025 67.3962 72.8025 68.2632V80.497C72.8025 81.364 72.1154 82.0698 71.2713 82.0698ZM66.9402 67.3898C66.4707 67.3898 66.0883 67.7826 66.0883 68.2648V80.4986C66.0883 80.9808 66.4707 81.3736 66.9402 81.3736H71.2713C71.7407 81.3736 72.1232 80.9808 72.1232 80.4986V68.2648C72.1232 67.7826 71.7407 67.3898 71.2713 67.3898H66.9402Z" fill="#101010"/>
<path d="M79.5664 98.3803H74.399C73.7849 98.3803 73.2859 97.8678 73.2859 97.2371V84.1442C73.2859 83.5135 73.7849 83.001 74.399 83.001H79.5664C80.1804 83.001 80.6795 83.5135 80.6795 84.1442V97.2371C80.6795 97.8678 80.1804 98.3803 79.5664 98.3803ZM74.399 83.6987C74.1596 83.6987 73.9652 83.8983 73.9652 84.1442V97.2371C73.9652 97.483 74.1596 97.6825 74.399 97.6825H79.5664C79.8058 97.6825 80.0001 97.483 80.0001 97.2371V84.1442C80.0001 83.8983 79.8058 83.6987 79.5664 83.6987H74.399Z" fill="#101010"/>
<path d="M71.2402 98.3803H66.9713C66.1101 98.3803 65.4089 97.6602 65.4089 96.7756V84.6056C65.4089 83.7211 66.1101 83.001 66.9713 83.001H71.2402C72.1014 83.001 72.8025 83.7211 72.8025 84.6056V96.7756C72.8025 97.6602 72.1014 98.3803 71.2402 98.3803ZM66.9713 83.6987C66.4847 83.6987 66.0883 84.1059 66.0883 84.6056V96.7756C66.0883 97.2754 66.4847 97.6825 66.9713 97.6825H71.2402C71.7267 97.6825 72.1232 97.2754 72.1232 96.7756V84.6056C72.1232 84.1059 71.7267 83.6987 71.2402 83.6987H66.9713Z" fill="#101010"/>
<path d="M48.5699 101.117H60.6397C61.7653 101.117 62.6777 100.18 62.6777 99.0239L62.6777 69.0173C62.6777 67.8612 61.7653 66.9241 60.6397 66.9241H48.5699C47.4443 66.9241 46.5319 67.8612 46.5319 69.0173V99.0239C46.5319 100.18 47.4443 101.117 48.5699 101.117Z" fill="#101010"/>
<path d="M48.7144 99.9053H60.4328C61.1832 99.9053 61.7915 99.2805 61.7915 98.5098L61.7915 69.2696C61.7915 68.4989 61.1832 67.8741 60.4328 67.8741H48.7144C47.964 67.8741 47.3557 68.4989 47.3557 69.2696V98.5098C47.3557 99.2805 47.964 99.9053 48.7144 99.9053Z" fill="white"/>
<path d="M60.4329 100.254H48.7144C47.7786 100.254 47.0168 99.472 47.0168 98.5108V69.269C47.0168 68.3078 47.7786 67.5254 48.7144 67.5254H60.4329C61.3687 67.5254 62.1305 68.3078 62.1305 69.269V98.5108C62.1305 99.472 61.3687 100.254 60.4329 100.254ZM48.7144 68.2231C48.1532 68.2231 47.6962 68.6926 47.6962 69.269V98.5108C47.6962 99.0872 48.1532 99.5566 48.7144 99.5566H60.4329C60.9941 99.5566 61.4511 99.0872 61.4511 98.5108V69.269C61.4511 68.6926 60.9941 68.2231 60.4329 68.2231H48.7144Z" fill="#101010"/>
<path d="M64.0612 101.769H45.0782C44.5481 101.769 44.1159 101.326 44.1159 100.78V99.7743C44.1159 99.2298 44.5465 98.7859 45.0782 98.7859H64.0612C64.5913 98.7859 65.0234 99.2282 65.0234 99.7743V100.78C65.0234 101.325 64.5928 101.769 64.0612 101.769Z" fill="white"/>
<path d="M64.0612 102.116H45.0783C44.3601 102.116 43.7771 101.518 43.7771 100.78V99.7739C43.7771 99.0363 44.3616 98.4375 45.0783 98.4375H64.0612C64.7795 98.4375 65.3624 99.0363 65.3624 99.7739V100.78C65.3624 101.516 64.7795 102.116 64.0612 102.116ZM45.0783 99.1353C44.7347 99.1353 44.4564 99.4227 44.4564 99.7739V100.78C44.4564 101.133 44.7363 101.419 45.0783 101.419H64.0612C64.4048 101.419 64.6831 101.133 64.6831 100.78V99.7739C64.6831 99.4211 64.4032 99.1353 64.0612 99.1353H45.0783Z" fill="#101010"/>
<path d="M50.2457 78.3507C50.1338 78.3507 50.025 78.2948 49.9597 78.191C49.8586 78.0282 49.9037 77.8126 50.0607 77.7088L59.4208 71.528C59.5794 71.4242 59.7893 71.4705 59.8903 71.6318C59.9914 71.7947 59.9463 72.0102 59.7893 72.114L50.4292 78.2948C50.3716 78.3331 50.3095 78.3507 50.2457 78.3507Z" fill="#101010"/>
<path d="M49.8648 82.4743C49.7529 82.4743 49.644 82.4184 49.5787 82.3146C49.4777 82.1517 49.5228 81.9362 49.6813 81.8324L58.3885 76.0827C58.5471 75.9789 58.757 76.0252 58.858 76.1865C58.9591 76.3494 58.914 76.5649 58.7554 76.6687L50.0482 82.4184C49.9907 82.4567 49.9285 82.4743 49.8648 82.4743Z" fill="#101010"/>
<path d="M20.662 45.024L54.4555 3.3632C54.7679 2.9768 55.3525 2.98159 55.6603 3.37118L88.5023 45.0336C88.7168 45.305 88.5256 45.7074 88.1836 45.7074H84.7868L55.0617 7.20164L23.5567 45.8463H21.0445C20.6263 45.8463 20.3962 45.3529 20.662 45.024Z" fill="#101010"/>
<path d="M72.63 52.407H36.5125C36.3244 52.407 36.1736 52.2505 36.1736 52.0589V47.9379C36.1736 37.5178 44.4268 29.041 54.572 29.041C64.7172 29.041 72.9705 37.5178 72.9705 47.9379V52.0589C72.9705 52.2521 72.8181 52.407 72.6316 52.407H72.63ZM36.8514 51.7092H72.2896V47.9363C72.2896 37.9011 64.341 29.7372 54.5705 29.7372C44.7999 29.7372 36.8514 37.9011 36.8514 47.9363V51.7092Z" fill="#101010"/>
<path d="M54.5703 49.9758C54.3822 49.9758 54.2314 49.8194 54.2314 49.6278V32.9184C54.2314 32.7252 54.3838 32.5703 54.5703 32.5703C54.7569 32.5703 54.9092 32.7268 54.9092 32.9184V49.6278C54.9092 49.821 54.7569 49.9758 54.5703 49.9758Z" fill="#101010"/>
<path d="M51.3276 49.9793C51.2607 49.9793 51.1923 49.9585 51.1332 49.917L40.4486 42.2673C40.2947 42.1571 40.2574 41.94 40.3647 41.7819C40.4719 41.6238 40.6834 41.5855 40.8373 41.6957L51.5219 49.3454C51.6758 49.4556 51.7131 49.6727 51.6058 49.8308C51.5405 49.9282 51.4348 49.9793 51.3276 49.9793Z" fill="#101010"/>
<path d="M57.8133 49.9789C57.7061 49.9789 57.6004 49.9262 57.5351 49.8304C57.4278 49.6723 57.4651 49.4551 57.619 49.345L68.3036 41.6952C68.4575 41.5851 68.669 41.625 68.7762 41.7815C68.8835 41.9395 68.8462 42.1567 68.6923 42.2668L58.0077 49.9166C57.9486 49.9581 57.8802 49.9789 57.8133 49.9789Z" fill="#101010"/>
<path d="M26.8711 62.3656C26.683 62.3656 26.5322 62.2091 26.5322 62.0175C26.5322 61.8243 26.6846 61.6678 26.8711 61.6678L82.2716 61.5752C82.4597 61.5752 82.6105 61.7317 82.6105 61.9233C82.6105 62.1165 82.4582 62.2729 82.2716 62.2729L26.8711 62.3656Z" fill="#101010"/>
<path d="M26.8711 57.638C26.683 57.638 26.5322 57.4815 26.5322 57.2899C26.5322 57.0967 26.6846 56.9403 26.8711 56.9403L82.2716 56.8477C82.4597 56.8477 82.6105 57.0025 82.6105 57.1957C82.6105 57.3889 82.4582 57.5454 82.2716 57.5454L26.8711 57.638Z" fill="#101010"/>
<path d="M179.155 0.0523779C172.244 0.0523779 166.643 5.78928 166.643 12.8642C166.643 14.6334 167.425 17.1066 168.597 19.8226C171.554 26.6676 176.994 35.0518 178.657 37.5554C178.895 37.9147 179.411 37.9147 179.649 37.5554C181.971 34.0587 191.664 19.0913 191.664 12.8626C191.664 5.78609 186.063 0.0507812 179.155 0.0507812V0.0523779Z" fill="#101010"/>
<path d="M179.155 18.4539C182.178 18.4539 184.628 15.9368 184.628 12.8319C184.628 9.72699 182.178 7.20996 179.155 7.20996C176.132 7.20996 173.681 9.72699 173.681 12.8319C173.681 15.9368 176.132 18.4539 179.155 18.4539Z" fill="white"/>
<path d="M227.998 39.6071C221.088 39.6071 215.487 45.344 215.487 52.4189C215.487 54.188 216.269 56.6613 217.441 59.3773C220.397 66.2223 225.837 74.6065 227.5 77.1101C227.738 77.4694 228.254 77.4694 228.492 77.1101C230.815 73.6134 240.508 58.646 240.508 52.4173C240.508 45.3408 234.906 39.6055 227.998 39.6055V39.6071Z" fill="#101010"/>
<path d="M227.996 58.0085C231.019 58.0085 233.47 55.4915 233.47 52.3866C233.47 49.2817 231.019 46.7646 227.996 46.7646C224.973 46.7646 222.523 49.2817 222.523 52.3866C222.523 55.4915 224.973 58.0085 227.996 58.0085Z" fill="white"/>
<path d="M225.465 79.9584C225.355 79.9584 225.246 79.9026 225.181 79.802C224.425 78.6252 223.654 77.4644 222.889 76.3515C222.781 76.1934 222.818 75.9763 222.972 75.8661C223.124 75.756 223.337 75.7927 223.444 75.9507C224.212 77.07 224.988 78.2372 225.747 79.4188C225.849 79.58 225.807 79.7956 225.65 79.9026C225.593 79.9409 225.528 79.96 225.464 79.96L225.465 79.9584ZM220.767 73.1182C220.665 73.1182 220.562 73.0703 220.495 72.9793C219.671 71.8584 218.827 70.7535 217.989 69.6949C217.871 69.5464 217.893 69.3261 218.039 69.2047C218.185 69.0834 218.398 69.1057 218.516 69.2558C219.361 70.3208 220.209 71.4321 221.038 72.5594C221.151 72.7127 221.122 72.9314 220.971 73.048C220.91 73.0959 220.837 73.1182 220.767 73.1182ZM215.622 66.6277C215.527 66.6277 215.434 66.5878 215.367 66.5095C214.47 65.4621 213.548 64.4274 212.625 63.4327C212.496 63.2938 212.5 63.0718 212.635 62.9393C212.772 62.8068 212.987 62.8116 213.116 62.9505C214.045 63.9516 214.974 64.9943 215.875 66.0481C216 66.1934 215.986 66.4137 215.844 66.5399C215.78 66.5973 215.7 66.6261 215.62 66.6261L215.622 66.6277ZM209.999 60.5714C209.913 60.5714 209.829 60.5395 209.763 60.474C208.793 59.5112 207.79 58.5596 206.782 57.6415C206.643 57.5138 206.629 57.2934 206.753 57.1497C206.877 57.006 207.092 56.9916 207.232 57.1194C208.247 58.0423 209.256 59.0019 210.234 59.9711C210.369 60.1052 210.372 60.3255 210.243 60.4644C210.176 60.5347 210.088 60.5714 209.999 60.5714ZM203.9 55.0213C203.826 55.0213 203.749 54.9958 203.687 54.9431C202.64 54.0697 201.561 53.2091 200.48 52.3868C200.329 52.2718 200.298 52.0531 200.41 51.8982C200.522 51.7433 200.735 51.7114 200.886 51.8264C201.974 52.655 203.061 53.522 204.116 54.4018C204.263 54.5232 204.284 54.7435 204.166 54.892C204.099 54.9766 204.001 55.0213 203.902 55.0213H203.9ZM197.359 50.0349C197.293 50.0349 197.226 50.0157 197.169 49.9742C196.057 49.2014 194.91 48.4382 193.76 47.7101C193.6 47.6095 193.551 47.3939 193.649 47.2295C193.747 47.065 193.957 47.0139 194.117 47.1161C195.275 47.8506 196.431 48.617 197.55 49.3962C197.705 49.5048 197.746 49.7219 197.64 49.88C197.575 49.9806 197.467 50.0333 197.359 50.0333V50.0349ZM190.427 45.6392C190.371 45.6392 190.313 45.6248 190.26 45.5945C189.096 44.9223 187.891 44.2596 186.682 43.6258C186.514 43.5379 186.449 43.3288 186.534 43.1563C186.62 42.9855 186.823 42.9152 186.991 43.0046C188.21 43.6433 189.423 44.3091 190.595 44.9861C190.758 45.0803 190.817 45.2927 190.724 45.4619C190.662 45.5753 190.546 45.6392 190.427 45.6392ZM183.17 41.8359C183.122 41.8359 183.074 41.8263 183.027 41.8039C181.81 41.2259 180.558 40.6607 179.308 40.1242C179.136 40.0492 179.053 39.8448 179.127 39.6676C179.2 39.4887 179.399 39.4057 179.571 39.4807C180.829 40.0204 182.086 40.5888 183.313 41.17C183.482 41.2515 183.557 41.4574 183.479 41.6331C183.422 41.7608 183.299 41.8359 183.17 41.8359Z" fill="#101010"/>
<path d="M275.641 133.004H193.524V228.89H275.641V133.004Z" fill="white"/>
<path d="M275.641 229.237H193.524C193.336 229.237 193.185 229.081 193.185 228.889V133.003C193.185 132.81 193.337 132.655 193.524 132.655H275.641C275.829 132.655 275.98 132.812 275.98 133.003V228.889C275.98 229.083 275.828 229.237 275.641 229.237ZM193.864 228.54H275.302V133.35H193.864V228.54Z" fill="#101010"/>
<path d="M270.099 113.341H157.07L144.736 135.468H282.432L270.099 113.341Z" fill="white"/>
<path d="M282.432 135.817H144.736C144.615 135.817 144.503 135.751 144.442 135.642C144.382 135.535 144.382 135.401 144.442 135.294L156.775 113.166C156.836 113.057 156.947 112.99 157.07 112.99H270.099C270.22 112.99 270.334 113.057 270.394 113.166L282.728 135.294C282.789 135.403 282.788 135.535 282.728 135.642C282.668 135.749 282.556 135.817 282.435 135.817H282.432ZM145.322 135.119H281.845L269.9 113.688H157.266L145.322 135.119Z" fill="#101010"/>
<path d="M208.841 104.086H120.701V228.89H208.841V104.086Z" fill="white"/>
<path d="M208.842 229.237H120.702C120.514 229.237 120.364 229.081 120.364 228.889V104.085C120.364 103.892 120.516 103.737 120.702 103.737H208.842C209.03 103.737 209.181 103.894 209.181 104.085V228.889C209.181 229.082 209.029 229.237 208.842 229.237ZM121.041 228.539H208.503V104.433H121.041V228.539Z" fill="#101010"/>
<path d="M208.544 109.638H120.998L164.772 68.2529L208.544 109.638Z" fill="white"/>
<path d="M164.772 68.2529L207.305 108.466H214.221L164.772 61.7129L115.322 108.466H122.238L164.772 68.2529Z" fill="#101010"/>
<path d="M188.496 118.968H141.046C140.858 118.968 140.707 118.811 140.707 118.62V114.229C140.707 102.084 150.327 92.2041 162.151 92.2041H167.393C179.217 92.2041 188.837 102.084 188.837 114.229V118.62C188.837 118.813 188.684 118.968 188.498 118.968H188.496ZM141.386 118.27H188.157V114.227C188.157 102.468 178.842 92.9003 167.393 92.9003H162.151C150.701 92.9003 141.386 102.468 141.386 114.227V118.27Z" fill="#101010"/>
<path d="M164.772 115.851C164.584 115.851 164.433 115.695 164.433 115.503V97.0854C164.433 96.8922 164.585 96.7373 164.772 96.7373C164.958 96.7373 165.111 96.8938 165.111 97.0854V115.503C165.111 115.696 164.958 115.851 164.772 115.851Z" fill="#101010"/>
<path d="M146.274 113.789C146.187 113.789 146.1 113.755 146.034 113.687C145.902 113.551 145.902 113.329 146.034 113.193L160.061 98.7864C160.193 98.6506 160.41 98.6506 160.542 98.7864C160.674 98.9221 160.674 99.144 160.542 99.2797L146.515 113.687C146.448 113.755 146.361 113.789 146.275 113.789H146.274Z" fill="#101010"/>
<path d="M169.693 111.282C169.606 111.282 169.519 111.248 169.454 111.18C169.322 111.044 169.322 110.822 169.454 110.686L178.724 101.165C178.856 101.03 179.072 101.03 179.204 101.165C179.337 101.301 179.337 101.523 179.204 101.659L169.934 111.18C169.868 111.248 169.781 111.282 169.695 111.282H169.693Z" fill="#101010"/>
<path d="M214.221 218.123H115.322V232.29H214.221V218.123Z" fill="white"/>
<path d="M214.221 232.638H115.322C115.134 232.638 114.983 232.482 114.983 232.29V218.123C114.983 217.929 115.136 217.774 115.322 217.774H214.221C214.409 217.774 214.56 217.931 214.56 218.123V232.29C214.56 232.483 214.408 232.638 214.221 232.638ZM115.661 231.94H213.881V218.471H115.661V231.94Z" fill="#101010"/>
<path d="M133.476 218.469H125.752C125.564 218.469 125.413 218.313 125.413 218.121V159.767C125.413 159.574 125.565 159.419 125.752 159.419H133.476C133.665 159.419 133.815 159.575 133.815 159.767V218.121C133.815 218.314 133.663 218.469 133.476 218.469ZM126.092 217.772H133.138V160.115H126.092V217.772Z" fill="#101010"/>
<path d="M203.79 218.469H196.065C195.877 218.469 195.727 218.313 195.727 218.121V159.767C195.727 159.574 195.879 159.419 196.065 159.419H203.79C203.978 159.419 204.129 159.575 204.129 159.767V218.121C204.129 218.314 203.977 218.469 203.79 218.469ZM196.406 217.772H203.451V160.115H196.406V217.772Z" fill="#101010"/>
<path d="M162.508 218.469H142.37C142.182 218.469 142.031 218.313 142.031 218.121V168.97C142.031 168.777 142.184 168.622 142.37 168.622H162.508C162.696 168.622 162.847 168.779 162.847 168.97V218.121C162.847 218.314 162.695 218.469 162.508 218.469ZM142.709 217.771H162.168V169.318H142.709V217.771Z" fill="#101010"/>
<path d="M187.173 218.469H167.035C166.847 218.469 166.696 218.313 166.696 218.121V168.97C166.696 168.777 166.849 168.622 167.035 168.622H187.173C187.361 168.622 187.512 168.779 187.512 168.97V218.121C187.512 218.314 187.36 218.469 187.173 218.469ZM167.374 217.771H186.833V169.318H167.374V217.771Z" fill="#101010"/>
<path d="M203.79 223.101H125.753C125.565 223.101 125.414 222.945 125.414 222.753C125.414 222.562 125.567 222.405 125.753 222.405H203.79C203.978 222.405 204.129 222.562 204.129 222.753C204.129 222.945 203.976 223.101 203.79 223.101Z" fill="#101010"/>
<path d="M203.79 227.961H125.753C125.565 227.961 125.414 227.804 125.414 227.613C125.414 227.421 125.567 227.265 125.753 227.265H203.79C203.978 227.265 204.129 227.421 204.129 227.613C204.129 227.804 203.976 227.961 203.79 227.961Z" fill="#101010"/>
<path d="M213.298 149.836H116.244L105.654 162.589H223.888L213.298 149.836Z" fill="white"/>
<path d="M223.888 162.936H105.654C105.522 162.936 105.401 162.856 105.346 162.733C105.29 162.61 105.311 162.463 105.396 162.361L115.986 149.608C116.05 149.53 116.144 149.485 116.244 149.485H213.298C213.397 149.485 213.492 149.53 213.556 149.608L224.146 162.361C224.231 162.465 224.251 162.61 224.195 162.733C224.139 162.856 224.02 162.936 223.888 162.936ZM106.389 162.238H223.151L213.141 150.183H116.401L106.391 162.238H106.389Z" fill="#101010"/>
<path d="M188.459 143.016H141.03C140.842 143.016 140.691 142.86 140.691 142.668V122.623C140.691 122.43 140.844 122.275 141.03 122.275H188.459C188.647 122.275 188.798 122.432 188.798 122.623V142.668C188.798 142.862 188.645 143.016 188.459 143.016ZM141.371 142.319H188.12V122.972H141.371V142.319Z" fill="#101010"/>
<path d="M150.421 137.707C150.334 137.707 150.247 137.673 150.182 137.604C150.05 137.469 150.05 137.247 150.182 137.111L161.076 125.923C161.208 125.787 161.425 125.787 161.557 125.923C161.689 126.059 161.689 126.281 161.557 126.416L150.662 137.604C150.595 137.673 150.508 137.707 150.423 137.707H150.421Z" fill="#101010"/>
<path d="M169.855 139.422C169.768 139.422 169.681 139.388 169.616 139.319C169.484 139.184 169.484 138.962 169.616 138.826L174.09 134.231C174.222 134.095 174.438 134.095 174.57 134.231C174.702 134.366 174.702 134.588 174.57 134.724L170.096 139.319C170.029 139.388 169.942 139.422 169.857 139.422H169.855Z" fill="#101010"/>
<path d="M264.481 173.652H229.719C229.531 173.652 229.38 173.496 229.38 173.304V143.159C229.38 142.965 229.532 142.811 229.719 142.811H264.481C264.669 142.811 264.82 142.967 264.82 143.159V173.304C264.82 173.497 264.667 173.652 264.481 173.652ZM230.058 172.954H264.14V143.507H230.058V172.954Z" fill="#101010"/>
<path d="M247.099 170.018C246.911 170.018 246.76 169.862 246.76 169.67V146.153C246.76 145.96 246.912 145.805 247.099 145.805C247.285 145.805 247.438 145.961 247.438 146.153V169.67C247.438 169.864 247.285 170.018 247.099 170.018Z" fill="#101010"/>
<path d="M231.561 170.264C231.474 170.264 231.387 170.231 231.322 170.162C231.189 170.026 231.189 169.804 231.322 169.669L245.126 155.489C245.258 155.353 245.474 155.353 245.607 155.489C245.739 155.624 245.739 155.846 245.607 155.982L231.802 170.162C231.735 170.231 231.648 170.264 231.562 170.264H231.561Z" fill="#101010"/>
<path d="M233.747 156.617C233.66 156.617 233.573 156.583 233.507 156.514C233.375 156.379 233.375 156.157 233.507 156.021L242.94 146.332C243.073 146.197 243.289 146.197 243.421 146.332C243.553 146.468 243.553 146.69 243.421 146.826L233.988 156.514C233.921 156.583 233.834 156.617 233.748 156.617H233.747Z" fill="#101010"/>
<path d="M250.337 165.316C250.25 165.316 250.163 165.282 250.098 165.213C249.966 165.078 249.966 164.856 250.098 164.72L259.212 155.359C259.345 155.223 259.561 155.223 259.693 155.359C259.825 155.494 259.825 155.716 259.693 155.852L250.578 165.213C250.511 165.282 250.424 165.316 250.339 165.316H250.337Z" fill="#101010"/>
<path d="M264.481 218.123H229.719C229.531 218.123 229.38 217.966 229.38 217.775V187.629C229.38 187.436 229.532 187.281 229.719 187.281H264.481C264.669 187.281 264.82 187.438 264.82 187.629V217.775C264.82 217.968 264.667 218.123 264.481 218.123ZM230.058 217.425H264.14V187.977H230.058V217.425Z" fill="#101010"/>
<path d="M247.099 214.489C246.911 214.489 246.76 214.333 246.76 214.141V190.623C246.76 190.43 246.912 190.275 247.099 190.275C247.285 190.275 247.438 190.432 247.438 190.623V214.141C247.438 214.334 247.285 214.489 247.099 214.489Z" fill="#101010"/>
<path d="M231.561 214.737C231.474 214.737 231.387 214.704 231.322 214.635C231.189 214.499 231.189 214.277 231.322 214.142L245.126 199.963C245.258 199.827 245.474 199.827 245.607 199.963C245.739 200.099 245.739 200.321 245.607 200.456L231.802 214.635C231.735 214.704 231.648 214.737 231.562 214.737H231.561Z" fill="#101010"/>
<path d="M233.747 201.089C233.66 201.089 233.573 201.056 233.507 200.987C233.375 200.851 233.375 200.629 233.507 200.494L242.94 190.805C243.073 190.669 243.289 190.669 243.421 190.805C243.553 190.941 243.553 191.163 243.421 191.298L233.988 200.987C233.921 201.056 233.834 201.089 233.748 201.089H233.747Z" fill="#101010"/>
<path d="M250.337 209.788C250.25 209.788 250.163 209.755 250.098 209.686C249.966 209.55 249.966 209.328 250.098 209.193L259.212 199.831C259.345 199.696 259.561 199.696 259.693 199.831C259.825 199.967 259.825 200.189 259.693 200.325L250.578 209.686C250.511 209.755 250.424 209.788 250.339 209.788H250.337Z" fill="#101010"/>
<path d="M208.225 250.477H203.053C200.94 250.477 199.227 255.688 199.227 262.051C199.227 268.414 200.94 273.629 203.053 273.629H208.225C210.338 273.629 212.051 268.417 212.051 262.053C212.051 255.688 210.338 250.477 208.225 250.477Z" fill="#101010"/>
<path d="M192.496 251.328H187.324C185.211 251.328 183.498 256.54 183.498 262.903C183.498 269.265 185.211 274.48 187.324 274.48H192.496C194.609 274.48 196.322 269.269 196.322 262.904C196.322 256.54 194.609 251.328 192.496 251.328Z" fill="#101010"/>
<path d="M137.756 253.511H133.323C131.512 253.511 130.042 257.949 130.042 263.403C130.042 268.857 131.512 273.296 133.323 273.296H137.756C139.567 273.296 141.036 268.857 141.036 263.403C141.036 257.949 139.567 253.51 137.756 253.51V253.511Z" fill="#101010"/>
<path d="M206.954 267.934L206.825 197.32L79.9602 210.297V261.919L206.954 267.934Z" fill="white"/>
<path d="M206.952 268.28C206.952 268.28 206.941 268.28 206.937 268.28L79.943 262.266C79.7611 262.258 79.6196 262.104 79.6196 261.918V210.296C79.6196 210.117 79.7518 209.967 79.9259 209.949L206.792 196.973C206.885 196.965 206.982 196.995 207.053 197.061C207.125 197.126 207.165 197.22 207.165 197.319L207.293 267.933C207.293 268.029 207.255 268.12 207.188 268.185C207.125 268.248 207.041 268.283 206.954 268.283L206.952 268.28ZM80.299 261.583L206.613 267.564L206.487 197.701L80.3005 210.607V261.581L80.299 261.583Z" fill="#101010"/>
<path d="M221.952 249.835H168.476V176.697L221.952 180.1V249.835Z" fill="white"/>
<path d="M221.952 250.183C221.764 250.183 221.613 250.027 221.613 249.835V180.427L168.456 177.045C168.268 177.034 168.126 176.868 168.137 176.676C168.148 176.485 168.316 176.34 168.496 176.349L221.972 179.752C222.151 179.763 222.291 179.916 222.291 180.1V249.835C222.291 250.028 222.139 250.183 221.952 250.183Z" fill="#101010"/>
<path d="M168.476 249.835V176.697L74.4275 183.173V248.095L168.476 249.835Z" fill="#101010"/>
<path d="M168.476 250.036H168.47L74.5689 248.442C74.3839 248.439 74.2346 248.284 74.2346 248.094V183.173C74.2346 182.989 74.373 182.838 74.5517 182.825L168.453 176.349C168.548 176.349 168.64 176.376 168.708 176.441C168.776 176.507 168.815 176.599 168.815 176.697V249.688C168.815 249.782 168.779 249.871 168.714 249.937C168.65 250.001 168.565 250.037 168.476 250.037V250.036ZM74.914 247.749L168.136 249.332V177.067L74.914 183.495V247.748V247.749Z" fill="#101010"/>
<path d="M160.54 253.474H155.416C153.322 253.474 151.625 258.636 151.625 264.941C151.625 271.246 153.322 276.412 155.416 276.412H160.54C162.634 276.412 164.332 271.248 164.332 264.943C164.332 258.637 162.634 253.474 160.54 253.474Z" fill="#101010"/>
<path d="M155.415 276.226C157.509 276.226 159.206 271.115 159.206 264.811C159.206 258.507 157.509 253.396 155.415 253.396C153.321 253.396 151.623 258.507 151.623 264.811C151.623 271.115 153.321 276.226 155.415 276.226Z" fill="white"/>
<path d="M155.416 276.575C153.1 276.575 151.286 271.408 151.286 264.81C151.286 258.213 153.1 253.046 155.416 253.046C157.732 253.046 159.547 258.213 159.547 264.81C159.547 271.408 157.732 276.575 155.416 276.575ZM155.416 253.744C153.75 253.744 151.965 258.19 151.965 264.81C151.965 271.43 153.75 275.877 155.416 275.877C157.083 275.877 158.867 271.43 158.867 264.81C158.867 258.19 157.083 253.744 155.416 253.744Z" fill="#101010"/>
<path d="M160.54 276.757H155.421C152.831 276.757 151.286 270.749 151.286 264.939C151.286 259.128 152.831 253.123 155.416 253.123H160.54C163.125 253.123 164.671 259.131 164.671 264.94C164.671 270.749 163.125 276.757 160.54 276.757ZM155.421 253.819C153.782 253.819 151.963 258.386 151.963 264.937C151.963 271.488 153.782 276.058 155.415 276.058H160.532C162.171 276.058 163.99 271.491 163.99 264.939C163.99 258.386 162.171 253.819 160.538 253.819H155.419H155.421Z" fill="#101010"/>
<path d="M177.017 253.571H171.845C169.732 253.571 168.019 258.783 168.019 265.146C168.019 271.509 169.732 276.723 171.845 276.723H177.017C179.13 276.723 180.843 271.512 180.843 265.147C180.843 258.783 179.13 253.571 177.017 253.571Z" fill="#101010"/>
<path d="M171.845 276.536C173.958 276.536 175.671 271.377 175.671 265.014C175.671 258.651 173.958 253.492 171.845 253.492C169.732 253.492 168.019 258.651 168.019 265.014C168.019 271.377 169.732 276.536 171.845 276.536Z" fill="white"/>
<path d="M171.845 276.886C169.508 276.886 167.679 271.672 167.679 265.015C167.679 258.358 169.508 253.144 171.845 253.144C174.182 253.144 176.011 258.358 176.011 265.015C176.011 271.672 174.182 276.886 171.845 276.886ZM171.845 253.843C170.161 253.843 168.358 258.333 168.358 265.017C168.358 271.7 170.161 276.19 171.845 276.19C173.529 276.19 175.332 271.7 175.332 265.017C175.332 258.333 173.529 253.843 171.845 253.843Z" fill="#101010"/>
<path d="M177.017 277.076H171.85C169.238 277.076 167.68 271.011 167.68 265.15C167.68 259.289 169.238 253.228 171.846 253.228H177.019C179.627 253.228 181.185 259.29 181.185 265.152C181.185 271.013 179.627 277.076 177.019 277.076H177.017ZM171.851 253.924C170.197 253.924 168.36 258.533 168.36 265.148C168.36 271.764 170.197 276.376 171.846 276.376H177.012C178.668 276.376 180.505 271.765 180.505 265.148C180.505 258.532 178.668 253.922 177.019 253.922H171.853L171.851 253.924Z" fill="#101010"/>
<path d="M94.5481 253.899H90.2793C88.535 253.899 87.1204 258.371 87.1204 263.96C87.1204 269.548 88.535 274.022 90.2793 274.022H94.5481C96.2924 274.022 97.707 269.548 97.707 263.96C97.707 258.371 96.2924 253.897 94.5481 253.897V253.899Z" fill="#101010"/>
<path d="M90.2793 273.903C92.0239 273.903 93.4382 269.374 93.4382 263.787C93.4382 258.199 92.0239 253.67 90.2793 253.67C88.5347 253.67 87.1204 258.199 87.1204 263.787C87.1204 269.374 88.5347 273.903 90.2793 273.903Z" fill="white"/>
<path d="M91.5541 274.37H90.2824C88.0065 274.37 86.7815 269.005 86.7815 263.958C86.7815 258.911 88.0081 253.549 90.2793 253.549H91.5541C91.7422 253.549 91.8929 253.705 91.8929 253.897C91.8929 254.089 91.7406 254.245 91.5541 254.245H90.284C88.947 254.245 87.4608 258.234 87.4608 263.956C87.4608 269.679 88.947 273.67 90.2793 273.67H91.5541C91.7422 273.67 91.8929 273.827 91.8929 274.018C91.8929 274.21 91.7406 274.366 91.5541 274.366V274.37Z" fill="#101010"/>
<path d="M102.634 254.021H98.365C96.6207 254.021 95.2061 258.493 95.2061 264.082C95.2061 269.67 96.6207 274.144 98.365 274.144H102.634C104.378 274.144 105.793 269.67 105.793 264.082C105.793 258.493 104.378 254.02 102.634 254.02V254.021Z" fill="#101010"/>
<path d="M98.365 274.025C100.11 274.025 101.524 269.496 101.524 263.909C101.524 258.321 100.11 253.792 98.365 253.792C96.6203 253.792 95.2061 258.321 95.2061 263.909C95.2061 269.496 96.6203 274.025 98.365 274.025Z" fill="white"/>
<path d="M99.9521 274.492H98.3679C96.092 274.492 94.8655 269.127 94.8655 264.08C94.8655 259.033 96.092 253.671 98.3633 253.671H99.9505C100.139 253.671 100.289 253.827 100.289 254.019C100.289 254.211 100.137 254.367 99.9505 254.367H98.3679C97.031 254.367 95.5448 258.356 95.5448 264.078C95.5448 269.801 97.031 273.792 98.3633 273.792H99.9505C100.139 273.792 100.289 273.949 100.289 274.14C100.289 274.332 100.137 274.489 99.9505 274.489L99.9521 274.492Z" fill="#101010"/>
<path d="M111.072 253.544H106.64C104.829 253.544 103.36 258.326 103.36 264.205C103.36 270.084 104.829 274.869 106.64 274.869H111.072C112.883 274.869 114.352 270.086 114.352 264.207C114.352 258.328 112.883 253.544 111.072 253.544Z" fill="#101010"/>
<path d="M106.638 274.676C108.45 274.676 109.918 269.91 109.918 264.032C109.918 258.154 108.45 253.389 106.638 253.389C104.827 253.389 103.358 258.154 103.358 264.032C103.358 269.91 104.827 274.676 106.638 274.676Z" fill="white"/>
<path d="M111.072 275.217H106.643C104.288 275.217 103.021 269.542 103.021 264.205C103.021 258.867 104.289 253.195 106.64 253.195H111.073C113.424 253.195 114.693 258.868 114.693 264.206C114.693 269.544 113.424 275.217 111.073 275.217H111.072ZM106.643 253.891C105.247 253.891 103.699 258.126 103.699 264.203C103.699 270.28 105.248 274.518 106.638 274.518H111.066C112.462 274.518 114.012 270.282 114.012 264.205C114.012 258.128 112.462 253.891 111.072 253.891H106.643Z" fill="#101010"/>
<path d="M205.009 243.337L208.182 246.26L209.326 268.092H227.235V243.396L205.009 243.337Z" fill="white"/>
<path d="M227.235 268.439H209.326C209.146 268.439 208.996 268.294 208.987 268.109L207.851 246.422L204.783 243.595C204.679 243.497 204.644 243.346 204.693 243.21C204.743 243.076 204.871 242.986 205.01 242.986L227.236 243.045C227.423 243.045 227.575 243.202 227.575 243.393V268.089C227.575 268.283 227.423 268.438 227.236 268.438L227.235 268.439ZM209.648 267.741H226.896V243.743L205.9 243.687L208.409 246.001C208.476 246.063 208.516 246.149 208.521 246.242L209.648 267.743V267.741Z" fill="#101010"/>
<path d="M225.993 249.278H219.308C216.577 249.278 214.363 255.964 214.363 264.188C214.363 272.413 216.577 279.101 219.308 279.101H225.993C228.724 279.101 230.938 272.413 230.938 264.19C230.938 255.967 228.724 249.278 225.993 249.278Z" fill="#101010"/>
<path d="M219.308 278.865C222.039 278.865 224.253 272.199 224.253 263.975C224.253 255.751 222.039 249.084 219.308 249.084C216.577 249.084 214.363 255.751 214.363 263.975C214.363 272.199 216.577 278.865 219.308 278.865Z" fill="white"/>
<path d="M219.308 279.214C216.345 279.214 214.024 272.519 214.024 263.974C214.024 255.428 216.345 248.733 219.308 248.733C222.271 248.733 224.592 255.428 224.592 263.974C224.592 272.519 222.271 279.214 219.308 279.214ZM219.308 249.433C217.083 249.433 214.703 255.277 214.703 263.975C214.703 272.674 217.085 278.518 219.308 278.518C221.531 278.518 223.914 272.674 223.914 263.975C223.914 255.277 221.533 249.433 219.308 249.433Z" fill="#101010"/>
<path d="M253.378 212.086H254.085C254.92 212.086 255.596 212.782 255.596 213.638V221.324C255.596 222.013 255.052 222.573 254.381 222.573H253.17C252.646 222.573 252.221 222.137 252.221 221.599V213.274C252.221 212.619 252.739 212.086 253.378 212.086Z" fill="#101010"/>
<path d="M268.426 247.1H261.742C259.01 247.1 256.797 253.785 256.797 262.01C256.797 270.234 259.01 276.923 261.742 276.923H268.426C271.158 276.923 273.372 270.234 273.372 262.011C273.372 253.788 271.158 247.1 268.426 247.1Z" fill="#101010"/>
<path d="M172.685 249.812L206.822 250.338L206.952 267.93H209.6C209.551 265.64 209.516 263.451 209.516 261.893C209.516 252.512 213.792 244.907 219.069 244.907C222.513 244.907 225.532 248.152 227.213 253.014C233.87 253.35 244.066 253.183 253.93 252.859C268.841 252.368 282.993 251.524 282.993 251.524C283.181 243.354 275.243 239.981 275.243 239.981C275.243 239.981 274.474 233.317 273.347 232.159C272.22 231.002 254.241 224.45 254.241 224.45L246 203.008C245.142 200.894 243.943 198.938 242.425 197.251C238.708 193.12 231.556 188.047 218.615 187.42C216.631 187.324 191.922 185.292 179.579 184.715C176.084 184.552 173.348 184.908 172.685 184.966V249.812Z" fill="white"/>
<path d="M278.879 250.161C278.399 250.161 277.939 249.963 277.601 249.607C277.239 249.224 277.057 248.7 277.102 248.167L277.227 246.735C277.34 245.413 277.984 244.177 278.991 243.345L279.525 242.904C279.661 242.791 279.859 242.804 279.982 242.933C281.779 244.846 282.865 247.059 283.212 249.512C283.226 249.607 283.2 249.706 283.139 249.781C283.078 249.856 282.991 249.903 282.896 249.909L278.99 250.158C278.952 250.16 278.915 250.161 278.879 250.161ZM279.706 243.65L279.417 243.89C278.553 244.603 278.003 245.664 277.905 246.799L277.78 248.231C277.752 248.56 277.864 248.886 278.09 249.122C278.315 249.358 278.618 249.483 278.949 249.462L282.481 249.237C282.118 247.177 281.186 245.301 279.706 243.65Z" fill="#101010"/>
<path d="M245.751 233.176L215.844 224.449L209.028 202.143C208.174 199.349 206.758 196.76 204.822 194.61C200.375 189.666 191.008 183.374 172.685 184.964V249.81L205.393 250.184L205.663 268.092H209.598C209.55 265.803 209.516 263.451 209.516 261.892C209.516 252.512 213.792 244.907 219.069 244.907C222.513 244.907 225.532 248.151 227.213 253.013C233.87 253.35 244.066 253.183 253.93 252.858C254.889 252.826 256.797 252.759 256.797 252.759L250.317 237.294C249.476 235.285 247.799 233.772 245.75 233.174L245.751 233.176Z" fill="white"/>
<path d="M247.368 234.231C247.31 234.231 247.251 234.217 247.199 234.185C246.715 233.897 246.197 233.671 245.66 233.514L215.753 224.787C215.642 224.755 215.555 224.668 215.521 224.555L208.704 202.249C207.854 199.465 206.425 196.905 204.574 194.849C202.092 192.093 198.948 189.867 195.226 188.235C195.053 188.16 194.972 187.954 195.047 187.777C195.12 187.6 195.322 187.518 195.493 187.593C199.304 189.263 202.528 191.545 205.073 194.374C206.991 196.506 208.471 199.157 209.352 202.04L216.113 224.167L245.845 232.842C246.437 233.014 247.007 233.263 247.539 233.58C247.701 233.677 247.757 233.889 247.662 234.057C247.598 234.169 247.485 234.231 247.368 234.231Z" fill="#101010"/>
<path d="M209.599 268.443C209.599 268.443 209.592 268.443 209.587 268.443L205.222 268.28C205.04 268.273 204.895 268.12 204.894 267.933L204.763 250.341C204.763 250.277 204.779 250.215 204.81 250.161C207.35 245.739 215.53 236.913 223.807 235.546C235.077 233.684 246.575 239.559 257.058 252.538C257.14 252.64 257.159 252.782 257.106 252.904C257.053 253.025 256.938 253.105 256.807 253.11C255.858 253.143 254.901 253.177 253.941 253.209C241.95 253.603 232.951 253.654 227.194 253.364C227.056 253.357 226.936 253.265 226.891 253.132C225.187 248.201 222.263 245.257 219.067 245.257C213.986 245.257 209.854 252.72 209.854 261.893C209.854 263.357 209.886 265.672 209.935 268.085C209.937 268.181 209.901 268.273 209.834 268.341C209.77 268.404 209.685 268.441 209.596 268.441L209.599 268.443ZM205.572 267.595L209.251 267.732C209.205 265.449 209.177 263.289 209.177 261.895C209.177 252.337 213.615 244.561 219.068 244.561C222.515 244.561 225.638 247.59 227.455 252.679C233.203 252.956 242.104 252.901 253.919 252.513C254.645 252.489 255.369 252.463 256.089 252.438C245.756 239.865 234.931 234.414 223.914 236.236C216.011 237.542 207.907 246.214 205.443 250.434L205.57 267.595H205.572Z" fill="#101010"/>
<path d="M210.506 225.397H198.147C197.959 225.397 197.808 225.24 197.808 225.049V209.609C197.808 209.416 197.96 209.261 198.147 209.261H207.206C208.067 209.261 208.825 209.856 209.051 210.709C209.783 213.478 211.502 220.326 212.208 223.142C212.345 223.687 212.23 224.254 211.896 224.698C211.56 225.141 211.053 225.397 210.506 225.397ZM198.487 224.699H210.506C210.843 224.699 211.154 224.543 211.359 224.27C211.565 223.997 211.635 223.649 211.551 223.315C210.846 220.5 209.127 213.653 208.395 210.889C208.25 210.339 207.761 209.955 207.206 209.955H198.486V224.699H198.487Z" fill="#101010"/>
<path d="M275.212 242.619C275.355 240.764 275.243 238.895 274.87 237.074C274.46 235.079 273.813 232.868 273.076 232.161C272.565 231.669 272.246 231.495 270.98 230.938H253.45C252.117 230.938 250.867 231.595 250.089 232.705C249.033 234.208 248.716 236.128 249.227 237.904L251.139 244.536C251.474 245.697 252.514 246.494 253.692 246.494H272.164C273.715 246.494 275.005 245.269 275.128 243.681L275.211 242.617L275.212 242.619Z" fill="white"/>
<path d="M272.165 246.843H253.694C252.374 246.843 251.189 245.935 250.815 244.635L248.902 238.002C248.365 236.136 248.705 234.079 249.813 232.5C250.654 231.303 252.013 230.589 253.45 230.589H270.981C271.026 230.589 271.072 230.598 271.114 230.618C272.369 231.168 272.748 231.368 273.308 231.906C274.226 232.789 274.889 235.478 275.201 237.001C275.579 238.844 275.697 240.742 275.549 242.645L275.467 243.709C275.332 245.467 273.88 246.843 272.164 246.843H272.165ZM253.45 231.287C252.231 231.287 251.077 231.893 250.364 232.909C249.377 234.314 249.073 236.144 249.554 237.804L251.466 244.437C251.755 245.443 252.672 246.145 253.694 246.145H272.165C273.53 246.145 274.684 245.052 274.791 243.653L274.873 242.59C275.015 240.753 274.901 238.922 274.537 237.145C274.04 234.724 273.407 232.955 272.844 232.414C272.389 231.975 272.129 231.822 270.912 231.285H253.45V231.287Z" fill="#101010"/>
<path d="M198.265 208.612H200.047C201.194 208.612 202.125 209.569 202.125 210.747V217.383C202.125 218.33 201.376 219.099 200.454 219.099H197.979C197.259 219.099 196.675 218.499 196.675 217.76V210.244C196.675 209.344 197.387 208.612 198.264 208.612H198.265Z" fill="#101010"/>
<path d="M198.265 220.095H200.047C201.194 220.095 202.125 221.051 202.125 222.23V223.992C202.125 224.939 201.376 225.709 200.454 225.709H197.979C197.259 225.709 196.675 225.108 196.675 224.369V221.728C196.675 220.828 197.387 220.096 198.264 220.096L198.265 220.095Z" fill="#101010"/>
<path d="M234.838 270.176L277.486 268.121C279.783 268.011 281.65 266.181 281.866 263.829L282.993 251.521L227.213 253.013L229.913 266.261C230.397 268.63 232.483 270.289 234.838 270.176Z" fill="white"/>
<path d="M234.606 270.53C232.175 270.53 230.084 268.799 229.58 266.33L226.88 253.082C226.86 252.982 226.883 252.877 226.945 252.795C227.008 252.714 227.102 252.666 227.203 252.663L282.983 251.173C283.081 251.173 283.175 251.21 283.24 251.283C283.307 251.356 283.339 251.454 283.33 251.554L282.201 263.862C281.971 266.37 279.95 268.35 277.5 268.468L234.852 270.523C234.77 270.528 234.687 270.53 234.605 270.53H234.606ZM227.629 253.349L230.246 266.187C230.697 268.401 232.623 269.928 234.822 269.825L277.471 267.77C279.585 267.668 281.329 265.96 281.528 263.795L282.62 251.879L227.629 253.348V253.349Z" fill="#101010"/>
<path d="M234.606 270.531C232.175 270.531 230.084 268.8 229.581 266.331L226.88 253.084C226.841 252.895 226.959 252.71 227.143 252.67C227.328 252.63 227.507 252.751 227.546 252.94L230.246 266.188C230.697 268.402 232.623 269.929 234.823 269.826L277.471 267.771C279.585 267.669 281.329 265.961 281.528 263.796L282.657 251.488C282.674 251.297 282.837 251.16 283.027 251.174C283.213 251.193 283.35 251.362 283.333 251.554L282.205 263.861C281.974 266.37 279.954 268.349 277.503 268.468L234.855 270.523C234.773 270.527 234.69 270.529 234.608 270.529L234.606 270.531Z" fill="#101010"/>
<path d="M214.091 208.558L217.705 221.202C218.002 222.242 218.916 222.966 219.97 222.998L249.07 223.873C250.148 223.905 250.898 222.784 250.482 221.763L245.904 209.225C245.524 208.186 244.567 207.488 243.486 207.464L215.418 206.832C214.513 206.784 213.834 207.667 214.089 208.56L214.091 208.558Z" fill="#101010"/>
<path d="M249.422 250.972H237.344C235.336 250.972 233.7 249.294 233.7 247.229V247.166C233.7 245.261 235.208 243.712 237.063 243.712H238.226C240.716 243.712 243.14 244.442 245.235 245.823L249.995 248.959C250.403 249.227 250.578 249.709 250.441 250.186C250.306 250.664 249.905 250.972 249.42 250.972H249.422ZM237.063 244.41C235.583 244.41 234.38 245.646 234.38 247.166V247.229C234.38 248.908 235.71 250.274 237.344 250.274H249.422C249.689 250.274 249.771 250.057 249.79 249.99C249.809 249.923 249.854 249.695 249.628 249.546L244.868 246.41C242.882 245.101 240.585 244.41 238.226 244.41H237.063Z" fill="#101010"/>
<path d="M209.601 268.279H205.234C205.048 268.279 204.895 268.124 204.895 267.933L204.768 250.682L172.681 250.161C172.496 250.158 172.347 250.003 172.347 249.813V184.967C172.347 184.785 172.482 184.635 172.658 184.619C172.74 184.612 172.854 184.6 172.999 184.585C174.051 184.477 176.517 184.224 179.598 184.367C188.499 184.782 204.067 185.973 212.43 186.612C215.712 186.862 218.084 187.044 218.635 187.071C231.681 187.705 238.911 192.827 242.678 197.014C244.2 198.705 245.425 200.677 246.317 202.874L254.504 224.175C256.898 225.057 272.226 230.738 273.325 231.918C275.117 233.843 275.507 238.659 275.574 239.751C276.821 240.354 283.51 243.955 283.336 251.533C283.332 251.715 283.193 251.862 283.016 251.873C282.875 251.881 268.692 252.724 253.945 253.209C241.955 253.604 232.956 253.657 227.199 253.364C227.061 253.358 226.941 253.265 226.896 253.133C225.192 248.202 222.268 245.258 219.072 245.258C213.991 245.258 209.859 252.721 209.859 261.894C209.859 263.275 209.887 265.304 209.943 267.923C209.945 268.017 209.91 268.107 209.847 268.174C209.783 268.241 209.694 268.279 209.604 268.279H209.601ZM205.572 267.581H209.254C209.203 265.129 209.178 263.216 209.178 261.894C209.178 252.336 213.617 244.56 219.07 244.56C222.517 244.56 225.64 247.589 227.457 252.678C233.204 252.956 242.106 252.9 253.921 252.512C267.438 252.068 280.479 251.322 282.657 251.194C282.624 243.594 275.19 240.335 275.114 240.303C274.993 240.252 274.911 240.131 274.904 239.997C274.903 239.941 274.64 234.343 272.83 232.401C272.063 231.576 261.224 227.391 254.126 224.779C254.034 224.745 253.961 224.672 253.924 224.579L245.683 203.137C244.825 201.023 243.643 199.12 242.174 197.488C238.493 193.397 231.415 188.39 218.597 187.769C218.039 187.742 215.785 187.57 212.374 187.309C204.015 186.671 188.454 185.479 179.562 185.066C176.531 184.924 174.099 185.174 173.062 185.281C173.048 185.281 173.036 185.285 173.022 185.286V249.472L205.107 249.992C205.292 249.995 205.439 250.149 205.441 250.339L205.569 267.584L205.572 267.581Z" fill="#101010"/>
<path d="M189.374 244.41H179.45C179.262 244.41 179.111 244.253 179.111 244.062V232.624C179.111 232.431 179.263 232.276 179.45 232.276H189.374C189.563 232.276 189.713 232.433 189.713 232.624V244.062C189.713 244.255 189.561 244.41 189.374 244.41ZM179.789 243.712H189.034V232.973H179.789V243.712Z" fill="#101010"/>
<path d="M85.7683 249.071L107.324 252.941L128.675 249.1C128.712 249.093 128.712 249.039 128.675 249.033L107.08 245.149L85.7683 249.071Z" fill="white"/>
<path d="M107.324 253.289C107.304 253.289 107.285 253.287 107.265 253.284L85.7091 249.414C85.5459 249.385 85.4277 249.24 85.4277 249.07C85.4277 248.901 85.5459 248.756 85.7076 248.727L107.019 244.806C107.058 244.799 107.099 244.799 107.137 244.806L128.732 248.689C128.911 248.722 129.04 248.88 129.04 249.066C129.04 249.251 128.911 249.409 128.734 249.442L107.381 253.284C107.361 253.287 107.343 253.289 107.322 253.289H107.324ZM87.7161 249.066L107.324 252.586L126.893 249.066L107.08 245.502L87.7161 249.066Z" fill="#101010"/>
<path d="M107.321 285.749V252.913L85.6794 249.061V281.807L107.321 285.749Z" fill="white"/>
<path d="M107.321 286.097C107.301 286.097 107.282 286.096 107.262 286.092L85.6204 282.15C85.4587 282.121 85.3406 281.976 85.3406 281.807V249.06C85.3406 248.958 85.3841 248.859 85.4618 248.794C85.538 248.727 85.6406 248.7 85.7385 248.717L107.38 252.57C107.543 252.599 107.661 252.744 107.661 252.913V285.749C107.661 285.853 107.616 285.95 107.54 286.016C107.478 286.068 107.402 286.097 107.322 286.097H107.321ZM86.0199 281.515L106.982 285.332V253.207L86.0199 249.476V281.515Z" fill="#101010"/>
<path d="M107.321 285.75V252.914L128.774 249.057V281.827L107.321 285.75Z" fill="white"/>
<path d="M107.321 286.097C107.242 286.097 107.164 286.069 107.103 286.016C107.027 285.949 106.982 285.852 106.982 285.749V252.913C106.982 252.744 107.1 252.599 107.263 252.57L128.716 248.712C128.816 248.697 128.917 248.724 128.993 248.789C129.069 248.856 129.114 248.954 129.114 249.056V281.826C129.114 281.995 128.996 282.139 128.835 282.17L107.381 286.093C107.361 286.096 107.343 286.097 107.322 286.097H107.321ZM107.66 253.206V285.333L128.434 281.534V249.471L107.66 253.206Z" fill="#101010"/>
<path d="M84.4185 223.497L100.665 226.414L116.73 223.523C116.763 223.516 116.763 223.468 116.73 223.462L100.48 220.54L84.417 223.495L84.4185 223.497Z" fill="white"/>
<path d="M100.665 226.762C100.645 226.762 100.627 226.761 100.606 226.757L84.3595 223.84C84.1963 223.811 84.0781 223.666 84.0781 223.497C84.0781 223.328 84.1963 223.182 84.3579 223.154L100.42 220.198C100.459 220.192 100.499 220.192 100.538 220.198L116.788 223.12C116.964 223.15 117.093 223.309 117.093 223.492C117.093 223.676 116.965 223.834 116.79 223.867L100.721 226.759C100.701 226.762 100.683 226.764 100.662 226.764L100.665 226.762ZM86.3665 223.492L100.665 226.06L114.93 223.494L100.482 220.896L86.368 223.494L86.3665 223.492ZM116.671 223.805C116.671 223.805 116.671 223.805 116.673 223.805H116.671Z" fill="#101010"/>
<path d="M100.662 251.14V226.391L84.3518 223.488V248.168L100.662 251.14Z" fill="white"/>
<path d="M94.3137 228.865C94.2935 228.865 94.2748 228.864 94.2546 228.861L90.1319 228.11C89.9702 228.081 89.8521 227.936 89.8521 227.767V224.593C89.8521 224.49 89.8956 224.391 89.9733 224.326C90.0495 224.259 90.1521 224.232 90.25 224.249L94.3728 224.984C94.536 225.013 94.6541 225.158 94.6541 225.327V228.519C94.6541 228.623 94.6091 228.72 94.5329 228.786C94.4707 228.838 94.3945 228.867 94.3152 228.867L94.3137 228.865ZM90.5314 227.473L93.9748 228.101V225.618L90.5314 225.005V227.473Z" fill="#101010"/>
<path d="M100.662 251.488C100.642 251.488 100.624 251.486 100.603 251.483L84.2928 248.511C84.1311 248.483 84.0129 248.337 84.0129 248.168V223.488C84.0129 223.386 84.0565 223.287 84.1342 223.221C84.2104 223.154 84.313 223.127 84.4109 223.145L100.722 226.048C100.885 226.076 101.003 226.222 101.003 226.391V251.14C101.003 251.243 100.958 251.341 100.882 251.406C100.819 251.459 100.743 251.488 100.664 251.488H100.662ZM84.6907 247.876L100.322 250.723V226.685L84.6907 223.902V247.876Z" fill="#101010"/>
<path d="M100.662 251.141V226.392L116.832 223.484V248.184L100.662 251.141Z" fill="white"/>
<path d="M100.662 251.488C100.583 251.488 100.505 251.459 100.445 251.406C100.369 251.339 100.323 251.242 100.323 251.14V226.391C100.323 226.222 100.442 226.077 100.605 226.048L116.774 223.14C116.874 223.124 116.975 223.151 117.051 223.217C117.127 223.284 117.172 223.381 117.172 223.484V248.183C117.172 248.352 117.054 248.496 116.892 248.526L100.723 251.483C100.703 251.486 100.684 251.488 100.664 251.488H100.662ZM101.001 226.683V250.723L116.491 247.891V223.9L101.001 226.685V226.683Z" fill="#101010"/>
<path d="M51.0061 246.657L77.5692 251.426L103.919 246.684C103.957 246.678 103.957 246.622 103.919 246.616L77.2676 241.822L51.0061 246.655V246.657Z" fill="white"/>
<path d="M77.5691 251.774C77.5489 251.774 77.5302 251.773 77.51 251.769L50.9469 247C50.7837 246.971 50.6655 246.826 50.6655 246.657C50.6655 246.488 50.7837 246.342 50.9454 246.314L77.2069 241.48C77.2457 241.474 77.2861 241.474 77.325 241.48L103.977 246.274C104.155 246.307 104.285 246.465 104.285 246.652C104.285 246.839 104.155 246.997 103.978 247.029L77.6266 251.771C77.6064 251.774 77.5877 251.776 77.5675 251.776L77.5691 251.774ZM52.9539 246.652L77.5691 251.072L102.141 246.65L77.2675 242.178L52.9539 246.654V246.652Z" fill="#101010"/>
<path d="M77.5645 291.846V251.385L50.8972 246.638V286.989L77.5645 291.846Z" fill="white"/>
<path d="M67.1348 254.338C67.1146 254.338 67.096 254.337 67.0758 254.333L61.2679 253.276C61.1062 253.248 60.988 253.102 60.988 252.933V248.461C60.988 248.359 61.0316 248.26 61.1093 248.194C61.1855 248.127 61.2881 248.1 61.386 248.118L67.1939 249.151C67.3571 249.179 67.4753 249.325 67.4753 249.494V253.99C67.4753 254.094 67.4302 254.191 67.354 254.257C67.2919 254.309 67.2157 254.338 67.1364 254.338H67.1348ZM61.6674 252.639L66.7959 253.573V249.786L61.6674 248.873V252.639Z" fill="#101010"/>
<path d="M77.5645 292.196C77.5443 292.196 77.5256 292.194 77.5054 292.191L50.8382 287.332C50.6765 287.304 50.5583 287.158 50.5583 286.989V246.638C50.5583 246.535 50.6019 246.436 50.6796 246.371C50.7558 246.304 50.8584 246.277 50.9563 246.294L77.6236 251.041C77.7868 251.07 77.9049 251.215 77.9049 251.385V291.848C77.9049 291.952 77.8599 292.049 77.7837 292.114C77.7215 292.167 77.6453 292.196 77.566 292.196H77.5645ZM51.2361 286.697L77.224 291.431V251.678L51.2361 247.053V286.697Z" fill="#101010"/>
<path d="M77.5645 291.849V251.387L104.002 246.634V287.016L77.5645 291.849Z" fill="white"/>
<path d="M77.5645 292.198C77.4852 292.198 77.4075 292.169 77.3468 292.116C77.2707 292.049 77.2256 291.952 77.2256 291.85V251.386C77.2256 251.217 77.3437 251.072 77.507 251.043L103.943 246.29C104.042 246.274 104.143 246.301 104.219 246.366C104.295 246.433 104.341 246.531 104.341 246.633V287.015C104.341 287.184 104.222 287.328 104.061 287.358L77.6236 292.193C77.6033 292.196 77.5847 292.198 77.5645 292.198ZM77.9034 251.678V291.433L103.66 286.723V247.048L77.9034 251.678Z" fill="#101010"/>
</svg>
