<svg width="294" height="293" viewBox="0 0 294 293" fill="none" xmlns="http://www.w3.org/2000/svg">
<g clip-path="url(#clip0_34_738)">
<path d="M71.4674 78.8061L70.7411 74.8073L66.3177 74.622C65.9848 73.7258 65.5818 72.8694 65.1135 72.0595L67.772 68.516L65.1486 65.4166L61.2254 67.4743C60.4974 66.8752 59.7217 66.3369 58.9062 65.8656L59.443 61.4578L55.6265 60.0886L53.2579 63.8334C52.3372 63.68 51.3959 63.605 50.4433 63.6082L48.7103 59.5215L44.7234 60.25L44.5386 64.6865C43.645 65.0204 42.7912 65.4246 41.9837 65.8943L38.4507 63.2279L35.3606 65.8592L37.4122 69.7941C36.8148 70.5242 36.2764 71.3022 35.8081 72.1202L31.4135 71.5818L30.0484 75.4096L33.782 77.7853C33.6291 78.7087 33.5543 79.6529 33.5574 80.6082L29.4829 82.3464L30.2093 86.3452L34.6326 86.5305C34.9655 87.4268 35.3685 88.2831 35.8368 89.0931L33.1783 92.6366L35.8018 95.7359L39.725 93.6782C40.4529 94.2789 41.2286 94.8157 42.0442 95.287L41.5074 99.6948L45.3239 101.064L47.6925 97.3191C48.6131 97.4725 49.5545 97.5476 50.507 97.546L52.2401 101.633L56.227 100.904L56.4118 96.4676C57.3054 96.1337 58.1591 95.7295 58.9667 95.2598L62.4997 97.9262L65.5898 95.295L63.5382 91.3601C64.1371 90.63 64.6723 89.8519 65.1422 89.034L69.5369 89.5724L70.902 85.7445L67.1683 83.3689C67.3212 82.4455 67.3961 81.5013 67.3945 80.5459L71.469 78.8077L71.4674 78.8061ZM52.3452 90.8712C46.6762 91.9065 41.243 88.1377 40.2108 82.4503C39.1786 76.7644 42.9362 71.315 48.6068 70.2781C54.2757 69.2429 59.709 73.0116 60.7427 78.6991C61.7749 84.385 58.0174 89.8344 52.3468 90.8712H52.3452Z" fill="#101010"/>
<path d="M140.725 44.8067L139.482 37.9626L131.913 37.6462C131.343 36.1126 130.655 34.6476 129.854 33.2624L134.403 27.1995L129.914 21.8955L123.2 25.4182C121.956 24.391 120.628 23.4707 119.231 22.6639L120.15 15.1201L113.619 12.778L109.567 19.186C107.992 18.9224 106.381 18.7946 104.75 18.7993L101.786 11.8066L94.9621 13.0528L94.6467 20.6446C93.1191 21.2165 91.6569 21.9067 90.2759 22.7103L84.231 18.1475L78.9427 22.6496L82.4549 29.3835C81.4307 30.6312 80.5132 31.9636 79.7089 33.3647L72.1874 32.4429L69.8522 38.993L76.2412 43.0573C75.9784 44.6374 75.851 46.2525 75.8557 47.8885L68.8838 50.8616L70.1262 57.7057L77.6955 58.0221C78.2657 59.5558 78.9538 61.0208 79.755 62.4059L75.2058 68.4688L79.6945 73.7728L86.4084 70.2501C87.6524 71.2774 88.9809 72.1976 90.3778 73.0044L89.4587 80.5482L95.9894 82.8903L100.042 76.4824C101.617 76.746 103.227 76.8738 104.858 76.869L107.823 83.8617L114.647 82.6155L114.962 75.0237C116.491 74.4518 117.952 73.7616 119.334 72.958L125.379 77.5208L130.668 73.0188L127.155 66.2849C128.18 65.0371 129.097 63.7047 129.901 62.3036L137.423 63.2255L139.758 56.6753L133.369 52.611C133.632 51.031 133.759 49.4158 133.755 47.7798L140.726 44.8067H140.725ZM108.004 65.4525C98.3023 67.2243 89.0064 60.7747 87.2383 51.0437C85.4718 41.3127 91.9022 31.9891 101.604 30.2158C111.306 28.4441 120.602 34.8936 122.37 44.6246C124.137 54.3556 117.706 63.6792 108.004 65.4525Z" fill="#101010"/>
<path d="M123.379 292.833C116.679 292.833 109.981 292.079 103.326 290.572C103.133 290.529 103.014 290.337 103.057 290.144C103.1 289.951 103.291 289.831 103.484 289.874C116.649 292.857 129.995 292.866 143.151 289.9C143.345 289.855 143.535 289.978 143.578 290.17C143.621 290.363 143.5 290.555 143.308 290.598C136.698 292.088 130.04 292.833 123.38 292.833H123.379Z" fill="#101010"/>
<path d="M122.141 285.581C95.7649 285.581 70.4512 275.025 70.1469 274.897C69.9653 274.821 69.8809 274.611 69.9574 274.429C70.0338 274.247 70.2441 274.163 70.4257 274.239C70.7904 274.394 107.227 289.583 138.09 283.381C138.283 283.341 138.471 283.467 138.511 283.662C138.549 283.855 138.425 284.044 138.23 284.084C132.96 285.143 127.526 285.584 122.141 285.584V285.581Z" fill="#101010"/>
<path d="M35.5007 114.371C35.0021 114.371 34.5035 114.278 34.0241 114.091C32.9824 113.685 32.1604 112.887 31.7113 111.843C30.7954 109.712 31.7447 107.215 33.8298 106.277C34.8333 105.825 35.9483 105.797 36.9741 106.196C38.0158 106.602 38.8377 107.401 39.2869 108.444C40.2028 110.575 39.2534 113.072 37.1684 114.01C36.6348 114.251 36.0677 114.371 35.5007 114.371ZM35.4975 106.632C35.0292 106.632 34.5625 106.731 34.1228 106.929C32.393 107.709 31.6045 109.786 32.3675 111.559C32.7403 112.425 33.4204 113.088 34.2837 113.423C35.1295 113.753 36.0486 113.729 36.8753 113.356C38.6067 112.577 39.3936 110.5 38.6306 108.727C38.2579 107.861 37.5778 107.199 36.7144 106.862C36.3194 106.709 35.9084 106.632 35.4975 106.632Z" fill="#101010"/>
<path d="M145.075 10.5253C144.984 10.5253 144.892 10.4902 144.823 10.4199L143.27 8.86383C143.13 8.72484 143.13 8.49798 143.27 8.35739C143.41 8.21681 143.635 8.21681 143.775 8.35739L145.328 9.91346C145.468 10.0524 145.468 10.2793 145.328 10.4199C145.258 10.4902 145.167 10.5253 145.076 10.5253H145.075Z" fill="#101010"/>
<path d="M150.51 15.9746C150.419 15.9746 150.327 15.9394 150.258 15.8691L148.705 14.3131C148.565 14.1741 148.565 13.9472 148.705 13.8066C148.845 13.666 149.07 13.666 149.21 13.8066L150.763 15.3627C150.903 15.5017 150.903 15.7285 150.763 15.8691C150.693 15.9394 150.602 15.9746 150.511 15.9746H150.51Z" fill="#101010"/>
<path d="M143.522 15.9746C143.431 15.9746 143.339 15.9394 143.27 15.8691C143.13 15.7285 143.13 15.5017 143.27 15.3627L144.823 13.8066C144.963 13.666 145.188 13.666 145.328 13.8066C145.468 13.9472 145.468 14.1741 145.328 14.3131L143.775 15.8691C143.705 15.9394 143.614 15.9746 143.523 15.9746H143.522Z" fill="#101010"/>
<path d="M148.957 10.5253C148.866 10.5253 148.773 10.4902 148.705 10.4199C148.565 10.2793 148.565 10.0524 148.705 9.91346L150.258 8.35739C150.398 8.21681 150.623 8.21681 150.763 8.35739C150.903 8.49798 150.903 8.72484 150.763 8.86383L149.21 10.4199C149.14 10.4902 149.049 10.5253 148.958 10.5253H148.957Z" fill="#101010"/>
<path d="M279.984 226.26L75.5214 225.875C73.3838 225.875 71.6906 223.939 71.8276 221.651L81.0789 66.7923C81.2031 64.701 82.8199 63.0747 84.7727 63.0747L289.523 62.6992C291.661 62.6992 293.659 65.0094 293.522 67.2971L284.27 222.156C284.146 224.247 281.937 226.26 279.984 226.26Z" fill="#101010"/>
<path d="M274.328 226.26H69.2726C67.135 226.26 65.4418 224.324 65.5788 222.036L74.8301 66.3661C74.9544 64.2748 76.5711 62.6484 78.524 62.6484H283.579C285.717 62.6484 287.41 64.5847 287.273 66.8725L278.021 222.543C277.897 224.634 276.28 226.26 274.328 226.26Z" fill="white"/>
<path d="M171.905 226.618H139.156C138.959 226.618 138.799 226.458 138.799 226.26C138.799 226.062 138.959 225.902 139.156 225.902H171.905C172.103 225.902 172.262 226.062 172.262 226.26C172.262 226.458 172.103 226.618 171.905 226.618Z" fill="#101010"/>
<path d="M262.719 226.618H186.939C186.741 226.618 186.582 226.458 186.582 226.26C186.582 226.062 186.741 225.902 186.939 225.902H262.719C262.916 225.902 263.076 226.062 263.076 226.26C263.076 226.458 262.916 226.618 262.719 226.618Z" fill="#101010"/>
<path d="M278.708 218.246C278.708 218.246 278.694 218.246 278.687 218.246C278.49 218.235 278.34 218.065 278.351 217.869L286.918 66.8522C286.98 65.8057 286.618 64.7833 285.927 64.0452C285.298 63.3758 284.463 63.0067 283.579 63.0067L235.577 63.0834C235.379 63.0834 235.22 62.9237 235.22 62.7256C235.22 62.5275 235.379 62.3677 235.577 62.3677L283.58 62.291C284.664 62.291 285.683 62.7399 286.448 63.5547C287.274 64.435 287.704 65.6508 287.631 66.8937L279.065 217.909C279.054 218.099 278.897 218.246 278.71 218.246H278.708Z" fill="#101010"/>
<path d="M70.5184 139.274C70.5184 139.274 70.5041 139.274 70.4961 139.274C70.3002 139.263 70.1489 139.094 70.1616 138.896L74.4735 66.3438C74.6089 64.0704 76.3881 62.2891 78.5241 62.2891H193.982C194.18 62.2891 194.339 62.4488 194.339 62.6469C194.339 62.845 194.18 63.0048 193.982 63.0048H78.5241C76.7656 63.0048 75.2986 64.4906 75.1855 66.3869L70.8736 138.939C70.8625 139.129 70.7048 139.276 70.5184 139.276V139.274Z" fill="#101010"/>
<path d="M270.623 220.218H73.9476C71.9677 220.218 70.4003 218.425 70.5261 216.305L79.0941 72.128C79.2088 70.1917 80.7077 68.6836 82.5156 68.6836H279.19C281.17 68.6836 282.738 70.4761 282.612 72.5945L274.044 216.772C273.929 218.708 272.43 220.216 270.623 220.216V220.218Z" fill="white"/>
<path d="M270.623 220.576H73.9477C72.9378 220.576 71.9868 220.158 71.2732 219.397C70.5023 218.578 70.1009 217.443 70.1694 216.285L78.7374 72.1081C78.8632 69.988 80.523 68.3281 82.5156 68.3281H279.191C280.2 68.3281 281.151 68.7467 281.865 69.5072C282.636 70.3267 283.037 71.461 282.969 72.6193L274.401 216.796C274.275 218.916 272.615 220.576 270.623 220.576ZM82.5156 69.0439C80.9005 69.0439 79.5529 70.4082 79.4494 72.1512L70.8814 216.328C70.8241 217.29 71.157 218.23 71.7925 218.907C72.3707 219.522 73.1353 219.861 73.9477 219.861H270.623C272.238 219.861 273.585 218.496 273.689 216.753L282.257 72.5761C282.314 71.6144 281.981 70.675 281.346 69.9976C280.767 69.3825 280.003 69.0439 279.191 69.0439H82.5156Z" fill="#101010"/>
<path d="M239.144 97.6613H281.123L281.527 90.8938H239.551L240.881 68.6855H229.882L228.552 90.8938H145.769L147.061 68.6855H140.139L139.075 86.9909C138.928 89.4991 137.993 91.8971 136.403 93.8382L115.77 119.039L118.737 68.6855H107.738L104.548 122.814H76.0755L75.4527 133.435H101.893C102.993 133.435 103.868 134.365 103.802 135.467L102.37 159.768C102.243 161.944 102.775 164.107 103.898 165.972L107.6 172.118H91.8178C89.7168 172.118 87.9806 173.76 87.8579 175.864L86.778 194.441H71.8242L71.3687 201.208H86.3845L85.2791 220.218H92.2016L93.3071 201.208H125.096L136.529 220.218H147.528L136.094 201.208H208.802L193.237 220.218H204.235L218.276 203.069C219.242 201.892 220.68 201.208 222.201 201.208H274.945L275.372 194.441H225.342L231.986 186.327C233.262 184.767 234.015 182.845 234.136 180.832L239.146 97.6597L239.144 97.6613ZM228.146 97.6613L225.935 134.547H143.229L145.374 97.6613H228.146ZM115.113 166.334C113.849 164.233 113.248 161.799 113.393 159.348L114.717 136.876C114.849 134.641 115.684 132.505 117.103 130.775L138.007 105.311L134.385 167.569C134.237 170.124 132.128 172.119 129.576 172.119H118.597L115.113 166.334ZM93.7005 194.442L94.489 180.895C94.5543 179.767 95.4861 178.885 96.6139 178.885H111.671L121.028 194.442H93.7021H93.7005ZM129.855 190.835L122.668 178.887H133.936C137.726 178.887 140.852 175.913 141.055 172.119H141.045L142.837 141.314H225.532L223.219 179.923C223.064 182.505 222.099 184.972 220.463 186.97L214.345 194.442H136.227C133.619 194.442 131.203 193.073 129.857 190.835H129.855Z" fill="white"/>
<path d="M204.234 220.578H193.235C193.097 220.578 192.972 220.498 192.912 220.374C192.853 220.249 192.87 220.101 192.96 219.994L208.046 201.568H136.725L147.832 220.035C147.899 220.145 147.901 220.284 147.837 220.396C147.773 220.508 147.656 220.578 147.527 220.578H136.528C136.402 220.578 136.287 220.513 136.222 220.406L124.892 201.568H93.6401L92.5538 220.241C92.5427 220.43 92.3865 220.578 92.197 220.578H85.2744C85.1757 220.578 85.0817 220.538 85.0148 220.467C84.9479 220.395 84.9129 220.299 84.9176 220.2L86.0008 201.568H71.3624C71.2637 201.568 71.1697 201.527 71.1012 201.455C71.0343 201.383 70.9993 201.286 71.0056 201.187L71.4612 194.419C71.4739 194.231 71.63 194.085 71.818 194.085H86.4356L87.4965 175.845C87.6303 173.556 89.5258 171.762 91.8131 171.762H106.961L103.588 166.159C102.422 164.223 101.875 162.007 102.009 159.75L103.441 135.449C103.466 135.014 103.317 134.602 103.02 134.285C102.723 133.969 102.321 133.795 101.886 133.795H75.4465C75.3478 133.795 75.2538 133.755 75.1869 133.683C75.12 133.611 75.0849 133.515 75.0897 133.416L75.7125 122.796C75.7237 122.607 75.8798 122.458 76.0693 122.458H104.206L107.375 68.6672C107.386 68.4771 107.543 68.3301 107.732 68.3301H118.731C118.83 68.3301 118.924 68.37 118.99 68.4419C119.057 68.5138 119.092 68.6097 119.088 68.7087L116.185 117.963L136.123 93.6137C137.675 91.7174 138.571 89.4216 138.713 86.9725L139.777 68.6672C139.788 68.4787 139.945 68.3301 140.134 68.3301H147.057C147.155 68.3301 147.249 68.37 147.316 68.4419C147.383 68.5138 147.418 68.6097 147.413 68.7087L146.144 90.5383H228.213L229.524 68.6672C229.535 68.4787 229.691 68.3301 229.88 68.3301H240.879C240.978 68.3301 241.072 68.3716 241.139 68.4419C241.206 68.5138 241.241 68.6097 241.234 68.7087L239.927 90.5383H281.524C281.623 90.5383 281.717 90.5783 281.784 90.6502C281.851 90.7221 281.886 90.8179 281.881 90.917L281.476 97.6844C281.465 97.8729 281.309 98.0215 281.119 98.0215H239.477L234.487 180.857C234.361 182.96 233.589 184.931 232.257 186.557L226.093 194.085H275.368C275.466 194.085 275.56 194.127 275.627 194.199C275.694 194.271 275.729 194.368 275.723 194.467L275.296 201.235C275.285 201.423 275.129 201.57 274.939 201.57H222.195C220.776 201.57 219.447 202.201 218.547 203.3L204.505 220.449C204.438 220.532 204.336 220.58 204.229 220.58L204.234 220.578ZM193.99 219.863H204.065L217.999 202.843C219.035 201.578 220.565 200.851 222.2 200.851H274.608L274.99 194.801H225.339C225.201 194.801 225.075 194.721 225.016 194.597C224.957 194.472 224.974 194.323 225.064 194.216L231.707 186.102C232.943 184.592 233.659 182.763 233.777 180.812L238.788 97.6397C238.799 97.4512 238.955 97.3042 239.145 97.3042H280.787L281.148 91.2525H239.551C239.452 91.2525 239.358 91.2109 239.291 91.1406C239.224 91.0687 239.189 90.9729 239.194 90.8738L240.502 69.0442H230.218L228.907 90.9154C228.896 91.1039 228.74 91.2525 228.55 91.2525H145.768C145.669 91.2525 145.575 91.2125 145.508 91.1406C145.441 91.0687 145.406 90.9729 145.411 90.8738L146.681 69.0442H140.473L139.428 87.0124C139.277 89.6133 138.326 92.0529 136.678 94.0658L116.044 119.266C115.947 119.386 115.781 119.429 115.637 119.372C115.494 119.316 115.402 119.172 115.411 119.017L118.357 69.0426H108.073L104.903 122.834C104.892 123.024 104.736 123.171 104.546 123.171H76.4102L75.8288 133.076H101.89C102.522 133.076 103.108 133.33 103.543 133.792C103.976 134.254 104.194 134.856 104.158 135.488L102.726 159.788C102.602 161.9 103.113 163.975 104.204 165.785L107.906 171.931C107.973 172.042 107.974 172.181 107.911 172.292C107.847 172.404 107.729 172.475 107.6 172.475H91.8179C89.9081 172.475 88.3248 173.971 88.2149 175.884L87.1349 194.461C87.1238 194.649 86.9677 194.798 86.7781 194.798H72.1573L71.7495 200.848H86.3847C86.4834 200.848 86.5774 200.888 86.6443 200.96C86.7112 201.032 86.7462 201.128 86.7415 201.227L85.6583 219.858H91.8657L92.952 201.185C92.9632 200.997 93.1193 200.848 93.3088 200.848H125.099C125.225 200.848 125.34 200.913 125.405 201.021L136.735 219.858H146.899L135.792 201.391C135.725 201.281 135.723 201.142 135.787 201.03C135.851 200.918 135.969 200.848 136.098 200.848H208.805C208.944 200.848 209.068 200.928 209.129 201.052C209.188 201.177 209.17 201.326 209.081 201.433L193.995 219.858L193.99 219.863ZM214.341 194.801H136.224C133.508 194.801 130.95 193.352 129.548 191.021L122.361 179.071C122.294 178.961 122.292 178.822 122.356 178.71C122.42 178.598 122.538 178.528 122.667 178.528H133.935C137.507 178.528 140.461 175.745 140.692 172.177C140.687 172.152 140.685 172.125 140.687 172.098L142.479 141.293C142.49 141.104 142.646 140.955 142.836 140.955H225.53C225.629 140.955 225.723 140.995 225.79 141.067C225.857 141.139 225.892 141.235 225.886 141.334L223.573 179.943C223.412 182.618 222.432 185.126 220.736 187.196L214.618 194.668C214.551 194.752 214.449 194.799 214.342 194.799L214.341 194.801ZM130.158 190.65C131.432 192.769 133.756 194.085 136.224 194.085H214.173L220.185 186.744C221.784 184.792 222.709 182.426 222.861 179.903L225.151 141.673H143.172L141.404 172.061C141.408 172.086 141.41 172.112 141.408 172.139C141.195 176.123 137.912 179.245 133.933 179.245H123.298L130.158 190.652V190.65ZM121.025 194.801H93.6991C93.6003 194.801 93.5063 194.761 93.4394 194.689C93.3725 194.617 93.3375 194.521 93.3423 194.422L94.1307 180.876C94.2072 179.56 95.2967 178.529 96.6108 178.529H111.668C111.794 178.529 111.909 178.595 111.974 178.702L121.33 194.259C121.397 194.37 121.399 194.509 121.335 194.62C121.271 194.732 121.154 194.803 121.025 194.803V194.801ZM94.0766 194.085H120.392L111.466 179.245H96.6108C95.6742 179.245 94.8969 179.98 94.8427 180.918L94.0766 194.085ZM129.575 172.478H118.595C118.47 172.478 118.355 172.412 118.29 172.305L114.806 166.52C113.498 164.348 112.885 161.86 113.035 159.328L114.358 136.856C114.495 134.528 115.349 132.348 116.826 130.549L137.73 105.083C137.828 104.963 137.993 104.922 138.137 104.977C138.28 105.033 138.371 105.177 138.363 105.332L134.741 167.591C134.581 170.331 132.313 172.478 129.575 172.478ZM118.798 171.762H129.575C131.936 171.762 133.89 169.91 134.029 167.549L137.587 106.387L117.378 131.004C115.997 132.685 115.199 134.723 115.072 136.898L113.748 159.369C113.608 161.756 114.185 164.102 115.419 166.15L118.799 171.762H118.798ZM225.935 134.905H143.229C143.13 134.905 143.036 134.865 142.969 134.794C142.902 134.722 142.867 134.626 142.872 134.527L145.018 97.6413C145.029 97.4528 145.185 97.3042 145.375 97.3042H228.146C228.245 97.3042 228.339 97.3457 228.405 97.416C228.472 97.4879 228.507 97.5838 228.503 97.6828L226.292 134.568C226.281 134.757 226.124 134.905 225.935 134.905ZM143.606 134.19H225.599L227.767 98.0199H145.711L143.606 134.19Z" fill="#101010"/>
<path d="M132.753 198.176C131.313 198.176 129.938 197.729 128.775 196.884C128.616 196.767 128.581 196.544 128.696 196.384C128.812 196.224 129.033 196.187 129.194 196.304C130.233 197.06 131.462 197.461 132.751 197.461H133.008C133.205 197.461 133.364 197.62 133.364 197.819C133.364 198.017 133.205 198.176 133.008 198.176H132.751H132.753ZM137.292 198.168C137.095 198.168 136.936 198.009 136.936 197.811C136.936 197.613 137.095 197.453 137.292 197.453L141.576 197.446C141.773 197.446 141.932 197.606 141.932 197.804C141.932 198.002 141.773 198.162 141.576 198.162L137.292 198.168ZM145.857 198.154C145.66 198.154 145.5 197.994 145.5 197.796C145.5 197.598 145.66 197.438 145.857 197.438L150.14 197.432C150.338 197.432 150.497 197.592 150.497 197.79C150.497 197.988 150.338 198.148 150.14 198.148L145.857 198.154ZM154.422 198.141C154.224 198.141 154.065 197.982 154.065 197.783C154.065 197.585 154.224 197.426 154.422 197.426L158.705 197.419C158.903 197.419 159.062 197.579 159.062 197.777C159.062 197.975 158.903 198.135 158.705 198.135L154.422 198.141ZM162.987 198.127C162.789 198.127 162.63 197.967 162.63 197.769C162.63 197.571 162.789 197.411 162.987 197.411L167.27 197.405C167.467 197.405 167.627 197.565 167.627 197.763C167.627 197.961 167.467 198.121 167.27 198.121L162.987 198.127ZM171.552 198.113C171.354 198.113 171.195 197.953 171.195 197.755C171.195 197.557 171.354 197.397 171.552 197.397L175.835 197.39C176.032 197.39 176.192 197.55 176.192 197.748C176.192 197.946 176.032 198.106 175.835 198.106L171.552 198.113ZM180.116 198.098C179.919 198.098 179.76 197.938 179.76 197.74C179.76 197.542 179.919 197.382 180.116 197.382L184.4 197.376C184.597 197.376 184.756 197.536 184.756 197.734C184.756 197.932 184.597 198.092 184.4 198.092L180.116 198.098ZM188.681 198.084C188.484 198.084 188.324 197.924 188.324 197.726C188.324 197.528 188.484 197.368 188.681 197.368L192.964 197.362C193.162 197.362 193.321 197.521 193.321 197.72C193.321 197.918 193.162 198.077 192.964 198.077L188.681 198.084ZM197.246 198.069C197.048 198.069 196.889 197.91 196.889 197.712C196.889 197.513 197.048 197.354 197.246 197.354L201.529 197.347C201.727 197.347 201.886 197.507 201.886 197.705C201.886 197.903 201.727 198.063 201.529 198.063L197.246 198.069ZM205.811 198.055C205.613 198.055 205.454 197.895 205.454 197.697C205.454 197.499 205.613 197.339 205.811 197.338L210.094 197.331C210.291 197.331 210.451 197.491 210.451 197.689C210.451 197.887 210.291 198.047 210.094 198.047L205.811 198.053V198.055ZM214.374 198.01C214.192 198.01 214.038 197.873 214.019 197.688C214 197.491 214.141 197.315 214.339 197.296C215.688 197.16 216.961 196.56 217.924 195.604C218.065 195.465 218.291 195.467 218.429 195.608C218.568 195.748 218.566 195.975 218.426 196.114C217.346 197.184 215.921 197.857 214.411 198.01C214.398 198.01 214.387 198.012 214.374 198.012V198.01ZM126.384 193.582C126.263 193.582 126.144 193.519 126.077 193.406L123.89 189.712C123.79 189.543 123.845 189.323 124.014 189.222C124.183 189.12 124.403 189.177 124.503 189.347L126.69 193.04C126.791 193.21 126.735 193.43 126.566 193.531C126.509 193.564 126.447 193.582 126.384 193.582ZM220.884 192.892C220.806 192.892 220.728 192.866 220.661 192.813C220.506 192.69 220.483 192.465 220.605 192.31L223.283 188.957C223.405 188.803 223.63 188.776 223.785 188.901C223.937 189.024 223.963 189.249 223.84 189.404L221.163 192.757C221.093 192.845 220.989 192.892 220.884 192.892ZM122.01 186.196C121.888 186.196 121.77 186.134 121.703 186.02L119.516 182.327C119.416 182.157 119.471 181.937 119.64 181.836C119.809 181.736 120.029 181.791 120.129 181.961L122.316 185.654C122.417 185.824 122.361 186.044 122.192 186.145C122.135 186.178 122.073 186.196 122.01 186.196ZM226.144 186.116C226.078 186.116 226.013 186.099 225.954 186.062C225.787 185.956 225.736 185.736 225.841 185.568C226.583 184.38 227.184 183.102 227.62 181.768C227.682 181.581 227.883 181.477 228.071 181.539C228.257 181.601 228.359 181.803 228.299 181.991C227.843 183.378 227.219 184.709 226.446 185.947C226.378 186.055 226.261 186.115 226.144 186.115V186.116ZM117.636 178.809C117.515 178.809 117.396 178.746 117.329 178.633L115.142 174.939C115.042 174.77 115.097 174.55 115.266 174.449C115.435 174.347 115.655 174.404 115.755 174.573L117.942 178.267C118.043 178.437 117.987 178.657 117.818 178.758C117.761 178.791 117.699 178.809 117.636 178.809ZM228.797 178.035C228.788 178.035 228.78 178.035 228.77 178.035C228.574 178.021 228.426 177.849 228.44 177.652C228.45 177.526 228.458 177.398 228.466 177.272L228.67 173.372C228.681 173.176 228.832 173.019 229.046 173.033C229.243 173.045 229.393 173.212 229.383 173.41L229.18 177.312C229.172 177.444 229.164 177.575 229.154 177.706C229.14 177.895 228.984 178.037 228.799 178.037L228.797 178.035ZM113.263 171.421C113.14 171.421 113.022 171.359 112.955 171.246L110.768 167.552C110.668 167.383 110.723 167.162 110.892 167.062C111.061 166.959 111.281 167.017 111.381 167.186L113.568 170.88C113.669 171.049 113.613 171.27 113.444 171.37C113.387 171.404 113.325 171.421 113.263 171.421ZM229.253 169.456C229.253 169.456 229.24 169.456 229.234 169.456C229.036 169.445 228.886 169.277 228.896 169.079L229.121 164.79C229.13 164.593 229.288 164.44 229.496 164.451C229.694 164.462 229.844 164.63 229.834 164.828L229.61 169.118C229.6 169.308 229.442 169.456 229.253 169.456ZM109.041 163.956C108.9 163.956 108.766 163.871 108.71 163.732C108.162 162.368 107.82 160.933 107.691 159.468C107.673 159.272 107.818 159.098 108.014 159.08C108.213 159.059 108.384 159.208 108.401 159.404C108.524 160.799 108.85 162.165 109.371 163.464C109.444 163.647 109.357 163.855 109.174 163.929C109.131 163.946 109.084 163.954 109.04 163.954L109.041 163.956ZM229.704 160.877C229.704 160.877 229.691 160.877 229.684 160.877C229.487 160.866 229.337 160.698 229.347 160.5L229.571 156.211C229.583 156.014 229.743 155.864 229.947 155.872C230.145 155.883 230.295 156.051 230.285 156.249L230.06 160.539C230.051 160.729 229.893 160.877 229.704 160.877ZM108.134 155.503C108.134 155.503 108.121 155.503 108.114 155.503C107.918 155.492 107.767 155.324 107.778 155.126L108.011 150.838C108.022 150.641 108.194 150.488 108.387 150.501C108.583 150.512 108.734 150.68 108.724 150.878L108.492 155.166C108.481 155.356 108.325 155.505 108.135 155.505L108.134 155.503ZM230.154 152.298C230.154 152.298 230.142 152.298 230.135 152.298C229.938 152.287 229.788 152.119 229.798 151.921L230.022 147.632C230.033 147.433 230.186 147.277 230.398 147.293C230.596 147.304 230.745 147.472 230.736 147.67L230.511 151.959C230.502 152.15 230.344 152.298 230.154 152.298ZM108.599 146.925C108.599 146.925 108.586 146.925 108.58 146.925C108.384 146.914 108.232 146.746 108.243 146.548L108.476 142.259C108.487 142.062 108.654 141.909 108.852 141.92C109.048 141.931 109.199 142.099 109.19 142.297L108.957 146.587C108.947 146.777 108.79 146.925 108.602 146.925H108.599ZM230.604 143.721C230.604 143.721 230.591 143.721 230.584 143.721C230.387 143.709 230.237 143.542 230.247 143.344L230.471 139.054C230.482 138.858 230.642 138.703 230.847 138.715C231.045 138.727 231.194 138.894 231.185 139.092L230.96 143.382C230.951 143.572 230.793 143.721 230.604 143.721ZM109.064 138.348C109.064 138.348 109.051 138.348 109.045 138.348C108.849 138.337 108.697 138.169 108.709 137.971L108.941 133.683C108.952 133.486 109.124 133.323 109.317 133.346C109.513 133.357 109.664 133.525 109.653 133.723L109.421 138.011C109.411 138.201 109.253 138.349 109.065 138.349L109.064 138.348ZM231.053 135.141C231.053 135.141 231.04 135.141 231.034 135.141C230.836 135.13 230.686 134.963 230.696 134.764L230.921 130.475C230.932 130.278 231.094 130.125 231.296 130.136C231.494 130.147 231.644 130.315 231.634 130.513L231.41 134.803C231.4 134.993 231.242 135.141 231.053 135.141ZM108.884 129.863C108.761 129.863 108.643 129.801 108.576 129.687C107.955 128.634 106.813 127.981 105.596 127.981H105.274C105.077 127.981 104.918 127.821 104.918 127.623C104.918 127.425 105.077 127.265 105.274 127.265H105.596C107.065 127.265 108.441 128.053 109.19 129.321C109.29 129.492 109.234 129.711 109.064 129.812C109.006 129.845 108.944 129.861 108.882 129.861L108.884 129.863ZM100.993 127.981H96.7095C96.512 127.981 96.3527 127.821 96.3527 127.623C96.3527 127.425 96.512 127.265 96.7095 127.265H100.993C101.19 127.265 101.35 127.425 101.35 127.623C101.35 127.821 101.19 127.981 100.993 127.981ZM92.4279 127.981H88.1447C87.9472 127.981 87.7879 127.821 87.7879 127.623C87.7879 127.425 87.9472 127.265 88.1447 127.265H92.4279C92.6254 127.265 92.7847 127.425 92.7847 127.623C92.7847 127.821 92.6254 127.981 92.4279 127.981ZM83.8631 127.981H79.5799C79.3824 127.981 79.2231 127.821 79.2231 127.623C79.2231 127.425 79.3824 127.265 79.5799 127.265H83.8631C84.0607 127.265 84.2199 127.425 84.2199 127.623C84.2199 127.821 84.0607 127.981 83.8631 127.981ZM231.505 126.562C231.505 126.562 231.492 126.562 231.486 126.562C231.288 126.551 231.139 126.383 231.148 126.185L231.373 121.896C231.382 121.699 231.54 121.549 231.749 121.557C231.946 121.568 232.096 121.736 232.086 121.934L231.862 126.224C231.852 126.414 231.695 126.562 231.505 126.562ZM231.956 117.983C231.956 117.983 231.943 117.983 231.937 117.983C231.739 117.972 231.59 117.804 231.599 117.606L231.824 113.317C231.835 113.119 231.996 112.962 232.2 112.978C232.397 112.989 232.547 113.157 232.537 113.355L232.313 117.645C232.303 117.835 232.145 117.983 231.956 117.983ZM232.407 109.404C232.407 109.404 232.394 109.404 232.388 109.404C232.19 109.393 232.04 109.225 232.05 109.027L232.274 104.738C232.284 104.541 232.44 104.386 232.65 104.399C232.848 104.41 232.998 104.578 232.988 104.776L232.763 109.065C232.754 109.256 232.596 109.404 232.407 109.404ZM232.856 100.825C232.856 100.825 232.843 100.825 232.837 100.825C232.639 100.814 232.489 100.646 232.499 100.448L232.724 96.1584C232.735 95.9619 232.894 95.8101 233.1 95.8197C233.297 95.8309 233.447 95.9986 233.437 96.1967L233.213 100.486C233.203 100.676 233.045 100.825 232.856 100.825ZM233.307 92.2459C233.307 92.2459 233.294 92.2459 233.287 92.2459C233.09 92.2347 232.94 92.067 232.95 91.8688L232.982 91.265C232.985 91.1995 232.986 91.1356 232.986 91.07C232.986 89.9981 232.515 88.9852 231.693 88.2934C231.542 88.1672 231.523 87.9403 231.648 87.7886C231.774 87.6368 232 87.6176 232.152 87.7438C233.136 88.5714 233.7 89.784 233.7 91.0684C233.7 91.1451 233.698 91.2234 233.694 91.3017L233.662 91.9056C233.652 92.0957 233.495 92.2443 233.305 92.2443L233.307 92.2459ZM227.861 87.4275H227.856L223.574 87.37C223.377 87.3668 223.219 87.2054 223.222 87.0073C223.225 86.8108 223.385 86.6543 223.579 86.6543H223.584L227.865 86.7118C228.063 86.715 228.221 86.8763 228.217 87.0744C228.214 87.271 228.055 87.4275 227.861 87.4275ZM219.296 87.3125H219.291L215.728 87.2646C215.53 87.2614 215.373 87.1 215.376 86.9019C215.379 86.7054 215.538 86.5488 215.733 86.5488H215.737L219.301 86.5968C219.498 86.6 219.656 86.7613 219.653 86.9594C219.649 87.1559 219.49 87.3125 219.296 87.3125Z" fill="#101010"/>
<path d="M216.228 0.470703C202.069 0.470703 190.591 11.9495 190.591 26.1106C190.591 29.6509 192.193 34.6003 194.597 40.0353C200.654 53.7347 211.803 70.5096 215.212 75.5228C215.701 76.2402 216.755 76.2434 217.244 75.5244C222.004 68.5269 241.867 38.5735 241.867 26.1106C241.867 11.9495 230.388 0.470703 216.229 0.470703L216.228 0.470703Z" fill="#101010"/>
<path d="M216.226 44.4263C226.346 44.4263 234.549 36.1985 234.549 26.0491C234.549 15.8996 226.346 7.67188 216.226 7.67188C206.107 7.67188 197.904 15.8996 197.904 26.0491C197.904 36.1985 206.107 44.4263 216.226 44.4263Z" fill="white"/>
<path d="M216.226 90.078C219.177 90.078 221.569 87.679 221.569 84.7197C221.569 81.7604 219.177 79.3613 216.226 79.3613C213.276 79.3613 210.884 81.7604 210.884 84.7197C210.884 87.679 213.276 90.078 216.226 90.078Z" fill="#101010"/>
<path d="M225.868 20.2441H207.222V35.5923H225.868V20.2441Z" fill="white"/>
<path d="M225.868 35.9506H207.222C207.024 35.9506 206.865 35.7908 206.865 35.5927V20.2446C206.865 20.0465 207.024 19.8867 207.222 19.8867H225.868C226.065 19.8867 226.225 20.0465 226.225 20.2446V35.5927C226.225 35.7908 226.065 35.9506 225.868 35.9506ZM207.579 35.2349H225.511V20.6024H207.579V35.2349Z" fill="#101010"/>
<path d="M221.386 27.0879H217.354V35.5919H221.386V27.0879Z" fill="white"/>
<path d="M221.386 35.9502H217.352C217.155 35.9502 216.996 35.7905 216.996 35.5924V27.0883C216.996 26.8902 217.155 26.7305 217.352 26.7305H221.386C221.583 26.7305 221.742 26.8902 221.742 27.0883V35.5924C221.742 35.7905 221.583 35.9502 221.386 35.9502ZM217.711 35.2345H221.029V27.4478H217.711V35.2345Z" fill="#101010"/>
<path d="M213.541 26.0605H209.406V30.2079H213.541V26.0605Z" fill="white"/>
<path d="M213.542 30.5662H209.407C209.21 30.5662 209.051 30.4065 209.051 30.2084V26.061C209.051 25.8629 209.21 25.7031 209.407 25.7031H213.542C213.74 25.7031 213.899 25.8629 213.899 26.061V30.2084C213.899 30.4065 213.74 30.5662 213.542 30.5662ZM209.764 29.8505H213.186V26.4188H209.764V29.8505Z" fill="#101010"/>
<path d="M226.929 17.1816H205.725V20.7587H226.929V17.1816Z" fill="white"/>
<path d="M226.929 21.1189H205.725C205.527 21.1189 205.368 20.9592 205.368 20.7611V17.184C205.368 16.9859 205.527 16.8262 205.725 16.8262H226.929C227.126 16.8262 227.286 16.9859 227.286 17.184V20.7611C227.286 20.9592 227.126 21.1189 226.929 21.1189ZM206.082 20.4032H226.572V17.5419H206.082V20.4032Z" fill="#101010"/>
<path d="M154.481 234.986H147.66C144.873 234.986 142.614 241.698 142.614 249.894C142.614 258.089 144.873 264.804 147.66 264.804H154.481C157.269 264.804 159.527 258.091 159.527 249.895C159.527 241.699 157.269 234.986 154.481 234.986Z" fill="#101010"/>
<path d="M147.66 264.561C150.447 264.561 152.706 257.917 152.706 249.721C152.706 241.525 150.447 234.881 147.66 234.881C144.873 234.881 142.614 241.525 142.614 249.721C142.614 257.917 144.873 264.561 147.66 264.561Z" fill="white"/>
<path d="M147.66 264.919C144.631 264.919 142.257 258.245 142.257 249.721C142.257 241.198 144.631 234.523 147.66 234.523C150.69 234.523 153.063 241.198 153.063 249.721C153.063 258.245 150.69 264.919 147.66 264.919ZM147.66 235.241C145.395 235.241 142.971 241.059 142.971 249.723C142.971 258.387 145.395 264.205 147.66 264.205C149.925 264.205 152.35 258.387 152.35 249.723C152.35 241.059 149.925 235.241 147.66 235.241Z" fill="#101010"/>
<path d="M133.737 236.088H126.917C124.129 236.088 121.87 242.799 121.87 250.995C121.87 259.191 124.129 265.906 126.917 265.906H133.737C136.525 265.906 138.783 259.192 138.783 250.997C138.783 242.801 136.525 236.088 133.737 236.088Z" fill="#101010"/>
<path d="M126.915 265.665C129.702 265.665 131.961 259.02 131.961 250.824C131.961 242.629 129.702 235.984 126.915 235.984C124.128 235.984 121.869 242.629 121.869 250.824C121.869 259.02 124.128 265.665 126.915 265.665Z" fill="white"/>
<path d="M126.915 266.021C123.885 266.021 121.512 259.346 121.512 250.823C121.512 242.3 123.885 235.625 126.915 235.625C129.945 235.625 132.318 242.3 132.318 250.823C132.318 259.346 129.945 266.021 126.915 266.021ZM126.915 236.342C124.65 236.342 122.226 242.161 122.226 250.825C122.226 259.488 124.65 265.307 126.915 265.307C129.18 265.307 131.604 259.488 131.604 250.825C131.604 242.161 129.18 236.342 126.915 236.342Z" fill="#101010"/>
<path d="M78.0987 236.385H72.253C69.8637 236.385 67.9268 242.099 67.9268 249.124C67.9268 256.149 69.8637 261.867 72.253 261.867H78.0987C80.488 261.867 82.4234 256.15 82.4234 249.126C82.4234 242.101 80.4864 236.385 78.0987 236.385Z" fill="#101010"/>
<path d="M152.804 257.469L152.635 166.525L6.49341 185.085V250.149L152.804 257.469Z" fill="white"/>
<path d="M152.804 257.826C152.804 257.826 152.793 257.826 152.786 257.826L6.47429 250.506C6.28474 250.497 6.13501 250.34 6.13501 250.148V185.084C6.13501 184.904 6.26881 184.752 6.44721 184.73L152.59 166.169C152.692 166.156 152.794 166.188 152.871 166.255C152.947 166.322 152.992 166.42 152.992 166.523L153.161 257.469C153.161 257.566 153.121 257.66 153.051 257.729C152.984 257.793 152.896 257.828 152.804 257.828V257.826ZM6.8502 249.808L152.447 257.093L152.28 166.931L6.8502 185.401V249.81V249.808Z" fill="#101010"/>
<path d="M172.585 234.163H104.339V145.898L172.585 149.116V234.163Z" fill="white"/>
<path d="M172.585 234.522C172.388 234.522 172.228 234.362 172.228 234.164V149.457L104.323 146.256C104.126 146.246 103.975 146.078 103.984 145.882C103.994 145.684 104.164 145.53 104.357 145.542L172.603 148.759C172.792 148.769 172.944 148.925 172.944 149.117V234.165C172.944 234.363 172.784 234.523 172.587 234.523L172.585 234.522Z" fill="#101010"/>
<path d="M104.339 234.163V145.898L0.829102 152.348V233.185L104.339 234.163Z" fill="white"/>
<path d="M98.0794 152.184V189.19L65.2825 190.042V154.091L98.0794 152.184Z" fill="white"/>
<path d="M65.2826 190.401C65.1902 190.401 65.101 190.364 65.0341 190.298C64.9656 190.231 64.9258 190.139 64.9258 190.043V154.092C64.9258 153.902 65.0739 153.745 65.2619 153.734L98.0588 151.827C98.156 151.822 98.2531 151.855 98.3248 151.924C98.3965 151.991 98.4363 152.085 98.4363 152.184V189.193C98.4363 189.386 98.2818 189.546 98.0891 189.551L65.2921 190.401H65.2826ZM65.6394 154.431V189.675L97.7211 188.843V152.563L65.6394 154.429V154.431Z" fill="#101010"/>
<path d="M104.341 152.186H98.0796V189.194H104.341V152.186Z" fill="white"/>
<path d="M104.34 189.55H98.078C97.8805 189.55 97.7212 189.391 97.7212 189.192V152.184C97.7212 151.986 97.8805 151.826 98.078 151.826H104.34C104.537 151.826 104.696 151.986 104.696 152.184V189.192C104.696 189.391 104.537 189.55 104.34 189.55ZM98.4348 188.835H103.981V152.542H98.4348V188.835Z" fill="#101010"/>
<path d="M78.6912 153.85L78.7358 158.365L83.7262 158.186L83.8154 153.537L78.6912 153.85Z" fill="#101010"/>
<path d="M72.8693 183.217C72.7769 183.217 72.6893 183.182 72.6224 183.118C72.5523 183.051 72.5125 182.957 72.5125 182.859V165.655C72.5125 165.463 72.6638 165.305 72.8549 165.297L90.1263 164.581C90.2218 164.573 90.3174 164.613 90.3875 164.68C90.4576 164.747 90.4974 164.841 90.4974 164.939V182.144C90.4974 182.335 90.3461 182.493 90.1549 182.501L72.8836 183.216C72.8836 183.216 72.874 183.216 72.8693 183.216V183.217ZM73.2261 165.998V182.485L89.7838 181.8V165.313L73.2261 165.998Z" fill="#101010"/>
<path d="M87.0471 173.929C87.3275 173.918 87.5441 173.662 87.5106 173.387C87.2128 170.969 84.6387 169.175 81.5072 169.306C78.3756 169.435 75.8 171.442 75.5037 173.886C75.4702 174.165 75.6853 174.402 75.9672 174.389L87.0487 173.931L87.0471 173.929Z" fill="#101010"/>
<path d="M80.397 180.479C80.0354 180.479 79.6977 180.344 79.4397 180.095C79.1705 179.835 79.0208 179.483 79.0208 179.103V178.272C79.0208 178.074 79.18 177.915 79.3776 177.915C79.5751 177.915 79.7343 178.074 79.7343 178.272V179.103C79.7343 179.287 79.8044 179.455 79.9335 179.579C80.0641 179.705 80.2361 179.765 80.4272 179.763C80.8255 179.747 81.1488 179.411 81.1488 179.017V167.725C81.1488 167.527 81.3081 167.367 81.5056 167.367C81.7031 167.367 81.8624 167.527 81.8624 167.725V179.017C81.8624 179.79 81.2316 180.447 80.4559 180.479C80.4368 180.479 80.4161 180.479 80.3954 180.479H80.397Z" fill="#101010"/>
<path d="M98.0794 192.516V229.524H65.2825V193.148L98.0794 192.516Z" fill="white"/>
<path d="M98.0795 229.883H65.2826C65.0851 229.883 64.9258 229.723 64.9258 229.525V193.149C64.9258 192.954 65.0819 192.794 65.2762 192.791L98.0731 192.159C98.1623 192.154 98.2611 192.194 98.3296 192.261C98.3981 192.328 98.4363 192.421 98.4363 192.516V229.525C98.4363 229.723 98.277 229.883 98.0795 229.883ZM65.6394 229.167H97.7211V192.882L65.6394 193.502V229.169V229.167Z" fill="#101010"/>
<path d="M104.341 192.516H98.0796V229.524H104.341V192.516Z" fill="white"/>
<path d="M104.34 229.882H98.078C97.8805 229.882 97.7212 229.723 97.7212 229.525V192.516C97.7212 192.318 97.8805 192.158 98.078 192.158H104.34C104.537 192.158 104.696 192.318 104.696 192.516V229.525C104.696 229.723 104.537 229.882 104.34 229.882ZM98.4348 229.167H103.981V192.874H98.4348V229.167Z" fill="#101010"/>
<path d="M77.761 193.308V197.778L82.7036 197.868L82.8167 193.219L77.761 193.308Z" fill="#101010"/>
<path d="M90.2188 224.013H73.2357C73.0382 224.013 72.8789 223.853 72.8789 223.655V206.622C72.8789 206.423 73.0382 206.264 73.2357 206.264H90.2188C90.4163 206.264 90.5756 206.423 90.5756 206.622V223.655C90.5756 223.853 90.4163 224.013 90.2188 224.013ZM73.5925 223.297H89.862V206.979H73.5925V223.297Z" fill="#101010"/>
<path d="M87.761 219.236H75.6919V221.283H87.761V219.236Z" fill="#101010"/>
<path d="M79.4989 209.99H77.4585V217.008H79.4989V209.99Z" fill="#101010"/>
<path d="M75.7764 211.346L78.4794 208.635L81.1809 211.346H75.7764Z" fill="#101010"/>
<path d="M85.996 209.99H83.9556V217.008H85.996V209.99Z" fill="#101010"/>
<path d="M82.272 211.346L84.9751 208.635L87.6781 211.346H82.272Z" fill="#101010"/>
<path d="M65.0916 194.125H58.8301V229.521H65.0916V194.125Z" fill="white"/>
<path d="M65.09 229.88H58.8285C58.631 229.88 58.4717 229.72 58.4717 229.522V194.125C58.4717 193.927 58.631 193.768 58.8285 193.768H65.09C65.2875 193.768 65.4468 193.927 65.4468 194.125V229.522C65.4468 229.72 65.2875 229.88 65.09 229.88ZM59.1853 229.164H64.7316V194.483H59.1853V229.164Z" fill="#101010"/>
<path d="M58.7728 194.125V229.521H27.0271V195.149L58.7728 194.125Z" fill="white"/>
<path d="M58.7726 229.88H27.027C26.8295 229.88 26.6702 229.72 26.6702 229.522V195.149C26.6702 194.956 26.8231 194.798 27.0158 194.791L58.7615 193.767C58.857 193.756 58.951 193.801 59.0211 193.868C59.0912 193.935 59.1294 194.028 59.1294 194.125V229.522C59.1294 229.72 58.9701 229.88 58.7726 229.88ZM27.3838 229.164H58.4158V194.494L27.3838 195.496V229.164Z" fill="#101010"/>
<path d="M39.5757 195.095V199.565L44.5406 199.655L44.6426 195.006L39.5757 195.095Z" fill="#101010"/>
<path d="M51.6446 223.616H34.4911C34.2936 223.616 34.1343 223.456 34.1343 223.258V206.053C34.1343 205.855 34.2936 205.695 34.4911 205.695H51.6446C51.8421 205.695 52.0014 205.855 52.0014 206.053V223.258C52.0014 223.456 51.8421 223.616 51.6446 223.616ZM34.8479 222.9H51.2878V206.411H34.8479V222.9Z" fill="#101010"/>
<path d="M48.572 214.914C48.8507 214.914 49.0658 214.668 49.0323 214.392C48.7376 211.96 46.1795 210.061 43.0702 210.061C39.961 210.061 37.4029 211.96 37.1082 214.392C37.0747 214.67 37.2898 214.914 37.5685 214.914H48.5752H48.572Z" fill="#101010"/>
<path d="M42.0111 221.189C41.2322 221.189 40.5967 220.554 40.5967 219.771V218.94C40.5967 218.742 40.756 218.582 40.9535 218.582C41.151 218.582 41.3103 218.742 41.3103 218.94V219.771C41.3103 220.157 41.6241 220.474 42.0111 220.474C42.3982 220.474 42.7104 220.159 42.7104 219.771V208.479C42.7104 208.281 42.8697 208.121 43.0672 208.121C43.2647 208.121 43.424 208.281 43.424 208.479V219.771C43.424 220.552 42.79 221.189 42.0111 221.189Z" fill="#101010"/>
<path d="M65.0916 154.629H58.8301V190.025H65.0916V154.629Z" fill="white"/>
<path d="M65.09 190.384H58.8285C58.631 190.384 58.4717 190.224 58.4717 190.026V154.629C58.4717 154.431 58.631 154.271 58.8285 154.271H65.09C65.2875 154.271 65.4468 154.431 65.4468 154.629V190.026C65.4468 190.224 65.2875 190.384 65.09 190.384ZM59.1853 189.668H64.7316V154.987H59.1853V189.668Z" fill="#101010"/>
<path d="M58.7728 154.631V190.027L27.0271 190.877V155.655L58.7728 154.631Z" fill="white"/>
<path d="M27.027 191.235C26.9346 191.235 26.8454 191.198 26.7785 191.134C26.71 191.067 26.6702 190.975 26.6702 190.877V155.655C26.6702 155.461 26.8231 155.303 27.0158 155.297L58.7615 154.273C58.857 154.263 58.951 154.306 59.0211 154.373C59.0912 154.441 59.1294 154.533 59.1294 154.631V190.027C59.1294 190.22 58.9749 190.38 58.7822 190.385L27.0365 191.235H27.027ZM27.3838 156.001V190.51L58.4158 189.679V155.001L27.3838 156.003V156.001Z" fill="#101010"/>
<path d="M40.6458 155.771V160.239L45.6107 160.329L45.7126 155.592L40.6458 155.771Z" fill="#101010"/>
<path d="M34.5594 182.898C34.4671 182.898 34.3779 182.861 34.311 182.797C34.2409 182.73 34.2026 182.637 34.2026 182.54V165.506C34.2026 165.313 34.3556 165.155 34.5483 165.148L52.0665 164.612C52.1605 164.608 52.2561 164.645 52.3262 164.712C52.3963 164.779 52.4345 164.872 52.4345 164.969V182.003C52.4345 182.196 52.2816 182.354 52.0888 182.361L34.5706 182.898H34.5594ZM34.9162 165.853V182.171L51.7209 181.656V165.338L34.9162 165.853Z" fill="#101010"/>
<path d="M49.5419 179.707L37.0938 180.089V178.042L49.5419 177.662V179.707Z" fill="#101010"/>
<path d="M38.916 175.754V168.735L41.0202 168.67V175.69L38.916 175.754Z" fill="#101010"/>
<path d="M37.1797 170.143L39.9688 167.348L42.7563 169.974L37.1797 170.143Z" fill="#101010"/>
<path d="M45.6169 175.551V168.531L47.7211 168.467V175.485L45.6169 175.551Z" fill="#101010"/>
<path d="M43.8809 169.94L46.6684 167.145L49.4575 169.769L43.8809 169.94Z" fill="#101010"/>
<path d="M92.8628 238.541H86.2939C83.6099 238.541 81.4341 245.003 81.4341 252.895C81.4341 260.788 83.6099 267.253 86.2939 267.253H92.8628C95.5468 267.253 97.7226 260.789 97.7226 252.897C97.7226 245.005 95.5468 238.541 92.8628 238.541Z" fill="#101010"/>
<path d="M86.2954 267.017C88.9794 267.017 91.1552 260.62 91.1552 252.728C91.1552 244.837 88.9794 238.439 86.2954 238.439C83.6114 238.439 81.4355 244.837 81.4355 252.728C81.4355 260.62 83.6114 267.017 86.2954 267.017Z" fill="white"/>
<path d="M86.2955 267.378C83.371 267.378 81.0789 260.944 81.0789 252.731C81.0789 244.518 83.3694 238.084 86.2955 238.084C89.2215 238.084 91.5121 244.518 91.5121 252.731C91.5121 260.944 89.2215 267.378 86.2955 267.378ZM86.2955 238.8C84.1212 238.8 81.7941 244.398 81.7941 252.731C81.7941 261.064 84.1212 266.662 86.2955 266.662C88.4697 266.662 90.7985 261.064 90.7985 252.731C90.7985 244.398 88.4697 238.8 86.2955 238.8Z" fill="#101010"/>
<path d="M113.321 238.98H106.501C103.713 238.98 101.455 245.692 101.455 253.888C101.455 262.083 103.713 268.798 106.501 268.798H113.321C116.109 268.798 118.368 262.085 118.368 253.889C118.368 245.694 116.109 238.98 113.321 238.98Z" fill="#101010"/>
<path d="M106.501 268.555C109.288 268.555 111.547 261.911 111.547 253.715C111.547 245.519 109.288 238.875 106.501 238.875C103.714 238.875 101.455 245.519 101.455 253.715C101.455 261.911 103.714 268.555 106.501 268.555Z" fill="white"/>
<path d="M106.501 268.914C103.471 268.914 101.098 262.239 101.098 253.716C101.098 245.192 103.471 238.518 106.501 238.518C109.53 238.518 111.904 245.192 111.904 253.716C111.904 262.239 109.53 268.914 106.501 268.914ZM106.501 239.235C104.236 239.235 101.812 245.053 101.812 253.717C101.812 262.381 104.236 268.199 106.501 268.199C108.766 268.199 111.19 262.381 111.19 253.717C111.19 245.053 108.766 239.235 106.501 239.235Z" fill="#101010"/>
<path d="M21.111 236.744H15.4803C13.1802 236.744 11.3149 242.09 11.3149 248.766C11.3149 255.442 13.1802 260.791 15.4803 260.791H21.111C23.4111 260.791 25.2763 255.444 25.2763 248.768C25.2763 242.091 23.4111 236.744 21.111 236.744Z" fill="#101010"/>
<path d="M15.4817 260.649C17.7822 260.649 19.6471 255.236 19.6471 248.56C19.6471 241.883 17.7822 236.471 15.4817 236.471C13.1813 236.471 11.3164 241.883 11.3164 248.56C11.3164 255.236 13.1813 260.649 15.4817 260.649Z" fill="white"/>
<path d="M15.4818 261.007C12.946 261.007 10.9597 255.54 10.9597 248.56C10.9597 241.58 12.946 236.113 15.4818 236.113C18.0177 236.113 20.004 241.58 20.004 248.56C20.004 255.54 18.0177 261.007 15.4818 261.007ZM15.4818 236.829C13.6421 236.829 11.6733 241.544 11.6733 248.56C11.6733 255.577 13.6421 260.291 15.4818 260.291C17.3216 260.291 19.2904 255.577 19.2904 248.56C19.2904 241.544 17.3216 236.829 15.4818 236.829Z" fill="#101010"/>
<path d="M31.7768 237.463H26.146C23.8459 237.463 21.9807 242.808 21.9807 249.485C21.9807 256.161 23.8459 261.51 26.146 261.51H31.7768C34.0769 261.51 35.9421 256.163 35.9421 249.486C35.9421 242.81 34.0769 237.463 31.7768 237.463Z" fill="#101010"/>
<path d="M26.146 261.371C28.4465 261.371 30.3114 255.959 30.3114 249.282C30.3114 242.606 28.4465 237.193 26.146 237.193C23.8456 237.193 21.9807 242.606 21.9807 249.282C21.9807 255.959 23.8456 261.371 26.146 261.371Z" fill="white"/>
<path d="M26.1461 261.73C23.6103 261.73 21.624 256.263 21.624 249.283C21.624 242.303 23.6103 236.836 26.1461 236.836C28.682 236.836 30.6683 242.303 30.6683 249.283C30.6683 256.263 28.682 261.73 26.1461 261.73ZM26.1461 237.552C24.3064 237.552 22.3376 242.266 22.3376 249.283C22.3376 256.3 24.3064 261.014 26.1461 261.014C27.9859 261.014 29.9547 256.3 29.9547 249.283C29.9547 242.266 27.9859 237.552 26.1461 237.552Z" fill="#101010"/>
<path d="M42.9044 237.461H37.0586C34.6693 237.461 32.7324 243.176 32.7324 250.2C32.7324 257.225 34.6693 262.943 37.0586 262.943H42.9044C45.2937 262.943 47.229 257.226 47.229 250.202C47.229 243.177 45.2921 237.461 42.9044 237.461Z" fill="#101010"/>
<path d="M37.0585 262.714C39.4469 262.714 41.3831 257.02 41.3831 249.996C41.3831 242.972 39.4469 237.277 37.0585 237.277C34.6701 237.277 32.7339 242.972 32.7339 249.996C32.7339 257.02 34.6701 262.714 37.0585 262.714Z" fill="white"/>
<path d="M37.0586 263.074C34.4336 263.074 32.3772 257.329 32.3772 249.996C32.3772 242.663 34.4336 236.92 37.0586 236.92C39.6836 236.92 41.7416 242.663 41.7416 249.996C41.7416 257.329 39.6852 263.074 37.0586 263.074ZM37.0586 237.636C35.1424 237.636 33.0908 242.603 33.0908 249.996C33.0908 257.39 35.1424 262.359 37.0586 262.359C38.9748 262.359 41.028 257.392 41.028 249.996C41.028 242.601 38.9764 237.636 37.0586 237.636Z" fill="#101010"/>
<path d="M104.339 234.339H104.336L35.9389 233.813C35.7414 233.813 35.5837 233.65 35.5853 233.452C35.5853 233.256 35.7461 233.098 35.942 233.098H35.9452L103.984 233.622V146.281L1.1859 152.686V232.831L13.0861 232.922C13.2837 232.922 13.4413 233.085 13.4398 233.283C13.4398 233.48 13.2789 233.638 13.083 233.638H13.0798L0.824318 233.543C0.628396 233.543 0.470703 233.382 0.470703 233.186V152.348C0.470703 152.16 0.617246 152.003 0.805203 151.991L104.315 145.54C104.413 145.535 104.51 145.568 104.581 145.635C104.653 145.702 104.695 145.797 104.695 145.896V233.98C104.695 234.075 104.656 234.166 104.589 234.234C104.523 234.301 104.432 234.337 104.338 234.337L104.339 234.339Z" fill="#101010"/>
<path d="M150.241 225.795L154.424 229.562L155.934 257.678H179.554V225.872L150.241 225.795Z" fill="white"/>
<path d="M179.554 258.037H155.934C155.744 258.037 155.588 257.888 155.577 257.698L154.075 229.73L150 226.062C149.89 225.963 149.852 225.807 149.905 225.668C149.957 225.529 150.089 225.438 150.238 225.438L179.551 225.514C179.747 225.514 179.906 225.674 179.906 225.872V257.679C179.906 257.877 179.747 258.037 179.549 258.037H179.554ZM156.271 257.321H179.197V226.23L151.176 226.156L154.664 229.296C154.734 229.36 154.777 229.447 154.782 229.543L156.273 257.321H156.271Z" fill="#101010"/>
<path d="M177.915 233.447H169.1C165.499 233.447 162.577 242.058 162.577 252.65C162.577 263.243 165.497 271.858 169.1 271.858H177.915C181.516 271.858 184.438 263.244 184.438 252.652C184.438 242.06 181.518 233.447 177.915 233.447Z" fill="#101010"/>
<path d="M169.098 271.552C172.701 271.552 175.621 262.965 175.621 252.373C175.621 241.78 172.701 233.193 169.098 233.193C165.496 233.193 162.576 241.78 162.576 252.373C162.576 262.965 165.496 271.552 169.098 271.552Z" fill="white"/>
<path d="M169.099 271.908C165.242 271.908 162.219 263.327 162.219 252.371C162.219 241.415 165.241 232.834 169.099 232.834C172.956 232.834 175.978 241.415 175.978 252.371C175.978 263.327 172.956 271.908 169.099 271.908ZM169.099 233.551C165.757 233.551 162.934 242.17 162.934 252.373C162.934 262.575 165.758 271.194 169.099 271.194C172.439 271.194 175.263 262.575 175.263 252.373C175.263 242.17 172.439 233.551 169.099 233.551Z" fill="#101010"/>
<path d="M214.178 185.547H214.775C215.981 185.547 216.959 186.528 216.959 187.737V197.292C216.959 198.264 216.172 199.053 215.204 199.053H213.879C213.122 199.053 212.509 198.436 212.509 197.679V187.223C212.509 186.298 213.257 185.547 214.18 185.547H214.178Z" fill="#101010"/>
<path d="M233.882 229.277H225.067C221.465 229.277 218.544 237.888 218.544 248.48C218.544 259.072 221.464 267.688 225.067 267.688H233.882C237.483 267.688 240.404 259.074 240.404 248.482C240.404 237.89 237.485 229.275 233.882 229.275V229.277Z" fill="#101010"/>
<path d="M225.065 267.382C228.667 267.382 231.588 258.795 231.588 248.203C231.588 237.61 228.667 229.023 225.065 229.023C221.463 229.023 218.542 237.61 218.542 248.203C218.542 258.795 221.463 267.382 225.065 267.382Z" fill="white"/>
<path d="M225.065 267.738C221.207 267.738 218.186 259.157 218.186 248.201C218.186 237.245 221.207 228.664 225.065 228.664C228.923 228.664 231.945 237.245 231.945 248.201C231.945 259.157 228.923 267.738 225.065 267.738ZM225.065 229.381C221.723 229.381 218.899 238 218.899 248.203C218.899 258.405 221.723 267.024 225.065 267.024C228.407 267.024 231.229 258.405 231.229 248.203C231.229 238 228.405 229.381 225.065 229.381Z" fill="#101010"/>
<path d="M107.608 234.134L152.632 234.811L152.804 257.469H156.295C156.231 254.519 156.185 251.701 156.185 249.693C156.185 237.612 161.826 227.817 168.785 227.817C173.329 227.817 177.31 231.995 179.525 238.257C188.305 238.69 201.752 238.475 214.763 238.058C234.43 237.427 253.093 236.337 253.093 236.337C253.342 225.814 242.872 221.47 242.872 221.47C242.872 221.47 241.857 212.887 240.371 211.395C238.883 209.903 215.174 201.466 215.174 201.466L204.306 173.85C203.173 171.128 201.593 168.608 199.591 166.434C194.688 161.114 185.257 154.581 168.187 153.771C165.57 153.647 132.984 151.03 116.703 150.289C112.093 150.079 108.486 150.538 107.61 150.611V234.129L107.608 234.134Z" fill="white"/>
<path d="M248.799 225.588L248.095 226.157C246.854 227.158 246.075 228.622 245.933 230.213L245.771 232.058C245.667 233.223 246.623 234.205 247.786 234.133L252.938 233.814C252.422 230.255 250.681 227.547 248.799 225.589V225.588Z" fill="white"/>
<path d="M247.666 234.494C247.058 234.494 246.475 234.248 246.046 233.809C245.586 233.336 245.355 232.686 245.414 232.026L245.576 230.181C245.724 228.502 246.561 226.934 247.868 225.877L248.572 225.308C248.716 225.191 248.924 225.204 249.054 225.338C251.409 227.788 252.835 230.62 253.291 233.759C253.305 233.858 253.278 233.959 253.214 234.037C253.15 234.116 253.058 234.162 252.959 234.168L247.806 234.488C247.76 234.491 247.712 234.493 247.666 234.493V234.494ZM248.765 226.073L248.318 226.434C247.16 227.369 246.419 228.757 246.288 230.243L246.126 232.088C246.086 232.539 246.244 232.985 246.559 233.309C246.873 233.633 247.305 233.803 247.763 233.775L252.524 233.48C252.051 230.745 250.788 228.256 248.767 226.075L248.765 226.073Z" fill="#101010"/>
<path d="M203.974 212.709L164.53 201.47L155.54 172.741C154.414 169.142 152.547 165.809 149.994 163.039C144.127 156.673 131.773 148.568 107.608 150.616V234.134L152.447 234.615L152.804 257.175L156.294 257.681C156.23 254.732 156.185 251.703 156.185 249.696C156.185 237.615 161.826 227.82 168.785 227.82C173.329 227.82 177.31 231.998 179.525 238.261C188.305 238.694 201.752 238.478 214.763 238.061C216.027 238.021 218.542 237.933 218.542 237.933L209.998 218.016C208.888 215.428 206.676 213.48 203.974 212.71V212.709Z" fill="white"/>
<path d="M206.107 213.974C206.046 213.974 205.984 213.958 205.928 213.926C205.285 213.551 204.595 213.259 203.878 213.054L164.435 201.815C164.318 201.781 164.227 201.694 164.192 201.579L155.202 172.85C154.076 169.251 152.185 165.942 149.734 163.284C145.867 159.089 140.825 155.871 134.747 153.721C134.56 153.655 134.463 153.451 134.529 153.264C134.594 153.079 134.798 152.981 134.984 153.045C141.172 155.234 146.311 158.515 150.258 162.797C152.78 165.533 154.724 168.935 155.882 172.635L164.815 201.179L204.074 212.366C204.849 212.586 205.594 212.904 206.288 213.307C206.459 213.406 206.518 213.624 206.418 213.795C206.351 213.91 206.231 213.974 206.108 213.974H206.107Z" fill="#101010"/>
<path d="M156.293 258.04C156.293 258.04 156.279 258.04 156.273 258.04L152.783 257.829C152.595 257.818 152.448 257.663 152.447 257.474L152.278 234.55C152.278 234.485 152.294 234.421 152.327 234.365C153.315 232.686 162.346 217.901 175.048 215.852C181.475 214.813 187.979 215.617 194.382 218.239C202.744 221.662 210.967 228.211 218.819 237.705C218.905 237.811 218.926 237.956 218.87 238.081C218.815 238.205 218.694 238.287 218.558 238.292C217.305 238.335 216.045 238.378 214.778 238.418C198.969 238.924 187.104 238.991 179.511 238.618C179.366 238.61 179.24 238.517 179.192 238.379C176.93 231.991 173.042 228.177 168.788 228.177C162.037 228.177 156.545 237.83 156.545 249.694C156.545 251.59 156.585 254.573 156.653 257.672C156.655 257.773 156.615 257.869 156.544 257.937C156.477 258.001 156.387 258.038 156.297 258.038L156.293 258.04ZM153.159 257.134L155.929 257.3C155.867 254.338 155.83 251.518 155.83 249.695C155.83 237.435 161.642 227.461 168.786 227.461C173.304 227.461 177.404 231.364 179.782 237.915C187.365 238.276 199.127 238.204 214.753 237.704C215.774 237.67 216.79 237.637 217.803 237.601C204.116 221.279 189.772 214.201 175.162 216.559C162.972 218.526 154.188 232.638 152.995 234.644L153.16 257.134H153.159Z" fill="#101010"/>
<path d="M157.49 202.603H141.19C140.993 202.603 140.833 202.443 140.833 202.245V182.358C140.833 182.16 140.993 182 141.19 182H153.136C154.231 182 155.196 182.74 155.483 183.799C156.407 187.207 158.488 195.295 159.646 199.812C159.82 200.486 159.675 201.187 159.25 201.737C158.825 202.286 158.183 202.603 157.488 202.603H157.49ZM141.547 201.887H157.49C157.961 201.887 158.398 201.673 158.688 201.299C158.976 200.925 159.075 200.449 158.957 199.991C157.799 195.476 155.717 187.39 154.795 183.987C154.592 183.24 153.911 182.717 153.136 182.717H141.547V201.889V201.887Z" fill="#101010"/>
<path d="M242.83 224.867C243.02 222.477 242.872 220.071 242.378 217.726C241.838 215.157 240.982 212.31 240.012 211.398C239.339 210.765 238.916 210.54 237.249 209.824H214.127C212.372 209.824 210.721 210.671 209.694 212.099C208.302 214.035 207.883 216.509 208.558 218.796L211.08 227.339C211.521 228.834 212.891 229.861 214.447 229.861H238.81C240.857 229.861 242.558 228.285 242.72 226.238L242.829 224.867H242.83Z" fill="white"/>
<path d="M238.811 230.218H214.449C212.748 230.218 211.223 229.075 210.741 227.439L208.219 218.897C207.518 216.52 207.963 213.9 209.407 211.888C210.498 210.371 212.265 209.465 214.13 209.465H237.252C237.3 209.465 237.348 209.474 237.392 209.494C239.036 210.2 239.531 210.452 240.259 211.136C241.452 212.256 242.319 215.699 242.73 217.651C243.227 220.015 243.381 222.452 243.189 224.894L243.08 226.264C242.905 228.48 241.032 230.216 238.815 230.216L238.811 230.218ZM214.127 210.181C212.491 210.181 210.941 210.976 209.984 212.307C208.667 214.139 208.262 216.526 208.901 218.693L211.422 227.235C211.816 228.569 213.06 229.5 214.447 229.5H238.81C240.658 229.5 242.219 228.053 242.364 226.206L242.472 224.837C242.66 222.463 242.51 220.095 242.027 217.798C241.368 214.663 240.524 212.368 239.767 211.657C239.154 211.082 238.807 210.882 237.174 210.179H214.125L214.127 210.181Z" fill="#101010"/>
<path d="M140.919 181.072H144.253C145.459 181.072 146.437 182.053 146.437 183.263V192.818C146.437 193.789 145.65 194.578 144.682 194.578H140.62C139.863 194.578 139.25 193.962 139.25 193.204V182.748C139.25 181.823 139.999 181.072 140.921 181.072H140.919Z" fill="#101010"/>
<path d="M140.919 195.861H144.253C145.459 195.861 146.437 196.842 146.437 198.052V201.33C146.437 202.301 145.65 203.09 144.682 203.09H140.62C139.863 203.09 139.25 202.474 139.25 201.717V197.537C139.25 196.612 139.999 195.861 140.921 195.861H140.919Z" fill="#101010"/>
<path d="M189.581 260.363L245.83 257.715C248.858 257.573 251.32 255.217 251.605 252.189L253.093 236.338L179.525 238.258L183.087 255.321C183.724 258.374 186.477 260.51 189.583 260.364L189.581 260.363Z" fill="white"/>
<path d="M189.275 260.729C186.112 260.729 183.391 258.531 182.737 255.395L179.175 238.332C179.153 238.229 179.178 238.12 179.245 238.037C179.31 237.954 179.409 237.904 179.516 237.901L253.083 235.981C253.182 235.976 253.284 236.019 253.354 236.094C253.424 236.169 253.458 236.27 253.45 236.372L251.962 252.224C251.663 255.409 249.034 257.924 245.849 258.074L189.6 260.721C189.492 260.726 189.385 260.729 189.278 260.729H189.275ZM189.563 260.007L245.812 257.36C248.646 257.226 250.983 254.991 251.249 252.157L252.698 236.708L179.96 238.606L183.433 255.248C184.038 258.144 186.617 260.143 189.562 260.007H189.563Z" fill="#101010"/>
<path d="M208.412 201.083C208.39 201.083 208.366 201.083 208.343 201.083L169.964 199.957C168.415 199.911 167.08 198.879 166.644 197.387L161.877 181.102C161.682 180.441 161.816 179.752 162.241 179.212C162.667 178.672 163.299 178.388 163.99 178.418L200.999 179.233C202.579 179.268 203.96 180.249 204.514 181.733L210.553 197.88C210.852 198.598 210.768 199.423 210.32 200.077C209.887 200.711 209.178 201.083 208.415 201.083H208.412ZM163.885 179.132C163.454 179.132 163.065 179.321 162.8 179.656C162.52 180.013 162.433 180.466 162.56 180.899L167.327 197.184C167.676 198.377 168.743 199.203 169.983 199.24L208.363 200.366C208.912 200.393 209.419 200.122 209.728 199.671C210.037 199.221 210.096 198.649 209.884 198.144L203.84 181.984C203.388 180.775 202.265 179.976 200.978 179.947L163.96 179.132C163.935 179.132 163.907 179.131 163.882 179.131L163.885 179.132Z" fill="#101010"/>
<path d="M179.097 193.508H165.776C165.619 193.508 165.478 193.404 165.434 193.251L161.877 181.103C161.684 180.441 161.816 179.753 162.242 179.213C162.667 178.673 163.309 178.385 163.991 178.419L200.999 179.233C202.579 179.269 203.96 180.25 204.514 181.734L206.085 185.934C206.126 186.044 206.111 186.167 206.044 186.263C205.977 186.359 205.867 186.416 205.751 186.416H196.136C193.017 186.416 190.085 187.635 187.88 189.846C185.521 192.212 182.409 193.505 179.099 193.505L179.097 193.508ZM166.044 192.792H179.097C182.216 192.792 185.149 191.573 187.353 189.362C189.712 186.995 192.825 185.702 196.134 185.702H205.234L203.845 181.986C203.393 180.777 202.27 179.978 200.983 179.949L163.965 179.134C163.503 179.112 163.083 179.301 162.804 179.657C162.524 180.013 162.436 180.465 162.563 180.9L166.045 192.791L166.044 192.792Z" fill="#101010"/>
<path d="M208.412 201.083C208.39 201.083 208.366 201.083 208.343 201.083L169.964 199.957C168.415 199.911 167.08 198.879 166.644 197.387L161.877 181.102C161.682 180.441 161.816 179.752 162.241 179.212C162.667 178.672 163.299 178.388 163.99 178.418L200.999 179.233C202.579 179.268 203.96 180.249 204.514 181.733L210.553 197.88C210.852 198.598 210.768 199.423 210.32 200.077C209.887 200.711 209.178 201.083 208.415 201.083H208.412ZM163.885 179.132C163.454 179.132 163.065 179.321 162.8 179.656C162.52 180.013 162.433 180.466 162.56 180.899L167.327 197.184C167.676 198.377 168.743 199.203 169.983 199.24L208.363 200.366C208.912 200.393 209.419 200.122 209.728 199.671C210.037 199.221 210.096 198.649 209.884 198.144L203.84 181.984C203.388 180.775 202.265 179.976 200.978 179.947L163.96 179.132C163.935 179.132 163.907 179.131 163.882 179.131L163.885 179.132Z" fill="#101010"/>
<path d="M209.331 233.414L203.053 229.376C200.366 227.647 197.243 226.729 194.051 226.729H192.515C190.314 226.729 188.528 228.518 188.528 230.727V230.81C188.528 233.224 190.479 235.181 192.886 235.181H208.815C209.769 235.181 210.134 233.934 209.331 233.416V233.414Z" fill="white"/>
<path d="M208.815 235.538H192.886C190.287 235.538 188.171 233.416 188.171 230.809V230.726C188.171 228.325 190.119 226.369 192.514 226.369H194.049C197.316 226.369 200.495 227.304 203.245 229.072L209.522 233.111C210.025 233.435 210.24 234.015 210.073 234.59C209.906 235.166 209.411 235.536 208.813 235.536L208.815 235.538ZM192.515 227.086C190.514 227.086 188.887 228.719 188.887 230.726V230.809C188.887 233.022 190.682 234.822 192.888 234.822H208.816C209.148 234.822 209.331 234.598 209.391 234.391C209.452 234.181 209.419 233.895 209.14 233.717L202.862 229.678C200.228 227.983 197.182 227.086 194.052 227.086H192.517H192.515Z" fill="#101010"/>
<path d="M156.297 257.827H152.805C152.609 257.827 152.45 257.669 152.448 257.472L152.28 235.165L107.605 234.493C107.409 234.489 107.253 234.33 107.253 234.135V150.617C107.253 150.432 107.394 150.277 107.579 150.261C107.688 150.251 107.837 150.237 108.027 150.217C109.413 150.078 112.66 149.751 116.721 149.936C128.458 150.471 148.987 152.004 160.016 152.828C164.349 153.152 167.48 153.385 168.207 153.419C185.382 154.234 194.898 160.818 199.855 166.197C201.856 168.368 203.466 170.898 204.637 173.717L215.449 201.187C218.472 202.275 238.834 209.639 240.275 211.15C242.649 213.641 243.143 219.948 243.221 221.236C244.713 221.932 253.686 226.536 253.453 236.347C253.448 236.534 253.302 236.686 253.117 236.696C252.931 236.707 234.226 237.793 214.779 238.416C198.969 238.923 187.104 238.99 179.511 238.616C179.366 238.608 179.24 238.515 179.193 238.378C176.931 231.989 173.042 228.176 168.788 228.176C162.037 228.176 156.545 237.828 156.545 249.692C156.545 251.478 156.582 254.092 156.655 257.46C156.657 257.555 156.62 257.648 156.553 257.717C156.486 257.786 156.394 257.824 156.298 257.824L156.297 257.827ZM153.159 257.111H155.932C155.864 253.915 155.828 251.419 155.828 249.694C155.828 237.434 161.641 227.46 168.785 227.46C173.302 227.46 177.402 231.363 179.78 237.913C187.364 238.274 199.126 238.202 214.751 237.702C232.767 237.124 250.143 236.151 252.74 236.002C252.755 226.078 242.837 221.846 242.735 221.804C242.606 221.752 242.521 221.629 242.515 221.49C242.512 221.416 242.165 214.174 239.756 211.647C238.732 210.573 224.422 205.175 215.053 201.807C214.955 201.772 214.879 201.697 214.841 201.601L203.973 173.985C202.835 171.25 201.271 168.791 199.328 166.681C194.46 161.401 185.104 154.937 168.17 154.133C167.434 154.098 164.299 153.865 159.96 153.54C148.935 152.718 128.414 151.184 116.687 150.65C112.68 150.468 109.468 150.791 108.097 150.928C108.051 150.933 108.008 150.936 107.966 150.941V233.782L152.638 234.454C152.832 234.457 152.988 234.616 152.99 234.809L153.159 257.111Z" fill="#101010"/>
<path d="M214.734 215.542C214.539 215.542 214.38 215.386 214.377 215.191C214.374 214.993 214.53 214.83 214.727 214.827L235.951 214.469H235.957C236.151 214.469 236.311 214.625 236.314 214.82C236.317 215.018 236.159 215.181 235.963 215.184L214.74 215.542H214.734Z" fill="#101010"/>
<path d="M214.734 220.2C214.539 220.2 214.38 220.044 214.377 219.847C214.374 219.649 214.532 219.486 214.729 219.483L238.091 219.125H238.096C238.291 219.125 238.45 219.282 238.453 219.478C238.456 219.676 238.299 219.839 238.101 219.842L214.739 220.2H214.734Z" fill="#101010"/>
<path d="M219.368 224.857C219.173 224.857 219.016 224.702 219.011 224.507C219.006 224.309 219.164 224.146 219.36 224.141L235.949 223.783H235.957C236.152 223.783 236.309 223.938 236.314 224.133C236.319 224.331 236.161 224.494 235.965 224.499L219.376 224.857H219.368Z" fill="#101010"/>
<path d="M129.619 227.086H116.531C116.333 227.086 116.174 226.926 116.174 226.728V211.997C116.174 211.798 116.333 211.639 116.531 211.639H129.619C129.817 211.639 129.976 211.798 129.976 211.997V226.728C129.976 226.926 129.817 227.086 129.619 227.086ZM116.888 226.37H129.263V212.356H116.888V226.37Z" fill="#101010"/>
</g>
<defs>
<clipPath id="clip0_34_738">
<rect width="293.056" height="292.361" fill="white" transform="translate(0.472168 0.472656)"/>
</clipPath>
</defs>
</svg>
